<ttFont>
    <TTGlyph name=".notdef" xMin="50" yMin="0" xMax="1074" yMax="1280">
      <contour>
        <pt x="50" y="0" on="1"/>
        <pt x="50" y="1280" on="1"/>
        <pt x="1074" y="1280" on="1"/>
        <pt x="1074" y="0" on="1"/>
      </contour>
      <contour>
        <pt x="82" y="32" on="1"/>
        <pt x="1042" y="32" on="1"/>
        <pt x="1042" y="1248" on="1"/>
        <pt x="82" y="1248" on="1"/>
      </contour>
    </TTGlyph>
    <TTGlyph name="A" xMin="25" yMin="0" xMax="1537" yMax="1430">
      <contour>
        <pt x="297" y="0" on="1"/>
        <pt x="25" y="0" on="1"/>
        <pt x="632" y="1430" on="1"/>
        <pt x="917" y="1430" on="1"/>
        <pt x="1537" y="0" on="1"/>
        <pt x="1252" y="0" on="1"/>
        <pt x="1089" y="390" on="1"/>
        <pt x="614" y="390" on="1"/>
        <pt x="705" y="620" on="1"/>
        <pt x="993" y="620" on="1"/>
        <pt x="768" y="1157" on="1"/>
      </contour>
    </TTGlyph>
    <TTGlyph name="AE" xMin="25" yMin="0" xMax="1800" yMax="1430">
      <contour>
        <pt x="812" y="600" on="1"/>
        <pt x="880" y="390" on="1"/>
        <pt x="461" y="390" on="1"/>
        <pt x="307" y="0" on="1"/>
        <pt x="25" y="0" on="1"/>
        <pt x="632" y="1430" on="1"/>
        <pt x="1780" y="1430" on="1"/>
        <pt x="1780" y="1200" on="1"/>
        <pt x="992" y="1200" on="1"/>
        <pt x="1152" y="840" on="1"/>
        <pt x="1745" y="840" on="1"/>
        <pt x="1745" y="610" on="1"/>
        <pt x="1251" y="610" on="1"/>
        <pt x="1417" y="230" on="1"/>
        <pt x="1800" y="230" on="1"/>
        <pt x="1800" y="0" on="1"/>
        <pt x="1222" y="0" on="1"/>
        <pt x="762" y="1144" on="1"/>
        <pt x="542" y="600" on="1"/>
      </contour>
    </TTGlyph>
    <TTGlyph name="Aacute" xMin="25" yMin="0" xMax="1537" yMax="1810">
      <component glyphName="A" x="0" y="0" flags="0x200"/>
      <component glyphName="acute" x="527" y="380" flags="0x0"/>
    </TTGlyph>
    <TTGlyph name="Abreve" xMin="25" yMin="0" xMax="1537" yMax="1810">
      <component glyphName="A" x="0" y="0" flags="0x200"/>
      <component glyphName="breve" x="386" y="380" flags="0x0"/>
    </TTGlyph>
    <TTGlyph name="Acircumflex" xMin="25" yMin="0" xMax="1537" yMax="1810">
      <component glyphName="A" x="0" y="0" flags="0x200"/>
      <component glyphName="circumflex" x="431" y="380" flags="0x0"/>
    </TTGlyph>
    <TTGlyph name="Adieresis" xMin="25" yMin="0" xMax="1537" yMax="1810">
      <component glyphName="A" x="0" y="0" flags="0x200"/>
      <component glyphName="dieresis" x="404" y="380" flags="0x0"/>
    </TTGlyph>
    <TTGlyph name="Agrave" xMin="25" yMin="0" xMax="1537" yMax="1810">
      <component glyphName="A" x="0" y="0" flags="0x200"/>
      <component glyphName="grave" x="372" y="380" flags="0x0"/>
    </TTGlyph>
    <TTGlyph name="Alpha" xMin="25" yMin="0" xMax="1537" yMax="1430">
      <component glyphName="A" x="0" y="0" flags="0x200"/>
    </TTGlyph>
    <TTGlyph name="Alphatonos" xMin="25" yMin="0" xMax="1537" yMax="1430">
      <component glyphName="tonos" x="0" y="0" flags="0x0"/>
      <component glyphName="Alpha" x="0" y="0" flags="0x200"/>
    </TTGlyph>
    <TTGlyph name="Amacron" xMin="25" yMin="0" xMax="1537" yMax="1810">
      <component glyphName="A" x="0" y="0" flags="0x200"/>
      <component glyphName="macron" x="431" y="380" flags="0x0"/>
    </TTGlyph>
    <TTGlyph name="Aogonek" xMin="25" yMin="-426" xMax="1537" yMax="1430">
      <contour>
        <pt x="297" y="0" on="1"/>
        <pt x="25" y="0" on="1"/>
        <pt x="632" y="1430" on="1"/>
        <pt x="917" y="1430" on="1"/>
        <pt x="1537" y="0" on="1"/>
        <pt x="1299" y="-96" on="0"/>
        <pt x="1299" y="-198" on="1"/>
        <pt x="1299" y="-266" on="0"/>
        <pt x="1384" y="-266" on="1"/>
        <pt x="1469" y="-266" on="0"/>
        <pt x="1521" y="-246" on="1"/>
        <pt x="1521" y="-406" on="1"/>
        <pt x="1460" y="-426" on="0"/>
        <pt x="1372" y="-426" on="1"/>
        <pt x="1111" y="-426" on="0"/>
        <pt x="1111" y="-223" on="1"/>
        <pt x="1111" y="-92" on="0"/>
        <pt x="1252" y="0" on="1"/>
        <pt x="1089" y="390" on="1"/>
        <pt x="614" y="390" on="1"/>
        <pt x="705" y="620" on="1"/>
        <pt x="993" y="620" on="1"/>
        <pt x="768" y="1157" on="1"/>
      </contour>
    </TTGlyph>
    <TTGlyph name="Aring" xMin="25" yMin="0" xMax="1537" yMax="1819">
      <contour>
        <pt x="776" y="1474" on="1"/>
        <pt x="910" y="1474" on="0"/>
        <pt x="910" y="1611" on="1"/>
        <pt x="910" y="1745" on="0"/>
        <pt x="776" y="1745" on="1"/>
        <pt x="638" y="1745" on="0"/>
        <pt x="638" y="1611" on="1"/>
        <pt x="638" y="1474" on="0"/>
      </contour>
      <contour>
        <pt x="297" y="0" on="1"/>
        <pt x="25" y="0" on="1"/>
        <pt x="632" y="1430" on="1"/>
        <pt x="636" y="1430" on="1"/>
        <pt x="548" y="1479" on="0"/>
        <pt x="548" y="1609" on="1"/>
        <pt x="548" y="1819" on="0"/>
        <pt x="776" y="1819" on="1"/>
        <pt x="1000" y="1819" on="0"/>
        <pt x="1000" y="1609" on="1"/>
        <pt x="1000" y="1479" on="0"/>
        <pt x="914" y="1430" on="1"/>
        <pt x="917" y="1430" on="1"/>
        <pt x="1537" y="0" on="1"/>
        <pt x="1252" y="0" on="1"/>
        <pt x="1089" y="390" on="1"/>
        <pt x="614" y="390" on="1"/>
        <pt x="705" y="620" on="1"/>
        <pt x="993" y="620" on="1"/>
        <pt x="768" y="1157" on="1"/>
      </contour>
    </TTGlyph>
    <TTGlyph name="Atilde" xMin="25" yMin="0" xMax="1537" yMax="1810">
      <component glyphName="A" x="0" y="0" flags="0x200"/>
      <component glyphName="tilde" x="431" y="380" flags="0x0"/>
    </TTGlyph>
    <TTGlyph name="B" xMin="150" yMin="0" xMax="1246" yMax="1430">
      <contour>
        <pt x="150" y="0" on="1"/>
        <pt x="150" y="1430" on="1"/>
        <pt x="820" y="1430" on="1"/>
        <pt x="1228" y="1430" on="0"/>
        <pt x="1228" y="1097" on="1"/>
        <pt x="1228" y="853" on="0"/>
        <pt x="962" y="748" on="1"/>
        <pt x="1246" y="695" on="0"/>
        <pt x="1246" y="423" on="1"/>
        <pt x="1246" y="0" on="0"/>
        <pt x="799" y="0" on="1"/>
      </contour>
      <contour>
        <pt x="788" y="230" on="1"/>
        <pt x="964" y="230" on="0"/>
        <pt x="964" y="410" on="1"/>
        <pt x="964" y="633" on="0"/>
        <pt x="701" y="633" on="1"/>
        <pt x="621" y="633" on="1"/>
        <pt x="621" y="804" on="1"/>
        <pt x="951" y="859" on="0"/>
        <pt x="951" y="1080" on="1"/>
        <pt x="951" y="1200" on="0"/>
        <pt x="803" y="1200" on="1"/>
        <pt x="415" y="1200" on="1"/>
        <pt x="415" y="230" on="1"/>
      </contour>
    </TTGlyph>
    <TTGlyph name="Beta" xMin="150" yMin="0" xMax="1246" yMax="1430">
      <component glyphName="B" x="0" y="0" flags="0x200"/>
    </TTGlyph>
    <TTGlyph name="C" xMin="100" yMin="-10" xMax="1290" yMax="1440">
      <contour>
        <pt x="1290" y="60" on="1"/>
        <pt x="1105" y="-10" on="0"/>
        <pt x="870" y="-10" on="1"/>
        <pt x="100" y="-10" on="0"/>
        <pt x="100" y="735" on="1"/>
        <pt x="100" y="1440" on="0"/>
        <pt x="870" y="1440" on="1"/>
        <pt x="1105" y="1440" on="0"/>
        <pt x="1290" y="1370" on="1"/>
        <pt x="1290" y="1130" on="1"/>
        <pt x="1105" y="1210" on="0"/>
        <pt x="890" y="1210" on="1"/>
        <pt x="375" y="1210" on="0"/>
        <pt x="375" y="735" on="1"/>
        <pt x="375" y="220" on="0"/>
        <pt x="890" y="220" on="1"/>
        <pt x="1105" y="220" on="0"/>
        <pt x="1290" y="300" on="1"/>
      </contour>
    </TTGlyph>
    <TTGlyph name="Cacute" xMin="100" yMin="-10" xMax="1290" yMax="1810">
      <component glyphName="C" x="0" y="0" flags="0x200"/>
      <component glyphName="acute" x="441" y="380" flags="0x0"/>
    </TTGlyph>
    <TTGlyph name="Ccaron" xMin="100" yMin="-10" xMax="1290" yMax="1810">
      <component glyphName="C" x="0" y="0" flags="0x200"/>
      <component glyphName="caron" x="453" y="380" flags="0x0"/>
    </TTGlyph>
    <TTGlyph name="Ccedilla" xMin="100" yMin="-422" xMax="1290" yMax="1440">
      <contour>
        <pt x="720" y="-2" on="1"/>
        <pt x="100" y="67" on="0"/>
        <pt x="100" y="735" on="1"/>
        <pt x="100" y="1440" on="0"/>
        <pt x="870" y="1440" on="1"/>
        <pt x="1105" y="1440" on="0"/>
        <pt x="1290" y="1370" on="1"/>
        <pt x="1290" y="1130" on="1"/>
        <pt x="1105" y="1210" on="0"/>
        <pt x="890" y="1210" on="1"/>
        <pt x="375" y="1210" on="0"/>
        <pt x="375" y="735" on="1"/>
        <pt x="375" y="220" on="0"/>
        <pt x="890" y="220" on="1"/>
        <pt x="1105" y="220" on="0"/>
        <pt x="1290" y="300" on="1"/>
        <pt x="1290" y="60" on="1"/>
        <pt x="1108" y="-9" on="0"/>
        <pt x="877" y="-10" on="1"/>
        <pt x="841" y="-77" on="1"/>
        <pt x="1055" y="-77" on="0"/>
        <pt x="1055" y="-239" on="1"/>
        <pt x="1055" y="-422" on="0"/>
        <pt x="784" y="-422" on="1"/>
        <pt x="676" y="-422" on="0"/>
        <pt x="568" y="-372" on="1"/>
        <pt x="568" y="-244" on="1"/>
        <pt x="676" y="-294" on="0"/>
        <pt x="784" y="-294" on="1"/>
        <pt x="892" y="-294" on="0"/>
        <pt x="892" y="-239" on="1"/>
        <pt x="892" y="-195" on="0"/>
        <pt x="809" y="-195" on="1"/>
        <pt x="626" y="-195" on="1"/>
      </contour>
    </TTGlyph>
    <TTGlyph name="Ccircumflex" xMin="100" yMin="-10" xMax="1290" yMax="1810">
      <component glyphName="C" x="0" y="0" flags="0x200"/>
      <component glyphName="circumflex" x="485" y="380" flags="0x0"/>
    </TTGlyph>
    <TTGlyph name="Cdotaccent" xMin="100" yMin="-10" xMax="1290" yMax="1810">
      <component glyphName="C" x="0" y="0" flags="0x200"/>
      <component glyphName="dotaccent" x="638" y="380" flags="0x0"/>
    </TTGlyph>
    <TTGlyph name="Chi" xMin="25" yMin="0" xMax="1485" yMax="1430">
      <component glyphName="X" x="0" y="0" flags="0x200"/>
    </TTGlyph>
    <TTGlyph name="D" xMin="150" yMin="0" xMax="1420" yMax="1430">
      <contour>
        <pt x="710" y="230" on="1"/>
        <pt x="1155" y="230" on="0"/>
        <pt x="1155" y="754" on="1"/>
        <pt x="1155" y="1200" on="0"/>
        <pt x="710" y="1200" on="1"/>
        <pt x="415" y="1200" on="1"/>
        <pt x="415" y="230" on="1"/>
      </contour>
      <contour>
        <pt x="150" y="0" on="1"/>
        <pt x="150" y="1430" on="1"/>
        <pt x="710" y="1430" on="1"/>
        <pt x="1420" y="1430" on="0"/>
        <pt x="1420" y="754" on="1"/>
        <pt x="1420" y="0" on="0"/>
        <pt x="710" y="0" on="1"/>
      </contour>
    </TTGlyph>
    <TTGlyph name="Dcaron" xMin="150" yMin="0" xMax="1420" yMax="1810">
      <component glyphName="D" x="0" y="0" flags="0x200"/>
      <component glyphName="caron" x="435" y="380" flags="0x0"/>
    </TTGlyph>
    <TTGlyph name="Dcroat" xMin="-50" yMin="0" xMax="1380" yMax="1430">
      <component glyphName="Eth" x="0" y="0" flags="0x200"/>
    </TTGlyph>
    <TTGlyph name="Delta" xMin="25" yMin="0" xMax="1537" yMax="1430">
      <contour>
        <pt x="391" y="230" on="1"/>
        <pt x="1156" y="230" on="1"/>
        <pt x="768" y="1157" on="1"/>
      </contour>
      <contour>
        <pt x="25" y="0" on="1"/>
        <pt x="632" y="1430" on="1"/>
        <pt x="917" y="1430" on="1"/>
        <pt x="1537" y="0" on="1"/>
      </contour>
    </TTGlyph>
    <TTGlyph name="E" xMin="150" yMin="0" xMax="1143" yMax="1430">
      <contour>
        <pt x="1129" y="1430" on="1"/>
        <pt x="1129" y="1202" on="1"/>
        <pt x="413" y="1202" on="1"/>
        <pt x="413" y="842" on="1"/>
        <pt x="1095" y="842" on="1"/>
        <pt x="1095" y="605" on="1"/>
        <pt x="410" y="605" on="1"/>
        <pt x="410" y="230" on="1"/>
        <pt x="1143" y="230" on="1"/>
        <pt x="1143" y="0" on="1"/>
        <pt x="150" y="0" on="1"/>
        <pt x="150" y="1430" on="1"/>
      </contour>
    </TTGlyph>
    <TTGlyph name="Eacute" xMin="150" yMin="0" xMax="1143" yMax="1810">
      <component glyphName="E" x="0" y="0" flags="0x200"/>
      <component glyphName="acute" x="372" y="380" flags="0x0"/>
    </TTGlyph>
    <TTGlyph name="Ebreve" xMin="150" yMin="0" xMax="1143" yMax="1810">
      <component glyphName="E" x="0" y="0" flags="0x200"/>
      <component glyphName="breve" x="232" y="380" flags="0x0"/>
    </TTGlyph>
    <TTGlyph name="Ecaron" xMin="150" yMin="0" xMax="1143" yMax="1810">
      <component glyphName="E" x="0" y="0" flags="0x200"/>
      <component glyphName="caron" x="277" y="380" flags="0x0"/>
    </TTGlyph>
    <TTGlyph name="Ecircumflex" xMin="150" yMin="0" xMax="1143" yMax="1810">
      <component glyphName="E" x="0" y="0" flags="0x200"/>
      <component glyphName="circumflex" x="277" y="380" flags="0x0"/>
    </TTGlyph>
    <TTGlyph name="Edieresis" xMin="150" yMin="0" xMax="1143" yMax="1810">
      <component glyphName="E" x="0" y="0" flags="0x200"/>
      <component glyphName="dieresis" x="249" y="380" flags="0x0"/>
    </TTGlyph>
    <TTGlyph name="Edotaccent" xMin="150" yMin="0" xMax="1143" yMax="1810">
      <component glyphName="E" x="0" y="0" flags="0x200"/>
      <component glyphName="dotaccent" x="409" y="380" flags="0x0"/>
    </TTGlyph>
    <TTGlyph name="Egrave" xMin="150" yMin="0" xMax="1143" yMax="1810">
      <component glyphName="E" x="0" y="0" flags="0x200"/>
      <component glyphName="grave" x="218" y="380" flags="0x0"/>
    </TTGlyph>
    <TTGlyph name="Emacron" xMin="150" yMin="0" xMax="1143" yMax="1810">
      <component glyphName="E" x="0" y="0" flags="0x200"/>
      <component glyphName="macron" x="277" y="380" flags="0x0"/>
    </TTGlyph>
    <TTGlyph name="Eng" xMin="150" yMin="-438" xMax="1425" yMax="1430">
      <contour>
        <pt x="1157" y="4" on="1"/>
        <pt x="405" y="1064" on="1"/>
        <pt x="405" y="0" on="1"/>
        <pt x="150" y="0" on="1"/>
        <pt x="150" y="1430" on="1"/>
        <pt x="415" y="1430" on="1"/>
        <pt x="1170" y="388" on="1"/>
        <pt x="1170" y="1430" on="1"/>
        <pt x="1425" y="1430" on="1"/>
        <pt x="1425" y="80" on="1"/>
        <pt x="1425" y="-238" on="0"/>
        <pt x="1243" y="-438" on="1"/>
        <pt x="1035" y="-293" on="1"/>
        <pt x="1139" y="-180" on="0"/>
      </contour>
    </TTGlyph>
    <TTGlyph name="Eogonek" xMin="150" yMin="-426" xMax="1143" yMax="1430">
      <contour>
        <pt x="858" y="0" on="1"/>
        <pt x="150" y="0" on="1"/>
        <pt x="150" y="1430" on="1"/>
        <pt x="1129" y="1430" on="1"/>
        <pt x="1129" y="1202" on="1"/>
        <pt x="413" y="1202" on="1"/>
        <pt x="413" y="842" on="1"/>
        <pt x="1095" y="842" on="1"/>
        <pt x="1095" y="605" on="1"/>
        <pt x="410" y="605" on="1"/>
        <pt x="410" y="230" on="1"/>
        <pt x="1143" y="230" on="1"/>
        <pt x="1143" y="0" on="1"/>
        <pt x="905" y="-96" on="0"/>
        <pt x="905" y="-198" on="1"/>
        <pt x="905" y="-266" on="0"/>
        <pt x="990" y="-266" on="1"/>
        <pt x="1075" y="-266" on="0"/>
        <pt x="1127" y="-246" on="1"/>
        <pt x="1127" y="-406" on="1"/>
        <pt x="1066" y="-426" on="0"/>
        <pt x="978" y="-426" on="1"/>
        <pt x="717" y="-426" on="0"/>
        <pt x="717" y="-223" on="1"/>
        <pt x="717" y="-92" on="0"/>
      </contour>
    </TTGlyph>
    <TTGlyph name="Epsilon" xMin="150" yMin="0" xMax="1143" yMax="1430">
      <component glyphName="E" x="0" y="0" flags="0x200"/>
    </TTGlyph>
    <TTGlyph name="Epsilontonos" xMin="-50" yMin="0" xMax="1456" yMax="1430">
      <contour>
        <pt x="94" y="1430" on="1"/>
        <pt x="413" y="1430" on="1"/>
        <pt x="174" y="1171" on="1"/>
        <pt x="-50" y="1171" on="1"/>
      </contour>
      <contour>
        <pt x="1442" y="1430" on="1"/>
        <pt x="1442" y="1202" on="1"/>
        <pt x="726" y="1202" on="1"/>
        <pt x="726" y="842" on="1"/>
        <pt x="1408" y="842" on="1"/>
        <pt x="1408" y="605" on="1"/>
        <pt x="723" y="605" on="1"/>
        <pt x="723" y="230" on="1"/>
        <pt x="1456" y="230" on="1"/>
        <pt x="1456" y="0" on="1"/>
        <pt x="463" y="0" on="1"/>
        <pt x="463" y="1430" on="1"/>
      </contour>
    </TTGlyph>
    <TTGlyph name="Eta" xMin="150" yMin="0" xMax="1385" yMax="1430">
      <component glyphName="H" x="0" y="0" flags="0x200"/>
    </TTGlyph>
    <TTGlyph name="Etatonos" xMin="-50" yMin="0" xMax="1698" yMax="1430">
      <contour>
        <pt x="94" y="1430" on="1"/>
        <pt x="413" y="1430" on="1"/>
        <pt x="174" y="1171" on="1"/>
        <pt x="-50" y="1171" on="1"/>
      </contour>
      <contour>
        <pt x="463" y="0" on="1"/>
        <pt x="463" y="1430" on="1"/>
        <pt x="728" y="1430" on="1"/>
        <pt x="728" y="840" on="1"/>
        <pt x="1433" y="840" on="1"/>
        <pt x="1433" y="1430" on="1"/>
        <pt x="1698" y="1430" on="1"/>
        <pt x="1698" y="0" on="1"/>
        <pt x="1433" y="0" on="1"/>
        <pt x="1433" y="610" on="1"/>
        <pt x="728" y="610" on="1"/>
        <pt x="728" y="0" on="1"/>
      </contour>
    </TTGlyph>
    <TTGlyph name="Eth" xMin="-50" yMin="0" xMax="1380" yMax="1430">
      <contour>
        <pt x="150" y="840" on="1"/>
        <pt x="150" y="1430" on="1"/>
        <pt x="670" y="1430" on="1"/>
        <pt x="1380" y="1430" on="0"/>
        <pt x="1380" y="754" on="1"/>
        <pt x="1380" y="0" on="0"/>
        <pt x="670" y="0" on="1"/>
        <pt x="150" y="0" on="1"/>
        <pt x="150" y="610" on="1"/>
        <pt x="-50" y="610" on="1"/>
        <pt x="-50" y="840" on="1"/>
      </contour>
      <contour>
        <pt x="415" y="840" on="1"/>
        <pt x="700" y="840" on="1"/>
        <pt x="700" y="610" on="1"/>
        <pt x="415" y="610" on="1"/>
        <pt x="415" y="230" on="1"/>
        <pt x="670" y="230" on="1"/>
        <pt x="1115" y="230" on="0"/>
        <pt x="1115" y="754" on="1"/>
        <pt x="1115" y="1200" on="0"/>
        <pt x="670" y="1200" on="1"/>
        <pt x="415" y="1200" on="1"/>
      </contour>
    </TTGlyph>
    <TTGlyph name="Euro" xMin="100" yMin="-10" xMax="1250" yMax="1440">
      <contour>
        <pt x="1250" y="50" on="1"/>
        <pt x="1065" y="-10" on="0"/>
        <pt x="850" y="-10" on="1"/>
        <pt x="100" y="-10" on="0"/>
        <pt x="100" y="735" on="1"/>
        <pt x="100" y="1440" on="0"/>
        <pt x="850" y="1440" on="1"/>
        <pt x="1065" y="1440" on="0"/>
        <pt x="1250" y="1380" on="1"/>
        <pt x="1250" y="1140" on="1"/>
        <pt x="1065" y="1210" on="0"/>
        <pt x="870" y="1210" on="1"/>
        <pt x="452" y="1210" on="0"/>
        <pt x="385" y="982" on="1"/>
        <pt x="1058" y="982" on="1"/>
        <pt x="1058" y="772" on="1"/>
        <pt x="365" y="772" on="1"/>
        <pt x="365" y="702" on="1"/>
        <pt x="1058" y="702" on="1"/>
        <pt x="1058" y="492" on="1"/>
        <pt x="385" y="492" on="1"/>
        <pt x="442" y="220" on="0"/>
        <pt x="870" y="220" on="1"/>
        <pt x="1065" y="220" on="0"/>
        <pt x="1250" y="290" on="1"/>
      </contour>
    </TTGlyph>
    <TTGlyph name="F" xMin="150" yMin="0" xMax="1089" yMax="1430">
      <contour>
        <pt x="1089" y="1430" on="1"/>
        <pt x="1089" y="1202" on="1"/>
        <pt x="413" y="1202" on="1"/>
        <pt x="413" y="842" on="1"/>
        <pt x="1055" y="842" on="1"/>
        <pt x="1055" y="605" on="1"/>
        <pt x="410" y="605" on="1"/>
        <pt x="410" y="0" on="1"/>
        <pt x="150" y="0" on="1"/>
        <pt x="150" y="1430" on="1"/>
      </contour>
    </TTGlyph>
    <TTGlyph name="G" xMin="100" yMin="-10" xMax="1290" yMax="1440">
      <contour>
        <pt x="1290" y="66" on="1"/>
        <pt x="1117" y="-10" on="0"/>
        <pt x="857" y="-10" on="1"/>
        <pt x="100" y="-10" on="0"/>
        <pt x="100" y="735" on="1"/>
        <pt x="100" y="1440" on="0"/>
        <pt x="870" y="1440" on="1"/>
        <pt x="1105" y="1440" on="0"/>
        <pt x="1290" y="1370" on="1"/>
        <pt x="1290" y="1130" on="1"/>
        <pt x="1105" y="1210" on="0"/>
        <pt x="890" y="1210" on="1"/>
        <pt x="375" y="1210" on="0"/>
        <pt x="375" y="735" on="1"/>
        <pt x="375" y="220" on="0"/>
        <pt x="861" y="220" on="1"/>
        <pt x="933" y="220" on="0"/>
        <pt x="1025" y="244" on="1"/>
        <pt x="1025" y="660" on="1"/>
        <pt x="1290" y="660" on="1"/>
      </contour>
    </TTGlyph>
    <TTGlyph name="Gamma" xMin="150" yMin="0" xMax="1083" yMax="1430">
      <contour>
        <pt x="150" y="0" on="1"/>
        <pt x="150" y="1430" on="1"/>
        <pt x="1083" y="1430" on="1"/>
        <pt x="1083" y="1200" on="1"/>
        <pt x="415" y="1200" on="1"/>
        <pt x="415" y="0" on="1"/>
      </contour>
    </TTGlyph>
    <TTGlyph name="Gbreve" xMin="100" yMin="-10" xMax="1290" yMax="1810">
      <component glyphName="G" x="0" y="0" flags="0x200"/>
      <component glyphName="breve" x="410" y="380" flags="0x0"/>
    </TTGlyph>
    <TTGlyph name="Gcircumflex" xMin="100" yMin="-10" xMax="1290" yMax="1810">
      <component glyphName="G" x="0" y="0" flags="0x200"/>
      <component glyphName="circumflex" x="495" y="380" flags="0x0"/>
    </TTGlyph>
    <TTGlyph name="Gcommaaccent" xMin="100" yMin="-380" xMax="1290" yMax="1440">
      <component glyphName="G" x="0" y="0" flags="0x200"/>
      <component glyphName="commaccent" x="463" y="0" flags="0x0"/>
    </TTGlyph>
    <TTGlyph name="Gdotaccent" xMin="100" yMin="-10" xMax="1290" yMax="1810">
      <component glyphName="G" x="0" y="0" flags="0x200"/>
      <component glyphName="dotaccent" x="628" y="380" flags="0x0"/>
    </TTGlyph>
    <TTGlyph name="H" xMin="150" yMin="0" xMax="1385" yMax="1430">
      <contour>
        <pt x="150" y="0" on="1"/>
        <pt x="150" y="1430" on="1"/>
        <pt x="415" y="1430" on="1"/>
        <pt x="415" y="840" on="1"/>
        <pt x="1120" y="840" on="1"/>
        <pt x="1120" y="1430" on="1"/>
        <pt x="1385" y="1430" on="1"/>
        <pt x="1385" y="0" on="1"/>
        <pt x="1120" y="0" on="1"/>
        <pt x="1120" y="610" on="1"/>
        <pt x="415" y="610" on="1"/>
        <pt x="415" y="0" on="1"/>
      </contour>
    </TTGlyph>
    <TTGlyph name="Hbar" xMin="150" yMin="0" xMax="1385" yMax="1430">
      <contour>
        <pt x="1120" y="1260" on="1"/>
        <pt x="1120" y="1430" on="1"/>
        <pt x="1385" y="1430" on="1"/>
        <pt x="1385" y="0" on="1"/>
        <pt x="1120" y="0" on="1"/>
        <pt x="1120" y="610" on="1"/>
        <pt x="415" y="610" on="1"/>
        <pt x="415" y="0" on="1"/>
        <pt x="150" y="0" on="1"/>
        <pt x="150" y="1430" on="1"/>
        <pt x="415" y="1430" on="1"/>
        <pt x="415" y="1260" on="1"/>
      </contour>
      <contour>
        <pt x="415" y="1050" on="1"/>
        <pt x="415" y="840" on="1"/>
        <pt x="1120" y="840" on="1"/>
        <pt x="1120" y="1050" on="1"/>
      </contour>
    </TTGlyph>
    <TTGlyph name="Hcircumflex" xMin="150" yMin="0" xMax="1385" yMax="1810">
      <component glyphName="H" x="0" y="0" flags="0x200"/>
      <component glyphName="circumflex" x="418" y="380" flags="0x0"/>
    </TTGlyph>
    <TTGlyph name="I" xMin="150" yMin="0" xMax="415" yMax="1430">
      <contour>
        <pt x="415" y="1430" on="1"/>
        <pt x="415" y="0" on="1"/>
        <pt x="150" y="0" on="1"/>
        <pt x="150" y="1430" on="1"/>
      </contour>
    </TTGlyph>
    <TTGlyph name="IJ" xMin="150" yMin="0" xMax="1155" yMax="1430">
      <component glyphName="I" x="0" y="0" flags="0x0"/>
      <component glyphName="J" x="565" y="0" flags="0x0"/>
    </TTGlyph>
    <TTGlyph name="Iacute" xMin="128" yMin="0" xMax="591" yMax="1810">
      <component glyphName="I" x="0" y="0" flags="0x200"/>
      <component glyphName="acute" x="28" y="380" flags="0x0"/>
    </TTGlyph>
    <TTGlyph name="Ibreve" xMin="-12" yMin="0" xMax="578" yMax="1810">
      <component glyphName="I" x="1" y="0" flags="0x200"/>
      <component glyphName="breve" x="-112" y="380" flags="0x0"/>
    </TTGlyph>
    <TTGlyph name="Icircumflex" xMin="33" yMin="0" xMax="533" yMax="1810">
      <component glyphName="I" x="1" y="0" flags="0x200"/>
      <component glyphName="circumflex" x="-67" y="380" flags="0x0"/>
    </TTGlyph>
    <TTGlyph name="Idieresis" xMin="5" yMin="0" xMax="560" yMax="1810">
      <component glyphName="I" x="0" y="0" flags="0x200"/>
      <component glyphName="dieresis" x="-95" y="380" flags="0x0"/>
    </TTGlyph>
    <TTGlyph name="Idotaccent" xMin="150" yMin="0" xMax="415" yMax="1810">
      <component glyphName="I" x="0" y="0" flags="0x200"/>
      <component glyphName="dotaccent" x="65" y="380" flags="0x0"/>
    </TTGlyph>
    <TTGlyph name="Igrave" xMin="-26" yMin="0" xMax="437" yMax="1810">
      <component glyphName="I" x="0" y="0" flags="0x200"/>
      <component glyphName="grave" x="-126" y="380" flags="0x0"/>
    </TTGlyph>
    <TTGlyph name="Imacron" xMin="33" yMin="0" xMax="533" yMax="1810">
      <component glyphName="I" x="1" y="0" flags="0x200"/>
      <component glyphName="macron" x="-67" y="380" flags="0x0"/>
    </TTGlyph>
    <TTGlyph name="Iogonek" xMin="9" yMin="-426" xMax="419" yMax="1430">
      <contour>
        <pt x="150" y="0" on="1"/>
        <pt x="150" y="1430" on="1"/>
        <pt x="415" y="1430" on="1"/>
        <pt x="415" y="0" on="1"/>
        <pt x="197" y="-96" on="0"/>
        <pt x="197" y="-198" on="1"/>
        <pt x="197" y="-266" on="0"/>
        <pt x="282" y="-266" on="1"/>
        <pt x="367" y="-266" on="0"/>
        <pt x="419" y="-246" on="1"/>
        <pt x="419" y="-406" on="1"/>
        <pt x="358" y="-426" on="0"/>
        <pt x="270" y="-426" on="1"/>
        <pt x="9" y="-426" on="0"/>
        <pt x="9" y="-223" on="1"/>
        <pt x="9" y="-92" on="0"/>
      </contour>
    </TTGlyph>
    <TTGlyph name="Iota" xMin="150" yMin="0" xMax="415" yMax="1430">
      <component glyphName="I" x="0" y="0" flags="0x200"/>
    </TTGlyph>
    <TTGlyph name="Iotadieresis" xMin="5" yMin="0" xMax="560" yMax="1810">
      <component glyphName="Iota" x="0" y="0" flags="0x200"/>
      <component glyphName="dieresis" x="-95" y="380" flags="0x0"/>
    </TTGlyph>
    <TTGlyph name="Iotatonos" xMin="-50" yMin="0" xMax="728" yMax="1430">
      <contour>
        <pt x="94" y="1430" on="1"/>
        <pt x="413" y="1430" on="1"/>
        <pt x="174" y="1171" on="1"/>
        <pt x="-50" y="1171" on="1"/>
      </contour>
      <contour>
        <pt x="728" y="1430" on="1"/>
        <pt x="728" y="0" on="1"/>
        <pt x="463" y="0" on="1"/>
        <pt x="463" y="1430" on="1"/>
      </contour>
    </TTGlyph>
    <TTGlyph name="Itilde" xMin="33" yMin="0" xMax="533" yMax="1810">
      <component glyphName="I" x="1" y="0" flags="0x200"/>
      <component glyphName="tilde" x="-67" y="380" flags="0x0"/>
    </TTGlyph>
    <TTGlyph name="J" xMin="25" yMin="0" xMax="590" yMax="1430">
      <contour>
        <pt x="590" y="1430" on="1"/>
        <pt x="590" y="412" on="1"/>
        <pt x="590" y="0" on="0"/>
        <pt x="25" y="0" on="1"/>
        <pt x="25" y="230" on="1"/>
        <pt x="325" y="230" on="0"/>
        <pt x="325" y="412" on="1"/>
        <pt x="325" y="1430" on="1"/>
      </contour>
    </TTGlyph>
    <TTGlyph name="Jcircumflex" xMin="25" yMin="0" xMax="698" yMax="1810">
      <component glyphName="J" x="0" y="0" flags="0x200"/>
      <component glyphName="circumflex" x="98" y="380" flags="0x0"/>
    </TTGlyph>
    <TTGlyph name="K" xMin="150" yMin="0" xMax="1485" yMax="1430">
      <contour>
        <pt x="415" y="1430" on="1"/>
        <pt x="415" y="0" on="1"/>
        <pt x="150" y="0" on="1"/>
        <pt x="150" y="1430" on="1"/>
      </contour>
      <contour>
        <pt x="1421" y="1430" on="1"/>
        <pt x="811" y="763" on="1"/>
        <pt x="1485" y="0" on="1"/>
        <pt x="1118" y="0" on="1"/>
        <pt x="565" y="668" on="1"/>
        <pt x="565" y="840" on="1"/>
        <pt x="1097" y="1430" on="1"/>
      </contour>
    </TTGlyph>
    <TTGlyph name="Kappa" xMin="150" yMin="0" xMax="1485" yMax="1430">
      <component glyphName="K" x="0" y="0" flags="0x200"/>
    </TTGlyph>
    <TTGlyph name="Kcommaaccent" xMin="150" yMin="-380" xMax="1485" yMax="1430">
      <component glyphName="K" x="0" y="0" flags="0x200"/>
      <component glyphName="commaccent" x="485" y="0" flags="0x0"/>
    </TTGlyph>
    <TTGlyph name="L" xMin="150" yMin="0" xMax="983" yMax="1430">
      <contour>
        <pt x="415" y="1430" on="1"/>
        <pt x="415" y="230" on="1"/>
        <pt x="983" y="230" on="1"/>
        <pt x="983" y="0" on="1"/>
        <pt x="150" y="0" on="1"/>
        <pt x="150" y="1430" on="1"/>
      </contour>
    </TTGlyph>
    <TTGlyph name="Lacute" xMin="112" yMin="0" xMax="983" yMax="1810">
      <component glyphName="L" x="0" y="0" flags="0x200"/>
      <component glyphName="acute" x="12" y="380" flags="0x0"/>
    </TTGlyph>
    <TTGlyph name="Lambda" xMin="25" yMin="0" xMax="1537" yMax="1430">
      <contour>
        <pt x="768" y="1157" on="1"/>
        <pt x="297" y="0" on="1"/>
        <pt x="25" y="0" on="1"/>
        <pt x="632" y="1430" on="1"/>
        <pt x="917" y="1430" on="1"/>
        <pt x="1537" y="0" on="1"/>
        <pt x="1252" y="0" on="1"/>
      </contour>
    </TTGlyph>
    <TTGlyph name="Lcaron" xMin="150" yMin="0" xMax="985" yMax="1430">
      <contour>
        <pt x="415" y="1430" on="1"/>
        <pt x="415" y="230" on="1"/>
        <pt x="983" y="230" on="1"/>
        <pt x="983" y="0" on="1"/>
        <pt x="150" y="0" on="1"/>
        <pt x="150" y="1430" on="1"/>
      </contour>
      <contour>
        <pt x="985" y="1430" on="1"/>
        <pt x="835" y="995" on="1"/>
        <pt x="590" y="995" on="1"/>
        <pt x="740" y="1430" on="1"/>
      </contour>
    </TTGlyph>
    <TTGlyph name="Lcommaaccent" xMin="150" yMin="-380" xMax="983" yMax="1430">
      <component glyphName="L" x="0" y="0" flags="0x200"/>
      <component glyphName="commaccent" x="284" y="0" flags="0x0"/>
    </TTGlyph>
    <TTGlyph name="Ldot" xMin="150" yMin="0" xMax="983" yMax="1430">
      <component glyphName="L" x="0" y="0" flags="0x200"/>
      <component glyphName="periodcentered" x="558" y="190" flags="0x0"/>
    </TTGlyph>
    <TTGlyph name="Lslash" xMin="150" yMin="0" xMax="1133" yMax="1430">
      <contour>
        <pt x="300" y="512" on="1"/>
        <pt x="150" y="402" on="1"/>
        <pt x="150" y="632" on="1"/>
        <pt x="300" y="742" on="1"/>
        <pt x="300" y="1430" on="1"/>
        <pt x="565" y="1430" on="1"/>
        <pt x="565" y="937" on="1"/>
        <pt x="808" y="1116" on="1"/>
        <pt x="808" y="886" on="1"/>
        <pt x="565" y="707" on="1"/>
        <pt x="565" y="230" on="1"/>
        <pt x="1133" y="230" on="1"/>
        <pt x="1133" y="0" on="1"/>
        <pt x="300" y="0" on="1"/>
      </contour>
    </TTGlyph>
    <TTGlyph name="M" xMin="150" yMin="0" xMax="1650" yMax="1430">
      <contour>
        <pt x="150" y="0" on="1"/>
        <pt x="150" y="1430" on="1"/>
        <pt x="425" y="1430" on="1"/>
        <pt x="910" y="345" on="1"/>
        <pt x="1385" y="1430" on="1"/>
        <pt x="1650" y="1430" on="1"/>
        <pt x="1650" y="0" on="1"/>
        <pt x="1405" y="0" on="1"/>
        <pt x="1405" y="996" on="1"/>
        <pt x="1017" y="0" on="1"/>
        <pt x="791" y="0" on="1"/>
        <pt x="395" y="996" on="1"/>
        <pt x="395" y="0" on="1"/>
      </contour>
    </TTGlyph>
    <TTGlyph name="MT.sign" xMin="100" yMin="-46" xMax="1624" yMax="1476">
      <contour>
        <pt x="1181" y="332" on="1"/>
        <pt x="1181" y="434" on="1"/>
        <pt x="926" y="447" on="1"/>
        <pt x="926" y="987" on="1"/>
        <pt x="1053" y="987" on="1"/>
        <pt x="1104" y="587" on="1"/>
        <pt x="1219" y="587" on="1"/>
        <pt x="1181" y="1098" on="1"/>
        <pt x="942" y="1098" on="1"/>
        <pt x="862" y="1060" on="1"/>
        <pt x="783" y="1098" on="1"/>
        <pt x="543" y="1098" on="1"/>
        <pt x="505" y="587" on="1"/>
        <pt x="619" y="587" on="1"/>
        <pt x="670" y="987" on="1"/>
        <pt x="798" y="987" on="1"/>
        <pt x="798" y="447" on="1"/>
        <pt x="543" y="434" on="1"/>
        <pt x="543" y="332" on="1"/>
      </contour>
      <contour>
        <pt x="534" y="1330" on="1"/>
        <pt x="571" y="1419" on="1"/>
        <pt x="660" y="1382" on="1"/>
        <pt x="713" y="1462" on="1"/>
        <pt x="794" y="1409" on="1"/>
        <pt x="862" y="1476" on="1"/>
        <pt x="930" y="1409" on="1"/>
        <pt x="1011" y="1462" on="1"/>
        <pt x="1064" y="1382" on="1"/>
        <pt x="1153" y="1419" on="1"/>
        <pt x="1190" y="1330" on="1"/>
        <pt x="1284" y="1349" on="1"/>
        <pt x="1304" y="1253" on="1"/>
        <pt x="1401" y="1253" on="1"/>
        <pt x="1401" y="1157" on="1"/>
        <pt x="1495" y="1138" on="1"/>
        <pt x="1476" y="1044" on="1"/>
        <pt x="1565" y="1007" on="1"/>
        <pt x="1529" y="917" on="1"/>
        <pt x="1610" y="865" on="1"/>
        <pt x="1556" y="783" on="1"/>
        <pt x="1624" y="716" on="1"/>
        <pt x="1555" y="647" on="1"/>
        <pt x="1610" y="565" on="1"/>
        <pt x="1528" y="513" on="1"/>
        <pt x="1565" y="423" on="1"/>
        <pt x="1476" y="386" on="1"/>
        <pt x="1495" y="292" on="1"/>
        <pt x="1401" y="273" on="1"/>
        <pt x="1401" y="177" on="1"/>
        <pt x="1304" y="177" on="1"/>
        <pt x="1284" y="81" on="1"/>
        <pt x="1190" y="100" on="1"/>
        <pt x="1153" y="11" on="1"/>
        <pt x="1064" y="48" on="1"/>
        <pt x="1011" y="-32" on="1"/>
        <pt x="930" y="21" on="1"/>
        <pt x="862" y="-46" on="1"/>
        <pt x="794" y="21" on="1"/>
        <pt x="713" y="-32" on="1"/>
        <pt x="660" y="48" on="1"/>
        <pt x="571" y="11" on="1"/>
        <pt x="534" y="100" on="1"/>
        <pt x="439" y="81" on="1"/>
        <pt x="420" y="177" on="1"/>
        <pt x="323" y="177" on="1"/>
        <pt x="323" y="273" on="1"/>
        <pt x="228" y="292" on="1"/>
        <pt x="247" y="386" on="1"/>
        <pt x="157" y="425" on="1"/>
        <pt x="194" y="513" on="1"/>
        <pt x="114" y="566" on="1"/>
        <pt x="169" y="647" on="1"/>
        <pt x="100" y="716" on="1"/>
        <pt x="169" y="783" on="1"/>
        <pt x="114" y="865" on="1"/>
        <pt x="196" y="919" on="1"/>
        <pt x="159" y="1007" on="1"/>
        <pt x="248" y="1044" on="1"/>
        <pt x="229" y="1138" on="1"/>
        <pt x="323" y="1157" on="1"/>
        <pt x="323" y="1253" on="1"/>
        <pt x="420" y="1253" on="1"/>
        <pt x="439" y="1349" on="1"/>
      </contour>
      <contour>
        <pt x="862" y="1347" on="1"/>
        <pt x="600" y="1347" on="0"/>
        <pt x="230" y="977" on="0"/>
        <pt x="230" y="716" on="1"/>
        <pt x="230" y="453" on="0"/>
        <pt x="600" y="83" on="0"/>
        <pt x="862" y="83" on="1"/>
        <pt x="1124" y="83" on="0"/>
        <pt x="1494" y="453" on="0"/>
        <pt x="1494" y="716" on="1"/>
        <pt x="1494" y="977" on="0"/>
        <pt x="1124" y="1347" on="0"/>
      </contour>
      <contour>
        <pt x="1101" y="1293" on="0"/>
        <pt x="1439" y="954" on="0"/>
        <pt x="1439" y="716" on="1"/>
        <pt x="1439" y="476" on="0"/>
        <pt x="1101" y="137" on="0"/>
        <pt x="862" y="137" on="1"/>
        <pt x="623" y="137" on="0"/>
        <pt x="285" y="476" on="0"/>
        <pt x="285" y="716" on="1"/>
        <pt x="285" y="954" on="0"/>
        <pt x="623" y="1293" on="0"/>
        <pt x="862" y="1293" on="1"/>
      </contour>
    </TTGlyph>
    <TTGlyph name="Mu" xMin="150" yMin="0" xMax="1650" yMax="1430">
      <component glyphName="M" x="0" y="0" flags="0x200"/>
    </TTGlyph>
    <TTGlyph name="N" xMin="150" yMin="0" xMax="1425" yMax="1430">
      <contour>
        <pt x="150" y="0" on="1"/>
        <pt x="150" y="1430" on="1"/>
        <pt x="415" y="1430" on="1"/>
        <pt x="1170" y="388" on="1"/>
        <pt x="1170" y="1430" on="1"/>
        <pt x="1425" y="1430" on="1"/>
        <pt x="1425" y="0" on="1"/>
        <pt x="1160" y="0" on="1"/>
        <pt x="405" y="1064" on="1"/>
        <pt x="405" y="0" on="1"/>
      </contour>
    </TTGlyph>
    <TTGlyph name="Nacute" xMin="150" yMin="0" xMax="1425" yMax="1810">
      <component glyphName="N" x="0" y="0" flags="0x200"/>
      <component glyphName="acute" x="533" y="380" flags="0x0"/>
    </TTGlyph>
    <TTGlyph name="Ncaron" xMin="150" yMin="0" xMax="1425" yMax="1810">
      <component glyphName="N" x="0" y="0" flags="0x200"/>
      <component glyphName="caron" x="438" y="380" flags="0x0"/>
    </TTGlyph>
    <TTGlyph name="Ncommaaccent" xMin="150" yMin="-380" xMax="1425" yMax="1430">
      <component glyphName="N" x="0" y="0" flags="0x200"/>
      <component glyphName="commaccent" x="555" y="0" flags="0x0"/>
    </TTGlyph>
    <TTGlyph name="Ntilde" xMin="150" yMin="0" xMax="1425" yMax="1810">
      <component glyphName="N" x="0" y="0" flags="0x200"/>
      <component glyphName="tilde" x="458" y="380" flags="0x0"/>
    </TTGlyph>
    <TTGlyph name="Nu" xMin="150" yMin="0" xMax="1425" yMax="1430">
      <component glyphName="N" x="0" y="0" flags="0x200"/>
    </TTGlyph>
    <TTGlyph name="O" xMin="100" yMin="-10" xMax="1525" yMax="1440">
      <contour>
        <pt x="375" y="220" on="0"/>
        <pt x="818" y="220" on="1"/>
        <pt x="1250" y="220" on="0"/>
        <pt x="1250" y="719" on="1"/>
        <pt x="1250" y="1210" on="0"/>
        <pt x="818" y="1210" on="1"/>
        <pt x="375" y="1210" on="0"/>
        <pt x="375" y="719" on="1"/>
      </contour>
      <contour>
        <pt x="100" y="713" on="1"/>
        <pt x="100" y="1440" on="0"/>
        <pt x="818" y="1440" on="1"/>
        <pt x="1525" y="1440" on="0"/>
        <pt x="1525" y="713" on="1"/>
        <pt x="1525" y="-10" on="0"/>
        <pt x="818" y="-10" on="1"/>
        <pt x="132" y="-10" on="0"/>
      </contour>
    </TTGlyph>
    <TTGlyph name="OE" xMin="100" yMin="0" xMax="2090" yMax="1430">
      <contour>
        <pt x="375" y="230" on="0"/>
        <pt x="818" y="230" on="1"/>
        <pt x="1240" y="230" on="0"/>
        <pt x="1240" y="719" on="1"/>
        <pt x="1240" y="1200" on="0"/>
        <pt x="818" y="1200" on="1"/>
        <pt x="375" y="1200" on="0"/>
        <pt x="375" y="719" on="1"/>
      </contour>
      <contour>
        <pt x="100" y="713" on="1"/>
        <pt x="100" y="1430" on="0"/>
        <pt x="818" y="1430" on="1"/>
        <pt x="2075" y="1430" on="1"/>
        <pt x="2075" y="1200" on="1"/>
        <pt x="1375" y="1200" on="1"/>
        <pt x="1485" y="1088" on="0"/>
        <pt x="1515" y="840" on="1"/>
        <pt x="2040" y="840" on="1"/>
        <pt x="2040" y="610" on="1"/>
        <pt x="1515" y="610" on="1"/>
        <pt x="1494" y="368" on="0"/>
        <pt x="1384" y="230" on="1"/>
        <pt x="2090" y="230" on="1"/>
        <pt x="2090" y="0" on="1"/>
        <pt x="818" y="0" on="1"/>
        <pt x="132" y="0" on="0"/>
      </contour>
    </TTGlyph>
    <TTGlyph name="Oacute" xMin="100" yMin="-10" xMax="1525" yMax="1810">
      <component glyphName="O" x="0" y="0" flags="0x200"/>
      <component glyphName="acute" x="558" y="380" flags="0x0"/>
    </TTGlyph>
    <TTGlyph name="Obreve" xMin="100" yMin="-10" xMax="1525" yMax="1810">
      <component glyphName="O" x="0" y="0" flags="0x200"/>
      <component glyphName="breve" x="418" y="380" flags="0x0"/>
    </TTGlyph>
    <TTGlyph name="Ocircumflex" xMin="100" yMin="-10" xMax="1525" yMax="1810">
      <component glyphName="O" x="0" y="0" flags="0x200"/>
      <component glyphName="circumflex" x="463" y="380" flags="0x0"/>
    </TTGlyph>
    <TTGlyph name="Odieresis" xMin="100" yMin="-10" xMax="1525" yMax="1810">
      <component glyphName="O" x="0" y="0" flags="0x200"/>
      <component glyphName="dieresis" x="435" y="380" flags="0x0"/>
    </TTGlyph>
    <TTGlyph name="Ograve" xMin="100" yMin="-10" xMax="1525" yMax="1810">
      <component glyphName="O" x="0" y="0" flags="0x200"/>
      <component glyphName="grave" x="404" y="380" flags="0x0"/>
    </TTGlyph>
    <TTGlyph name="Ohungarumlaut" xMin="100" yMin="-10" xMax="1525" yMax="1810">
      <component glyphName="O" x="0" y="0" flags="0x200"/>
      <component glyphName="hungarumlaut" x="328" y="380" flags="0x0"/>
    </TTGlyph>
    <TTGlyph name="Omacron" xMin="100" yMin="-10" xMax="1525" yMax="1810">
      <component glyphName="O" x="0" y="0" flags="0x200"/>
      <component glyphName="macron" x="463" y="380" flags="0x0"/>
    </TTGlyph>
    <TTGlyph name="Omega" xMin="120" yMin="0" xMax="1490" yMax="1450">
      <contour>
        <pt x="135" y="0" on="1"/>
        <pt x="135" y="230" on="1"/>
        <pt x="400" y="230" on="1"/>
        <pt x="120" y="420" on="0"/>
        <pt x="120" y="800" on="1"/>
        <pt x="120" y="1450" on="0"/>
        <pt x="805" y="1450" on="1"/>
        <pt x="1490" y="1450" on="0"/>
        <pt x="1490" y="800" on="1"/>
        <pt x="1490" y="420" on="0"/>
        <pt x="1210" y="230" on="1"/>
        <pt x="1475" y="230" on="1"/>
        <pt x="1475" y="0" on="1"/>
        <pt x="925" y="0" on="1"/>
        <pt x="925" y="230" on="1"/>
        <pt x="1225" y="420" on="0"/>
        <pt x="1225" y="800" on="1"/>
        <pt x="1225" y="1220" on="0"/>
        <pt x="805" y="1220" on="1"/>
        <pt x="385" y="1220" on="0"/>
        <pt x="385" y="800" on="1"/>
        <pt x="385" y="420" on="0"/>
        <pt x="685" y="230" on="1"/>
        <pt x="685" y="0" on="1"/>
      </contour>
    </TTGlyph>
    <TTGlyph name="Omegatonos" xMin="-50" yMin="0" xMax="1653" yMax="1450">
      <contour>
        <pt x="94" y="1430" on="1"/>
        <pt x="413" y="1430" on="1"/>
        <pt x="174" y="1171" on="1"/>
        <pt x="-50" y="1171" on="1"/>
      </contour>
      <contour>
        <pt x="298" y="0" on="1"/>
        <pt x="298" y="230" on="1"/>
        <pt x="563" y="230" on="1"/>
        <pt x="283" y="420" on="0"/>
        <pt x="283" y="800" on="1"/>
        <pt x="283" y="1450" on="0"/>
        <pt x="968" y="1450" on="1"/>
        <pt x="1653" y="1450" on="0"/>
        <pt x="1653" y="800" on="1"/>
        <pt x="1653" y="420" on="0"/>
        <pt x="1373" y="230" on="1"/>
        <pt x="1638" y="230" on="1"/>
        <pt x="1638" y="0" on="1"/>
        <pt x="1088" y="0" on="1"/>
        <pt x="1088" y="230" on="1"/>
        <pt x="1388" y="420" on="0"/>
        <pt x="1388" y="800" on="1"/>
        <pt x="1388" y="1220" on="0"/>
        <pt x="968" y="1220" on="1"/>
        <pt x="548" y="1220" on="0"/>
        <pt x="548" y="800" on="1"/>
        <pt x="548" y="420" on="0"/>
        <pt x="848" y="230" on="1"/>
        <pt x="848" y="0" on="1"/>
      </contour>
    </TTGlyph>
    <TTGlyph name="Omicron" xMin="100" yMin="-10" xMax="1525" yMax="1440">
      <component glyphName="O" x="0" y="0" flags="0x200"/>
    </TTGlyph>
    <TTGlyph name="Omicrontonos" xMin="-50" yMin="-10" xMax="1688" yMax="1440">
      <contour>
        <pt x="94" y="1430" on="1"/>
        <pt x="413" y="1430" on="1"/>
        <pt x="174" y="1171" on="1"/>
        <pt x="-50" y="1171" on="1"/>
      </contour>
      <contour>
        <pt x="538" y="220" on="0"/>
        <pt x="981" y="220" on="1"/>
        <pt x="1413" y="220" on="0"/>
        <pt x="1413" y="719" on="1"/>
        <pt x="1413" y="1210" on="0"/>
        <pt x="981" y="1210" on="1"/>
        <pt x="538" y="1210" on="0"/>
        <pt x="538" y="719" on="1"/>
      </contour>
      <contour>
        <pt x="263" y="713" on="1"/>
        <pt x="263" y="1440" on="0"/>
        <pt x="981" y="1440" on="1"/>
        <pt x="1688" y="1440" on="0"/>
        <pt x="1688" y="713" on="1"/>
        <pt x="1688" y="-10" on="0"/>
        <pt x="981" y="-10" on="1"/>
        <pt x="295" y="-10" on="0"/>
      </contour>
    </TTGlyph>
    <TTGlyph name="Oslash" xMin="100" yMin="-10" xMax="1525" yMax="1440">
      <contour>
        <pt x="595" y="264" on="1"/>
        <pt x="687" y="220" on="0"/>
        <pt x="818" y="220" on="1"/>
        <pt x="1250" y="220" on="0"/>
        <pt x="1250" y="719" on="1"/>
        <pt x="1250" y="917" on="0"/>
        <pt x="1180" y="1035" on="1"/>
      </contour>
      <contour>
        <pt x="444" y="404" on="1"/>
        <pt x="1025" y="1172" on="1"/>
        <pt x="939" y="1210" on="0"/>
        <pt x="818" y="1210" on="1"/>
        <pt x="375" y="1210" on="0"/>
        <pt x="375" y="719" on="1"/>
        <pt x="375" y="523" on="0"/>
      </contour>
      <contour>
        <pt x="444" y="65" on="1"/>
        <pt x="395" y="0" on="1"/>
        <pt x="138" y="0" on="1"/>
        <pt x="280" y="187" on="1"/>
        <pt x="115" y="368" on="0"/>
        <pt x="100" y="713" on="1"/>
        <pt x="100" y="1440" on="0"/>
        <pt x="818" y="1440" on="1"/>
        <pt x="1030" y="1440" on="0"/>
        <pt x="1179" y="1374" on="1"/>
        <pt x="1221" y="1430" on="1"/>
        <pt x="1479" y="1430" on="1"/>
        <pt x="1349" y="1258" on="1"/>
        <pt x="1525" y="1076" on="0"/>
        <pt x="1525" y="713" on="1"/>
        <pt x="1525" y="-10" on="0"/>
        <pt x="818" y="-10" on="1"/>
        <pt x="597" y="-10" on="0"/>
      </contour>
    </TTGlyph>
    <TTGlyph name="Otilde" xMin="100" yMin="-10" xMax="1525" yMax="1810">
      <component glyphName="O" x="0" y="0" flags="0x200"/>
      <component glyphName="tilde" x="463" y="380" flags="0x0"/>
    </TTGlyph>
    <TTGlyph name="P" xMin="150" yMin="0" xMax="1228" yMax="1430">
      <contour>
        <pt x="150" y="0" on="1"/>
        <pt x="150" y="1430" on="1"/>
        <pt x="790" y="1430" on="1"/>
        <pt x="1228" y="1430" on="0"/>
        <pt x="1228" y="1027" on="1"/>
        <pt x="1228" y="590" on="0"/>
        <pt x="629" y="498" on="1"/>
        <pt x="591" y="734" on="1"/>
        <pt x="951" y="799" on="0"/>
        <pt x="951" y="1019" on="1"/>
        <pt x="951" y="1197" on="0"/>
        <pt x="773" y="1197" on="1"/>
        <pt x="415" y="1197" on="1"/>
        <pt x="415" y="0" on="1"/>
      </contour>
    </TTGlyph>
    <TTGlyph name="Phi" xMin="100" yMin="0" xMax="1624" yMax="1430">
      <contour>
        <pt x="730" y="113" on="1"/>
        <pt x="100" y="150" on="0"/>
        <pt x="100" y="713" on="1"/>
        <pt x="100" y="1280" on="0"/>
        <pt x="730" y="1317" on="1"/>
        <pt x="730" y="1430" on="1"/>
        <pt x="994" y="1430" on="1"/>
        <pt x="994" y="1318" on="1"/>
        <pt x="1624" y="1284" on="0"/>
        <pt x="1624" y="713" on="1"/>
        <pt x="1624" y="145" on="0"/>
        <pt x="994" y="112" on="1"/>
        <pt x="994" y="0" on="1"/>
        <pt x="730" y="0" on="1"/>
      </contour>
      <contour>
        <pt x="730" y="344" on="1"/>
        <pt x="730" y="1086" on="1"/>
        <pt x="374" y="1050" on="0"/>
        <pt x="374" y="719" on="1"/>
        <pt x="374" y="381" on="0"/>
      </contour>
      <contour>
        <pt x="994" y="1087" on="1"/>
        <pt x="994" y="343" on="1"/>
        <pt x="1350" y="377" on="0"/>
        <pt x="1350" y="719" on="1"/>
        <pt x="1350" y="1054" on="0"/>
      </contour>
    </TTGlyph>
    <TTGlyph name="Pi" xMin="150" yMin="0" xMax="1415" yMax="1430">
      <contour>
        <pt x="150" y="0" on="1"/>
        <pt x="150" y="1430" on="1"/>
        <pt x="1415" y="1430" on="1"/>
        <pt x="1415" y="0" on="1"/>
        <pt x="1150" y="0" on="1"/>
        <pt x="1150" y="1200" on="1"/>
        <pt x="415" y="1200" on="1"/>
        <pt x="415" y="0" on="1"/>
      </contour>
    </TTGlyph>
    <TTGlyph name="Psi" xMin="100" yMin="0" xMax="1550" yMax="1430">
      <contour>
        <pt x="693" y="619" on="1"/>
        <pt x="693" y="1430" on="1"/>
        <pt x="957" y="1430" on="1"/>
        <pt x="957" y="619" on="1"/>
        <pt x="1285" y="669" on="0"/>
        <pt x="1285" y="988" on="1"/>
        <pt x="1285" y="1430" on="1"/>
        <pt x="1550" y="1430" on="1"/>
        <pt x="1550" y="988" on="1"/>
        <pt x="1550" y="438" on="0"/>
        <pt x="957" y="386" on="1"/>
        <pt x="957" y="0" on="1"/>
        <pt x="693" y="0" on="1"/>
        <pt x="693" y="386" on="1"/>
        <pt x="100" y="438" on="0"/>
        <pt x="100" y="988" on="1"/>
        <pt x="100" y="1430" on="1"/>
        <pt x="365" y="1430" on="1"/>
        <pt x="365" y="988" on="1"/>
        <pt x="365" y="669" on="0"/>
      </contour>
    </TTGlyph>
    <TTGlyph name="Q" xMin="100" yMin="-422" xMax="1525" yMax="1440">
      <contour>
        <pt x="375" y="220" on="0"/>
        <pt x="818" y="220" on="1"/>
        <pt x="1250" y="220" on="0"/>
        <pt x="1250" y="719" on="1"/>
        <pt x="1250" y="1210" on="0"/>
        <pt x="818" y="1210" on="1"/>
        <pt x="375" y="1210" on="0"/>
        <pt x="375" y="719" on="1"/>
      </contour>
      <contour>
        <pt x="100" y="713" on="1"/>
        <pt x="100" y="1440" on="0"/>
        <pt x="818" y="1440" on="1"/>
        <pt x="1525" y="1440" on="0"/>
        <pt x="1525" y="713" on="1"/>
        <pt x="1525" y="115" on="0"/>
        <pt x="1080" y="7" on="1"/>
        <pt x="1312" y="-263" on="1"/>
        <pt x="1103" y="-422" on="1"/>
        <pt x="778" y="-10" on="1"/>
        <pt x="132" y="-10" on="0"/>
      </contour>
    </TTGlyph>
    <TTGlyph name="R" xMin="150" yMin="0" xMax="1350" yMax="1430">
      <contour>
        <pt x="150" y="2" on="1"/>
        <pt x="150" y="1430" on="1"/>
        <pt x="800" y="1430" on="1"/>
        <pt x="1238" y="1430" on="0"/>
        <pt x="1238" y="1047" on="1"/>
        <pt x="1238" y="788" on="0"/>
        <pt x="897" y="618" on="1"/>
        <pt x="1350" y="0" on="1"/>
        <pt x="1016" y="0" on="1"/>
        <pt x="581" y="623" on="1"/>
        <pt x="581" y="744" on="1"/>
        <pt x="961" y="809" on="0"/>
        <pt x="961" y="1039" on="1"/>
        <pt x="961" y="1197" on="0"/>
        <pt x="783" y="1197" on="1"/>
        <pt x="420" y="1197" on="1"/>
        <pt x="420" y="2" on="1"/>
      </contour>
    </TTGlyph>
    <TTGlyph name="Racute" xMin="150" yMin="0" xMax="1350" yMax="1810">
      <component glyphName="R" x="0" y="0" flags="0x200"/>
      <component glyphName="acute" x="396" y="380" flags="0x0"/>
    </TTGlyph>
    <TTGlyph name="Rcaron" xMin="150" yMin="0" xMax="1350" yMax="1810">
      <component glyphName="R" x="0" y="0" flags="0x200"/>
      <component glyphName="caron" x="280" y="380" flags="0x0"/>
    </TTGlyph>
    <TTGlyph name="Rcommaaccent" xMin="150" yMin="-380" xMax="1350" yMax="1430">
      <component glyphName="R" x="0" y="0" flags="0x200"/>
      <component glyphName="commaccent" x="418" y="0" flags="0x0"/>
    </TTGlyph>
    <TTGlyph name="Rho" xMin="150" yMin="0" xMax="1228" yMax="1430">
      <component glyphName="P" x="0" y="0" flags="0x200"/>
    </TTGlyph>
    <TTGlyph name="S" xMin="75" yMin="-10" xMax="1205" yMax="1440">
      <contour>
        <pt x="125" y="60" on="1"/>
        <pt x="125" y="300" on="1"/>
        <pt x="340" y="220" on="0"/>
        <pt x="611" y="220" on="1"/>
        <pt x="940" y="220" on="0"/>
        <pt x="940" y="440" on="1"/>
        <pt x="940" y="600" on="0"/>
        <pt x="738" y="600" on="1"/>
        <pt x="514" y="600" on="1"/>
        <pt x="75" y="600" on="0"/>
        <pt x="75" y="1000" on="1"/>
        <pt x="75" y="1440" on="0"/>
        <pt x="700" y="1440" on="1"/>
        <pt x="940" y="1440" on="0"/>
        <pt x="1155" y="1370" on="1"/>
        <pt x="1155" y="1130" on="1"/>
        <pt x="940" y="1210" on="0"/>
        <pt x="700" y="1210" on="1"/>
        <pt x="340" y="1210" on="0"/>
        <pt x="340" y="1000" on="1"/>
        <pt x="340" y="840" on="0"/>
        <pt x="514" y="840" on="1"/>
        <pt x="738" y="840" on="1"/>
        <pt x="1205" y="840" on="0"/>
        <pt x="1205" y="440" on="1"/>
        <pt x="1205" y="-10" on="0"/>
        <pt x="611" y="-10" on="1"/>
        <pt x="340" y="-10" on="0"/>
      </contour>
    </TTGlyph>
    <TTGlyph name="Sacute" xMin="75" yMin="-10" xMax="1205" yMax="1810">
      <component glyphName="S" x="0" y="0" flags="0x200"/>
      <component glyphName="acute" x="386" y="380" flags="0x0"/>
    </TTGlyph>
    <TTGlyph name="Scaron" xMin="75" yMin="-10" xMax="1205" yMax="1810">
      <component glyphName="S" x="0" y="0" flags="0x200"/>
      <component glyphName="caron" x="290" y="380" flags="0x0"/>
    </TTGlyph>
    <TTGlyph name="Scedilla" xMin="75" yMin="-422" xMax="1205" yMax="1440">
      <contour>
        <pt x="526" y="-8" on="1"/>
        <pt x="306" y="1" on="0"/>
        <pt x="125" y="60" on="1"/>
        <pt x="125" y="300" on="1"/>
        <pt x="340" y="220" on="0"/>
        <pt x="611" y="220" on="1"/>
        <pt x="940" y="220" on="0"/>
        <pt x="940" y="440" on="1"/>
        <pt x="940" y="600" on="0"/>
        <pt x="738" y="600" on="1"/>
        <pt x="514" y="600" on="1"/>
        <pt x="75" y="600" on="0"/>
        <pt x="75" y="1000" on="1"/>
        <pt x="75" y="1440" on="0"/>
        <pt x="700" y="1440" on="1"/>
        <pt x="940" y="1440" on="0"/>
        <pt x="1155" y="1370" on="1"/>
        <pt x="1155" y="1130" on="1"/>
        <pt x="940" y="1210" on="0"/>
        <pt x="700" y="1210" on="1"/>
        <pt x="340" y="1210" on="0"/>
        <pt x="340" y="1000" on="1"/>
        <pt x="340" y="840" on="0"/>
        <pt x="514" y="840" on="1"/>
        <pt x="738" y="840" on="1"/>
        <pt x="1205" y="840" on="0"/>
        <pt x="1205" y="440" on="1"/>
        <pt x="1205" y="20" on="0"/>
        <pt x="687" y="-8" on="1"/>
        <pt x="650" y="-77" on="1"/>
        <pt x="864" y="-77" on="0"/>
        <pt x="864" y="-239" on="1"/>
        <pt x="864" y="-422" on="0"/>
        <pt x="593" y="-422" on="1"/>
        <pt x="485" y="-422" on="0"/>
        <pt x="377" y="-372" on="1"/>
        <pt x="377" y="-244" on="1"/>
        <pt x="485" y="-294" on="0"/>
        <pt x="593" y="-294" on="1"/>
        <pt x="701" y="-294" on="0"/>
        <pt x="701" y="-239" on="1"/>
        <pt x="701" y="-195" on="0"/>
        <pt x="618" y="-195" on="1"/>
        <pt x="435" y="-195" on="1"/>
      </contour>
    </TTGlyph>
    <TTGlyph name="Scircumflex" xMin="75" yMin="-10" xMax="1205" yMax="1810">
      <component glyphName="S" x="0" y="0" flags="0x200"/>
      <component glyphName="circumflex" x="290" y="380" flags="0x0"/>
    </TTGlyph>
    <TTGlyph name="Scommaaccent" xMin="75" yMin="-380" xMax="1205" yMax="1440">
      <component glyphName="S" x="0" y="0" flags="0x200"/>
      <component glyphName="commaccent" x="408" y="0" flags="0x0"/>
    </TTGlyph>
    <TTGlyph name="Sigma" xMin="100" yMin="0" xMax="1100" yMax="1430">
      <contour>
        <pt x="100" y="1430" on="1"/>
        <pt x="1100" y="1430" on="1"/>
        <pt x="1100" y="1200" on="1"/>
        <pt x="400" y="1200" on="1"/>
        <pt x="820" y="750" on="1"/>
        <pt x="400" y="230" on="1"/>
        <pt x="1100" y="230" on="1"/>
        <pt x="1100" y="0" on="1"/>
        <pt x="100" y="0" on="1"/>
        <pt x="100" y="230" on="1"/>
        <pt x="515" y="750" on="1"/>
        <pt x="100" y="1200" on="1"/>
      </contour>
    </TTGlyph>
    <TTGlyph name="T" xMin="0" yMin="0" xMax="1085" yMax="1430">
      <contour>
        <pt x="1085" y="1430" on="1"/>
        <pt x="1085" y="1200" on="1"/>
        <pt x="675" y="1200" on="1"/>
        <pt x="675" y="0" on="1"/>
        <pt x="410" y="0" on="1"/>
        <pt x="410" y="1200" on="1"/>
        <pt x="0" y="1200" on="1"/>
        <pt x="0" y="1430" on="1"/>
      </contour>
    </TTGlyph>
    <TTGlyph name="Tau" xMin="0" yMin="0" xMax="1085" yMax="1430">
      <component glyphName="T" x="0" y="0" flags="0x200"/>
    </TTGlyph>
    <TTGlyph name="Tbar" xMin="0" yMin="0" xMax="1085" yMax="1430">
      <contour>
        <pt x="410" y="820" on="1"/>
        <pt x="410" y="1200" on="1"/>
        <pt x="0" y="1200" on="1"/>
        <pt x="0" y="1430" on="1"/>
        <pt x="1085" y="1430" on="1"/>
        <pt x="1085" y="1200" on="1"/>
        <pt x="675" y="1200" on="1"/>
        <pt x="675" y="820" on="1"/>
        <pt x="1085" y="820" on="1"/>
        <pt x="1085" y="610" on="1"/>
        <pt x="675" y="610" on="1"/>
        <pt x="675" y="0" on="1"/>
        <pt x="410" y="0" on="1"/>
        <pt x="410" y="610" on="1"/>
        <pt x="0" y="610" on="1"/>
        <pt x="0" y="820" on="1"/>
      </contour>
    </TTGlyph>
    <TTGlyph name="Tcaron" xMin="0" yMin="0" xMax="1085" yMax="1810">
      <component glyphName="T" x="0" y="0" flags="0x200"/>
      <component glyphName="caron" x="193" y="380" flags="0x0"/>
    </TTGlyph>
    <TTGlyph name="Tcommaaccent" xMin="0" yMin="-380" xMax="1085" yMax="1430">
      <component glyphName="T" x="0" y="0" flags="0x0"/>
      <component glyphName="commaccent" x="227" y="0" flags="0x0"/>
    </TTGlyph>
    <TTGlyph name="Theta" xMin="120" yMin="-10" xMax="1545" yMax="1440">
      <contour>
        <pt x="395" y="220" on="0"/>
        <pt x="838" y="220" on="1"/>
        <pt x="1270" y="220" on="0"/>
        <pt x="1270" y="719" on="1"/>
        <pt x="1270" y="1210" on="0"/>
        <pt x="838" y="1210" on="1"/>
        <pt x="395" y="1210" on="0"/>
        <pt x="395" y="719" on="1"/>
      </contour>
      <contour>
        <pt x="120" y="713" on="1"/>
        <pt x="120" y="1440" on="0"/>
        <pt x="838" y="1440" on="1"/>
        <pt x="1545" y="1440" on="0"/>
        <pt x="1545" y="713" on="1"/>
        <pt x="1545" y="-10" on="0"/>
        <pt x="838" y="-10" on="1"/>
        <pt x="120" y="-10" on="0"/>
      </contour>
      <contour>
        <pt x="523" y="853" on="1"/>
        <pt x="1138" y="853" on="1"/>
        <pt x="1138" y="623" on="1"/>
        <pt x="523" y="623" on="1"/>
      </contour>
    </TTGlyph>
    <TTGlyph name="Thorn" xMin="150" yMin="0" xMax="1228" yMax="1430">
      <contour>
        <pt x="150" y="0" on="1"/>
        <pt x="150" y="1430" on="1"/>
        <pt x="424" y="1430" on="1"/>
        <pt x="424" y="1122" on="1"/>
        <pt x="820" y="1122" on="1"/>
        <pt x="1228" y="1122" on="0"/>
        <pt x="1228" y="759" on="1"/>
        <pt x="1228" y="332" on="0"/>
        <pt x="639" y="240" on="1"/>
        <pt x="601" y="476" on="1"/>
        <pt x="951" y="541" on="0"/>
        <pt x="951" y="751" on="1"/>
        <pt x="951" y="889" on="0"/>
        <pt x="803" y="889" on="1"/>
        <pt x="415" y="889" on="1"/>
        <pt x="415" y="0" on="1"/>
      </contour>
    </TTGlyph>
    <TTGlyph name="U" xMin="150" yMin="-10" xMax="1380" yMax="1430">
      <contour>
        <pt x="150" y="562" on="1"/>
        <pt x="150" y="1430" on="1"/>
        <pt x="415" y="1430" on="1"/>
        <pt x="415" y="562" on="1"/>
        <pt x="415" y="220" on="0"/>
        <pt x="765" y="220" on="1"/>
        <pt x="1115" y="220" on="0"/>
        <pt x="1115" y="562" on="1"/>
        <pt x="1115" y="1430" on="1"/>
        <pt x="1380" y="1430" on="1"/>
        <pt x="1380" y="562" on="1"/>
        <pt x="1380" y="-10" on="0"/>
        <pt x="765" y="-10" on="1"/>
        <pt x="150" y="-10" on="0"/>
      </contour>
    </TTGlyph>
    <TTGlyph name="Uacute" xMin="150" yMin="-10" xMax="1380" yMax="1810">
      <component glyphName="U" x="0" y="0" flags="0x200"/>
      <component glyphName="acute" x="511" y="380" flags="0x0"/>
    </TTGlyph>
    <TTGlyph name="Ubreve" xMin="150" yMin="-10" xMax="1380" yMax="1810">
      <component glyphName="U" x="0" y="0" flags="0x200"/>
      <component glyphName="breve" x="370" y="380" flags="0x0"/>
    </TTGlyph>
    <TTGlyph name="Ucircumflex" xMin="150" yMin="-10" xMax="1380" yMax="1810">
      <component glyphName="U" x="0" y="0" flags="0x200"/>
      <component glyphName="circumflex" x="415" y="380" flags="0x0"/>
    </TTGlyph>
    <TTGlyph name="Udieresis" xMin="150" yMin="-10" xMax="1380" yMax="1810">
      <component glyphName="U" x="0" y="0" flags="0x200"/>
      <component glyphName="dieresis" x="388" y="380" flags="0x0"/>
    </TTGlyph>
    <TTGlyph name="Ugrave" xMin="150" yMin="-10" xMax="1380" yMax="1810">
      <component glyphName="U" x="0" y="0" flags="0x200"/>
      <component glyphName="grave" x="356" y="380" flags="0x0"/>
    </TTGlyph>
    <TTGlyph name="Uhungarumlaut" xMin="150" yMin="-10" xMax="1380" yMax="1810">
      <component glyphName="U" x="0" y="0" flags="0x200"/>
      <component glyphName="hungarumlaut" x="281" y="380" flags="0x0"/>
    </TTGlyph>
    <TTGlyph name="Umacron" xMin="150" yMin="-10" xMax="1380" yMax="1810">
      <component glyphName="U" x="0" y="0" flags="0x200"/>
      <component glyphName="macron" x="415" y="380" flags="0x0"/>
    </TTGlyph>
    <TTGlyph name="Uogonek" xMin="150" yMin="-426" xMax="1380" yMax="1430">
      <contour>
        <pt x="657" y="-5" on="1"/>
        <pt x="150" y="43" on="0"/>
        <pt x="150" y="562" on="1"/>
        <pt x="150" y="1430" on="1"/>
        <pt x="415" y="1430" on="1"/>
        <pt x="415" y="562" on="1"/>
        <pt x="415" y="220" on="0"/>
        <pt x="765" y="220" on="1"/>
        <pt x="1115" y="220" on="0"/>
        <pt x="1115" y="562" on="1"/>
        <pt x="1115" y="1430" on="1"/>
        <pt x="1380" y="1430" on="1"/>
        <pt x="1380" y="562" on="1"/>
        <pt x="1380" y="61" on="0"/>
        <pt x="907" y="-1" on="1"/>
        <pt x="712" y="-101" on="0"/>
        <pt x="712" y="-198" on="1"/>
        <pt x="712" y="-266" on="0"/>
        <pt x="797" y="-266" on="1"/>
        <pt x="882" y="-266" on="0"/>
        <pt x="934" y="-246" on="1"/>
        <pt x="934" y="-406" on="1"/>
        <pt x="873" y="-426" on="0"/>
        <pt x="785" y="-426" on="1"/>
        <pt x="524" y="-426" on="0"/>
        <pt x="524" y="-223" on="1"/>
        <pt x="524" y="-96" on="0"/>
      </contour>
    </TTGlyph>
    <TTGlyph name="Upsilon" xMin="25" yMin="0" xMax="1365" yMax="1430">
      <component glyphName="Y" x="0" y="0" flags="0x200"/>
    </TTGlyph>
    <TTGlyph name="Upsilondieresis" xMin="25" yMin="0" xMax="1365" yMax="1810">
      <component glyphName="Upsilon" x="0" y="0" flags="0x200"/>
      <component glyphName="dieresis" x="318" y="380" flags="0x0"/>
    </TTGlyph>
    <TTGlyph name="Upsilontonos" xMin="-50" yMin="0" xMax="1778" yMax="1430">
      <contour>
        <pt x="94" y="1430" on="1"/>
        <pt x="413" y="1430" on="1"/>
        <pt x="174" y="1171" on="1"/>
        <pt x="-50" y="1171" on="1"/>
      </contour>
      <contour>
        <pt x="438" y="1430" on="1"/>
        <pt x="723" y="1430" on="1"/>
        <pt x="1125" y="741" on="1"/>
        <pt x="1503" y="1430" on="1"/>
        <pt x="1778" y="1430" on="1"/>
        <pt x="1252" y="500" on="1"/>
        <pt x="1252" y="0" on="1"/>
        <pt x="987" y="0" on="1"/>
        <pt x="987" y="500" on="1"/>
      </contour>
    </TTGlyph>
    <TTGlyph name="Uring" xMin="150" yMin="-10" xMax="1380" yMax="1847">
      <component glyphName="U" x="0" y="0" flags="0x200"/>
      <component glyphName="ring" x="430" y="276" flags="0x0"/>
    </TTGlyph>
    <TTGlyph name="Utilde" xMin="150" yMin="-10" xMax="1380" yMax="1810">
      <component glyphName="U" x="0" y="0" flags="0x200"/>
      <component glyphName="tilde" x="415" y="380" flags="0x0"/>
    </TTGlyph>
    <TTGlyph name="V" xMin="0" yMin="0" xMax="1512" yMax="1430">
      <contour>
        <pt x="1512" y="1430" on="1"/>
        <pt x="885" y="0" on="1"/>
        <pt x="600" y="0" on="1"/>
        <pt x="0" y="1430" on="1"/>
        <pt x="315" y="1430" on="1"/>
        <pt x="758" y="335" on="1"/>
        <pt x="1200" y="1430" on="1"/>
      </contour>
    </TTGlyph>
    <TTGlyph name="W" xMin="35" yMin="0" xMax="1855" yMax="1430">
      <contour>
        <pt x="35" y="1430" on="1"/>
        <pt x="304" y="1430" on="1"/>
        <pt x="457" y="403" on="1"/>
        <pt x="829" y="1430" on="1"/>
        <pt x="1084" y="1430" on="1"/>
        <pt x="1432" y="443" on="1"/>
        <pt x="1594" y="1430" on="1"/>
        <pt x="1855" y="1430" on="1"/>
        <pt x="1586" y="0" on="1"/>
        <pt x="1334" y="0" on="1"/>
        <pt x="941" y="1122" on="1"/>
        <pt x="519" y="0" on="1"/>
        <pt x="270" y="0" on="1"/>
      </contour>
    </TTGlyph>
    <TTGlyph name="Wcircumflex" xMin="35" yMin="0" xMax="1855" yMax="1810">
      <component glyphName="W" x="0" y="0" flags="0x200"/>
      <component glyphName="circumflex" x="595" y="380" flags="0x0"/>
    </TTGlyph>
    <TTGlyph name="X" xMin="25" yMin="0" xMax="1485" yMax="1430">
      <contour>
        <pt x="588" y="715" on="1"/>
        <pt x="25" y="1430" on="1"/>
        <pt x="360" y="1430" on="1"/>
        <pt x="755" y="908" on="1"/>
        <pt x="1150" y="1430" on="1"/>
        <pt x="1485" y="1430" on="1"/>
        <pt x="923" y="715" on="1"/>
        <pt x="1485" y="0" on="1"/>
        <pt x="1150" y="0" on="1"/>
        <pt x="755" y="522" on="1"/>
        <pt x="360" y="0" on="1"/>
        <pt x="25" y="0" on="1"/>
      </contour>
    </TTGlyph>
    <TTGlyph name="Xi" xMin="100" yMin="0" xMax="1096" yMax="1430">
      <contour>
        <pt x="100" y="240" on="1"/>
        <pt x="1096" y="240" on="1"/>
        <pt x="1096" y="0" on="1"/>
        <pt x="100" y="0" on="1"/>
      </contour>
      <contour>
        <pt x="100" y="1430" on="1"/>
        <pt x="1096" y="1430" on="1"/>
        <pt x="1096" y="1190" on="1"/>
        <pt x="100" y="1190" on="1"/>
      </contour>
      <contour>
        <pt x="160" y="853" on="1"/>
        <pt x="1036" y="853" on="1"/>
        <pt x="1036" y="613" on="1"/>
        <pt x="160" y="613" on="1"/>
      </contour>
    </TTGlyph>
    <TTGlyph name="Y" xMin="25" yMin="0" xMax="1365" yMax="1430">
      <contour>
        <pt x="25" y="1430" on="1"/>
        <pt x="310" y="1430" on="1"/>
        <pt x="712" y="741" on="1"/>
        <pt x="1090" y="1430" on="1"/>
        <pt x="1365" y="1430" on="1"/>
        <pt x="839" y="500" on="1"/>
        <pt x="839" y="0" on="1"/>
        <pt x="574" y="0" on="1"/>
        <pt x="574" y="500" on="1"/>
      </contour>
    </TTGlyph>
    <TTGlyph name="Yacute" xMin="25" yMin="0" xMax="1365" yMax="1810">
      <component glyphName="Y" x="0" y="0" flags="0x200"/>
      <component glyphName="acute" x="441" y="380" flags="0x0"/>
    </TTGlyph>
    <TTGlyph name="Ycircumflex" xMin="25" yMin="0" xMax="1365" yMax="1810">
      <component glyphName="Y" x="0" y="0" flags="0x200"/>
      <component glyphName="circumflex" x="345" y="380" flags="0x0"/>
    </TTGlyph>
    <TTGlyph name="Ydieresis" xMin="25" yMin="0" xMax="1365" yMax="1789">
      <contour>
        <pt x="25" y="1430" on="1"/>
        <pt x="310" y="1430" on="1"/>
        <pt x="712" y="741" on="1"/>
        <pt x="1090" y="1430" on="1"/>
        <pt x="1365" y="1430" on="1"/>
        <pt x="839" y="500" on="1"/>
        <pt x="839" y="0" on="1"/>
        <pt x="574" y="0" on="1"/>
        <pt x="574" y="500" on="1"/>
      </contour>
      <contour>
        <pt x="973" y="1789" on="1"/>
        <pt x="973" y="1599" on="1"/>
        <pt x="757" y="1599" on="1"/>
        <pt x="757" y="1789" on="1"/>
      </contour>
      <contour>
        <pt x="633" y="1789" on="1"/>
        <pt x="633" y="1599" on="1"/>
        <pt x="417" y="1599" on="1"/>
        <pt x="417" y="1789" on="1"/>
      </contour>
    </TTGlyph>
    <TTGlyph name="Z" xMin="125" yMin="0" xMax="1185" yMax="1430">
      <contour>
        <pt x="1185" y="1430" on="1"/>
        <pt x="1185" y="1200" on="1"/>
        <pt x="424" y="230" on="1"/>
        <pt x="1185" y="230" on="1"/>
        <pt x="1185" y="0" on="1"/>
        <pt x="125" y="0" on="1"/>
        <pt x="125" y="230" on="1"/>
        <pt x="919" y="1200" on="1"/>
        <pt x="145" y="1200" on="1"/>
        <pt x="145" y="1430" on="1"/>
      </contour>
    </TTGlyph>
    <TTGlyph name="Zacute" xMin="125" yMin="0" xMax="1185" yMax="1810">
      <component glyphName="Z" x="0" y="0" flags="0x200"/>
      <component glyphName="acute" x="401" y="380" flags="0x0"/>
    </TTGlyph>
    <TTGlyph name="Zcaron" xMin="125" yMin="0" xMax="1185" yMax="1810">
      <component glyphName="Z" x="0" y="0" flags="0x200"/>
      <component glyphName="caron" x="305" y="380" flags="0x0"/>
    </TTGlyph>
    <TTGlyph name="Zdot" xMin="125" yMin="0" xMax="1185" yMax="1810">
      <component glyphName="Z" x="0" y="0" flags="0x200"/>
      <component glyphName="dotaccent" x="438" y="380" flags="0x0"/>
    </TTGlyph>
    <TTGlyph name="Zeta" xMin="125" yMin="0" xMax="1185" yMax="1430">
      <component glyphName="Z" x="0" y="0" flags="0x200"/>
    </TTGlyph>
    <TTGlyph name="a" xMin="75" yMin="0" xMax="1010" yMax="1050">
      <contour>
        <pt x="75" y="327" on="1"/>
        <pt x="75" y="640" on="0"/>
        <pt x="531" y="640" on="1"/>
        <pt x="638" y="640" on="0"/>
        <pt x="745" y="620" on="1"/>
        <pt x="745" y="699" on="1"/>
        <pt x="745" y="840" on="0"/>
        <pt x="542" y="840" on="1"/>
        <pt x="370" y="840" on="0"/>
        <pt x="160" y="790" on="1"/>
        <pt x="160" y="1000" on="1"/>
        <pt x="370" y="1050" on="0"/>
        <pt x="542" y="1050" on="1"/>
        <pt x="1010" y="1050" on="0"/>
        <pt x="1010" y="704" on="1"/>
        <pt x="1010" y="0" on="1"/>
        <pt x="856" y="0" on="1"/>
        <pt x="762" y="94" on="1"/>
        <pt x="625" y="0" on="0"/>
        <pt x="460" y="0" on="1"/>
        <pt x="75" y="0" on="0"/>
      </contour>
      <contour>
        <pt x="645" y="460" on="0"/>
        <pt x="531" y="460" on="1"/>
        <pt x="340" y="460" on="0"/>
        <pt x="340" y="330" on="1"/>
        <pt x="340" y="190" on="0"/>
        <pt x="500" y="190" on="1"/>
        <pt x="632" y="190" on="0"/>
        <pt x="745" y="272" on="1"/>
        <pt x="745" y="440" on="1"/>
      </contour>
    </TTGlyph>
    <TTGlyph name="aacute" xMin="75" yMin="0" xMax="1010" yMax="1430">
      <component glyphName="a" x="0" y="0" flags="0x200"/>
      <component glyphName="acute" x="298" y="0" flags="0x0"/>
    </TTGlyph>
    <TTGlyph name="abreve" xMin="75" yMin="0" xMax="1010" yMax="1430">
      <component glyphName="a" x="0" y="0" flags="0x200"/>
      <component glyphName="breve" x="188" y="0" flags="0x0"/>
    </TTGlyph>
    <TTGlyph name="acircumflex" xMin="75" yMin="0" xMax="1010" yMax="1430">
      <component glyphName="a" x="0" y="0" flags="0x200"/>
      <component glyphName="circumflex" x="213" y="0" flags="0x0"/>
    </TTGlyph>
    <TTGlyph name="acute" xMin="100" yMin="1171" xMax="563" yMax="1430">
      <contour>
        <pt x="244" y="1430" on="1"/>
        <pt x="563" y="1430" on="1"/>
        <pt x="324" y="1171" on="1"/>
        <pt x="100" y="1171" on="1"/>
      </contour>
    </TTGlyph>
    <TTGlyph name="adieresis" xMin="75" yMin="0" xMax="1010" yMax="1430">
      <component glyphName="a" x="0" y="0" flags="0x200"/>
      <component glyphName="dieresis" x="185" y="0" flags="0x0"/>
    </TTGlyph>
    <TTGlyph name="ae" xMin="75" yMin="0" xMax="1692" yMax="1050">
      <contour>
        <pt x="625" y="460" on="0"/>
        <pt x="511" y="460" on="1"/>
        <pt x="340" y="460" on="0"/>
        <pt x="340" y="330" on="1"/>
        <pt x="340" y="190" on="0"/>
        <pt x="490" y="190" on="1"/>
        <pt x="642" y="190" on="0"/>
        <pt x="735" y="272" on="1"/>
        <pt x="735" y="440" on="1"/>
      </contour>
      <contour>
        <pt x="1001" y="616" on="1"/>
        <pt x="1449" y="616" on="1"/>
        <pt x="1433" y="840" on="0"/>
        <pt x="1239" y="840" on="1"/>
        <pt x="1019" y="840" on="0"/>
      </contour>
      <contour>
        <pt x="164" y="792" on="1"/>
        <pt x="164" y="997" on="1"/>
        <pt x="332" y="1050" on="0"/>
        <pt x="498" y="1050" on="1"/>
        <pt x="797" y="1050" on="0"/>
        <pt x="894" y="914" on="1"/>
        <pt x="1021" y="1050" on="0"/>
        <pt x="1236" y="1050" on="1"/>
        <pt x="1692" y="1050" on="0"/>
        <pt x="1692" y="583" on="1"/>
        <pt x="1692" y="508" on="0"/>
        <pt x="1680" y="432" on="1"/>
        <pt x="1003" y="432" on="1"/>
        <pt x="1003" y="210" on="0"/>
        <pt x="1363" y="210" on="1"/>
        <pt x="1511" y="210" on="0"/>
        <pt x="1648" y="239" on="1"/>
        <pt x="1648" y="30" on="1"/>
        <pt x="1502" y="0" on="0"/>
        <pt x="1307" y="0" on="1"/>
        <pt x="1032" y="0" on="0"/>
        <pt x="889" y="112" on="1"/>
        <pt x="696" y="0" on="0"/>
        <pt x="491" y="0" on="1"/>
        <pt x="75" y="0" on="0"/>
        <pt x="75" y="329" on="1"/>
        <pt x="75" y="650" on="0"/>
        <pt x="512" y="650" on="1"/>
        <pt x="616" y="650" on="0"/>
        <pt x="738" y="628" on="1"/>
        <pt x="738" y="840" on="0"/>
        <pt x="496" y="840" on="1"/>
        <pt x="326" y="840" on="0"/>
      </contour>
    </TTGlyph>
    <TTGlyph name="afii10017" xMin="25" yMin="0" xMax="1537" yMax="1430">
      <component glyphName="A" x="0" y="0" flags="0x200"/>
    </TTGlyph>
    <TTGlyph name="afii10018" xMin="150" yMin="0" xMax="1216" yMax="1430">
      <contour>
        <pt x="1151" y="1430" on="1"/>
        <pt x="1151" y="1200" on="1"/>
        <pt x="416" y="1200" on="1"/>
        <pt x="416" y="233" on="1"/>
        <pt x="743" y="233" on="1"/>
        <pt x="951" y="233" on="0"/>
        <pt x="951" y="402" on="1"/>
        <pt x="951" y="590" on="0"/>
        <pt x="689" y="590" on="1"/>
        <pt x="581" y="590" on="1"/>
        <pt x="581" y="820" on="1"/>
        <pt x="698" y="820" on="1"/>
        <pt x="1216" y="820" on="0"/>
        <pt x="1216" y="413" on="1"/>
        <pt x="1216" y="0" on="0"/>
        <pt x="760" y="0" on="1"/>
        <pt x="150" y="0" on="1"/>
        <pt x="150" y="1430" on="1"/>
      </contour>
    </TTGlyph>
    <TTGlyph name="afii10019" xMin="150" yMin="0" xMax="1246" yMax="1430">
      <component glyphName="B" x="0" y="0" flags="0x200"/>
    </TTGlyph>
    <TTGlyph name="afii10020" xMin="150" yMin="0" xMax="1083" yMax="1430">
      <contour>
        <pt x="150" y="0" on="1"/>
        <pt x="150" y="1430" on="1"/>
        <pt x="1083" y="1430" on="1"/>
        <pt x="1083" y="1200" on="1"/>
        <pt x="415" y="1200" on="1"/>
        <pt x="415" y="0" on="1"/>
      </contour>
    </TTGlyph>
    <TTGlyph name="afii10021" xMin="0" yMin="-380" xMax="1704" yMax="1430">
      <contour>
        <pt x="578" y="230" on="1"/>
        <pt x="1254" y="230" on="1"/>
        <pt x="1254" y="1200" on="1"/>
        <pt x="864" y="1200" on="1"/>
        <pt x="864" y="401" on="0"/>
      </contour>
      <contour>
        <pt x="0" y="-380" on="1"/>
        <pt x="0" y="230" on="1"/>
        <pt x="184" y="230" on="1"/>
        <pt x="599" y="230" on="0"/>
        <pt x="599" y="1200" on="1"/>
        <pt x="599" y="1430" on="1"/>
        <pt x="1519" y="1430" on="1"/>
        <pt x="1519" y="230" on="1"/>
        <pt x="1704" y="230" on="1"/>
        <pt x="1704" y="-380" on="1"/>
        <pt x="1439" y="-380" on="1"/>
        <pt x="1439" y="0" on="1"/>
        <pt x="264" y="0" on="1"/>
        <pt x="264" y="-380" on="1"/>
      </contour>
    </TTGlyph>
    <TTGlyph name="afii10022" xMin="150" yMin="0" xMax="1143" yMax="1430">
      <component glyphName="E" x="0" y="0" flags="0x200"/>
    </TTGlyph>
    <TTGlyph name="afii10023" xMin="150" yMin="0" xMax="1143" yMax="1810">
      <component glyphName="E" x="0" y="0" flags="0x200"/>
      <component glyphName="dieresis" x="259" y="380" flags="0x0"/>
    </TTGlyph>
    <TTGlyph name="afii10024" xMin="25" yMin="0" xMax="2184" yMax="1430">
      <contour>
        <pt x="25" y="0" on="1"/>
        <pt x="351" y="570" on="0"/>
        <pt x="522" y="736" on="0"/>
        <pt x="600" y="758" on="1"/>
        <pt x="438" y="797" on="0"/>
        <pt x="257" y="1220" on="0"/>
        <pt x="149" y="1220" on="1"/>
        <pt x="70" y="1220" on="1"/>
        <pt x="70" y="1430" on="1"/>
        <pt x="177" y="1430" on="1"/>
        <pt x="455" y="1430" on="0"/>
        <pt x="702" y="846" on="0"/>
        <pt x="842" y="846" on="1"/>
        <pt x="842" y="653" on="1"/>
        <pt x="764" y="653" on="0"/>
        <pt x="627" y="509" on="0"/>
        <pt x="359" y="0" on="1"/>
      </contour>
      <contour>
        <pt x="1237" y="1430" on="1"/>
        <pt x="1237" y="0" on="1"/>
        <pt x="972" y="0" on="1"/>
        <pt x="972" y="1430" on="1"/>
      </contour>
      <contour>
        <pt x="1850" y="0" on="1"/>
        <pt x="1582" y="509" on="0"/>
        <pt x="1445" y="653" on="0"/>
        <pt x="1367" y="653" on="1"/>
        <pt x="1367" y="846" on="1"/>
        <pt x="1507" y="846" on="0"/>
        <pt x="1754" y="1430" on="0"/>
        <pt x="2032" y="1430" on="1"/>
        <pt x="2139" y="1430" on="1"/>
        <pt x="2139" y="1220" on="1"/>
        <pt x="2060" y="1220" on="1"/>
        <pt x="1952" y="1220" on="0"/>
        <pt x="1771" y="797" on="0"/>
        <pt x="1609" y="758" on="1"/>
        <pt x="1687" y="736" on="0"/>
        <pt x="1858" y="570" on="0"/>
        <pt x="2184" y="0" on="1"/>
      </contour>
    </TTGlyph>
    <TTGlyph name="afii10025" xMin="100" yMin="-10" xMax="1055" yMax="1440">
      <contour>
        <pt x="100" y="1380" on="1"/>
        <pt x="300" y="1440" on="0"/>
        <pt x="520" y="1440" on="1"/>
        <pt x="1055" y="1440" on="0"/>
        <pt x="1055" y="1050" on="1"/>
        <pt x="1055" y="814" on="0"/>
        <pt x="867" y="725" on="1"/>
        <pt x="1055" y="640" on="0"/>
        <pt x="1055" y="400" on="1"/>
        <pt x="1055" y="-10" on="0"/>
        <pt x="520" y="-10" on="1"/>
        <pt x="300" y="-10" on="0"/>
        <pt x="100" y="50" on="1"/>
        <pt x="100" y="290" on="1"/>
        <pt x="300" y="220" on="0"/>
        <pt x="520" y="220" on="1"/>
        <pt x="790" y="220" on="0"/>
        <pt x="790" y="400" on="1"/>
        <pt x="790" y="610" on="0"/>
        <pt x="598" y="610" on="1"/>
        <pt x="250" y="610" on="1"/>
        <pt x="250" y="840" on="1"/>
        <pt x="595" y="840" on="1"/>
        <pt x="790" y="840" on="0"/>
        <pt x="790" y="1050" on="1"/>
        <pt x="790" y="1210" on="0"/>
        <pt x="520" y="1210" on="1"/>
        <pt x="300" y="1210" on="0"/>
        <pt x="100" y="1140" on="1"/>
      </contour>
    </TTGlyph>
    <TTGlyph name="afii10026" xMin="150" yMin="0" xMax="1335" yMax="1430">
      <contour>
        <pt x="1080" y="0" on="1"/>
        <pt x="1080" y="1028" on="1"/>
        <pt x="405" y="0" on="1"/>
        <pt x="150" y="0" on="1"/>
        <pt x="150" y="1430" on="1"/>
        <pt x="405" y="1430" on="1"/>
        <pt x="405" y="389" on="1"/>
        <pt x="1080" y="1430" on="1"/>
        <pt x="1335" y="1430" on="1"/>
        <pt x="1335" y="0" on="1"/>
      </contour>
    </TTGlyph>
    <TTGlyph name="afii10027" xMin="150" yMin="0" xMax="1335" yMax="1784">
      <contour>
        <pt x="450" y="1784" on="1"/>
        <pt x="625" y="1784" on="1"/>
        <pt x="625" y="1644" on="0"/>
        <pt x="745" y="1644" on="1"/>
        <pt x="865" y="1644" on="0"/>
        <pt x="865" y="1784" on="1"/>
        <pt x="1040" y="1784" on="1"/>
        <pt x="1040" y="1494" on="0"/>
        <pt x="745" y="1494" on="1"/>
        <pt x="450" y="1494" on="0"/>
      </contour>
      <contour>
        <pt x="1080" y="0" on="1"/>
        <pt x="1080" y="1008" on="1"/>
        <pt x="415" y="0" on="1"/>
        <pt x="150" y="0" on="1"/>
        <pt x="150" y="1430" on="1"/>
        <pt x="405" y="1430" on="1"/>
        <pt x="405" y="389" on="1"/>
        <pt x="1070" y="1430" on="1"/>
        <pt x="1335" y="1430" on="1"/>
        <pt x="1335" y="0" on="1"/>
      </contour>
    </TTGlyph>
    <TTGlyph name="afii10028" xMin="150" yMin="0" xMax="1362" yMax="1430">
      <contour>
        <pt x="415" y="1430" on="1"/>
        <pt x="415" y="0" on="1"/>
        <pt x="150" y="0" on="1"/>
        <pt x="150" y="1430" on="1"/>
      </contour>
      <contour>
        <pt x="1028" y="0" on="1"/>
        <pt x="760" y="509" on="0"/>
        <pt x="623" y="653" on="0"/>
        <pt x="545" y="653" on="1"/>
        <pt x="545" y="846" on="1"/>
        <pt x="685" y="846" on="0"/>
        <pt x="932" y="1430" on="0"/>
        <pt x="1210" y="1430" on="1"/>
        <pt x="1317" y="1430" on="1"/>
        <pt x="1317" y="1220" on="1"/>
        <pt x="1238" y="1220" on="1"/>
        <pt x="1130" y="1220" on="0"/>
        <pt x="949" y="797" on="0"/>
        <pt x="787" y="758" on="1"/>
        <pt x="865" y="736" on="0"/>
        <pt x="1036" y="570" on="0"/>
        <pt x="1362" y="0" on="1"/>
      </contour>
    </TTGlyph>
    <TTGlyph name="afii10029" xMin="0" yMin="0" xMax="1364" yMax="1430">
      <contour>
        <pt x="0" y="210" on="1"/>
        <pt x="344" y="210" on="0"/>
        <pt x="344" y="697" on="1"/>
        <pt x="344" y="1430" on="1"/>
        <pt x="1364" y="1430" on="1"/>
        <pt x="1364" y="0" on="1"/>
        <pt x="1099" y="0" on="1"/>
        <pt x="1099" y="1200" on="1"/>
        <pt x="609" y="1200" on="1"/>
        <pt x="609" y="697" on="1"/>
        <pt x="609" y="0" on="0"/>
        <pt x="0" y="0" on="1"/>
      </contour>
    </TTGlyph>
    <TTGlyph name="afii10030" xMin="150" yMin="0" xMax="1650" yMax="1430">
      <component glyphName="M" x="0" y="0" flags="0x200"/>
    </TTGlyph>
    <TTGlyph name="afii10031" xMin="150" yMin="0" xMax="1415" yMax="1430">
      <contour>
        <pt x="150" y="0" on="1"/>
        <pt x="150" y="1430" on="1"/>
        <pt x="415" y="1430" on="1"/>
        <pt x="415" y="850" on="1"/>
        <pt x="1150" y="850" on="1"/>
        <pt x="1150" y="1430" on="1"/>
        <pt x="1415" y="1430" on="1"/>
        <pt x="1415" y="0" on="1"/>
        <pt x="1150" y="0" on="1"/>
        <pt x="1150" y="620" on="1"/>
        <pt x="415" y="620" on="1"/>
        <pt x="415" y="0" on="1"/>
      </contour>
    </TTGlyph>
    <TTGlyph name="afii10032" xMin="100" yMin="-10" xMax="1525" yMax="1440">
      <component glyphName="O" x="0" y="0" flags="0x200"/>
    </TTGlyph>
    <TTGlyph name="afii10033" xMin="150" yMin="0" xMax="1415" yMax="1430">
      <contour>
        <pt x="150" y="0" on="1"/>
        <pt x="150" y="1430" on="1"/>
        <pt x="1415" y="1430" on="1"/>
        <pt x="1415" y="0" on="1"/>
        <pt x="1150" y="0" on="1"/>
        <pt x="1150" y="1200" on="1"/>
        <pt x="415" y="1200" on="1"/>
        <pt x="415" y="0" on="1"/>
      </contour>
    </TTGlyph>
    <TTGlyph name="afii10034" xMin="150" yMin="0" xMax="1228" yMax="1430">
      <component glyphName="P" x="0" y="0" flags="0x200"/>
    </TTGlyph>
    <TTGlyph name="afii10035" xMin="100" yMin="-10" xMax="1290" yMax="1440">
      <component glyphName="C" x="0" y="0" flags="0x200"/>
    </TTGlyph>
    <TTGlyph name="afii10036" xMin="0" yMin="0" xMax="1085" yMax="1430">
      <component glyphName="T" x="0" y="0" flags="0x200"/>
    </TTGlyph>
    <TTGlyph name="afii10037" xMin="50" yMin="0" xMax="1282" yMax="1430">
      <contour>
        <pt x="1282" y="1430" on="1"/>
        <pt x="789" y="268" on="1"/>
        <pt x="675" y="0" on="0"/>
        <pt x="400" y="0" on="1"/>
        <pt x="272" y="0" on="0"/>
        <pt x="164" y="70" on="1"/>
        <pt x="164" y="280" on="1"/>
        <pt x="270" y="210" on="0"/>
        <pt x="397" y="210" on="1"/>
        <pt x="531" y="210" on="0"/>
        <pt x="568" y="316" on="1"/>
        <pt x="50" y="1430" on="1"/>
        <pt x="334" y="1430" on="1"/>
        <pt x="689" y="600" on="1"/>
        <pt x="998" y="1430" on="1"/>
      </contour>
    </TTGlyph>
    <TTGlyph name="afii10038" xMin="100" yMin="0" xMax="1624" yMax="1430">
      <contour>
        <pt x="730" y="113" on="1"/>
        <pt x="100" y="150" on="0"/>
        <pt x="100" y="713" on="1"/>
        <pt x="100" y="1280" on="0"/>
        <pt x="730" y="1317" on="1"/>
        <pt x="730" y="1430" on="1"/>
        <pt x="994" y="1430" on="1"/>
        <pt x="994" y="1318" on="1"/>
        <pt x="1624" y="1284" on="0"/>
        <pt x="1624" y="713" on="1"/>
        <pt x="1624" y="145" on="0"/>
        <pt x="994" y="112" on="1"/>
        <pt x="994" y="0" on="1"/>
        <pt x="730" y="0" on="1"/>
      </contour>
      <contour>
        <pt x="730" y="344" on="1"/>
        <pt x="730" y="1086" on="1"/>
        <pt x="374" y="1050" on="0"/>
        <pt x="374" y="719" on="1"/>
        <pt x="374" y="381" on="0"/>
      </contour>
      <contour>
        <pt x="994" y="1087" on="1"/>
        <pt x="994" y="343" on="1"/>
        <pt x="1350" y="377" on="0"/>
        <pt x="1350" y="719" on="1"/>
        <pt x="1350" y="1054" on="0"/>
      </contour>
    </TTGlyph>
    <TTGlyph name="afii10039" xMin="25" yMin="0" xMax="1485" yMax="1430">
      <contour>
        <pt x="588" y="715" on="1"/>
        <pt x="25" y="1430" on="1"/>
        <pt x="360" y="1430" on="1"/>
        <pt x="755" y="908" on="1"/>
        <pt x="1150" y="1430" on="1"/>
        <pt x="1485" y="1430" on="1"/>
        <pt x="923" y="715" on="1"/>
        <pt x="1485" y="0" on="1"/>
        <pt x="1150" y="0" on="1"/>
        <pt x="755" y="522" on="1"/>
        <pt x="360" y="0" on="1"/>
        <pt x="25" y="0" on="1"/>
      </contour>
    </TTGlyph>
    <TTGlyph name="afii10040" xMin="150" yMin="-380" xMax="1527" yMax="1430">
      <contour>
        <pt x="150" y="0" on="1"/>
        <pt x="150" y="1430" on="1"/>
        <pt x="415" y="1430" on="1"/>
        <pt x="415" y="230" on="1"/>
        <pt x="1077" y="230" on="1"/>
        <pt x="1077" y="1430" on="1"/>
        <pt x="1342" y="1430" on="1"/>
        <pt x="1342" y="230" on="1"/>
        <pt x="1527" y="230" on="1"/>
        <pt x="1527" y="-380" on="1"/>
        <pt x="1262" y="-380" on="1"/>
        <pt x="1262" y="0" on="1"/>
      </contour>
    </TTGlyph>
    <TTGlyph name="afii10041" xMin="125" yMin="0" xMax="1318" yMax="1430">
      <contour>
        <pt x="1318" y="1430" on="1"/>
        <pt x="1318" y="0" on="1"/>
        <pt x="1053" y="0" on="1"/>
        <pt x="1053" y="584" on="1"/>
        <pt x="857" y="470" on="0"/>
        <pt x="624" y="470" on="1"/>
        <pt x="125" y="470" on="0"/>
        <pt x="125" y="991" on="1"/>
        <pt x="125" y="1430" on="1"/>
        <pt x="390" y="1430" on="1"/>
        <pt x="390" y="988" on="1"/>
        <pt x="390" y="704" on="0"/>
        <pt x="649" y="704" on="1"/>
        <pt x="878" y="704" on="0"/>
        <pt x="1053" y="837" on="1"/>
        <pt x="1053" y="1430" on="1"/>
      </contour>
    </TTGlyph>
    <TTGlyph name="afii10042" xMin="150" yMin="0" xMax="1845" yMax="1430">
      <contour>
        <pt x="150" y="0" on="1"/>
        <pt x="150" y="1430" on="1"/>
        <pt x="415" y="1430" on="1"/>
        <pt x="415" y="230" on="1"/>
        <pt x="865" y="230" on="1"/>
        <pt x="865" y="1430" on="1"/>
        <pt x="1130" y="1430" on="1"/>
        <pt x="1130" y="230" on="1"/>
        <pt x="1580" y="230" on="1"/>
        <pt x="1580" y="1430" on="1"/>
        <pt x="1845" y="1430" on="1"/>
        <pt x="1845" y="0" on="1"/>
      </contour>
    </TTGlyph>
    <TTGlyph name="afii10043" xMin="150" yMin="-380" xMax="2030" yMax="1430">
      <contour>
        <pt x="150" y="0" on="1"/>
        <pt x="150" y="1430" on="1"/>
        <pt x="415" y="1430" on="1"/>
        <pt x="415" y="230" on="1"/>
        <pt x="865" y="230" on="1"/>
        <pt x="865" y="1430" on="1"/>
        <pt x="1130" y="1430" on="1"/>
        <pt x="1130" y="230" on="1"/>
        <pt x="1580" y="230" on="1"/>
        <pt x="1580" y="1430" on="1"/>
        <pt x="1845" y="1430" on="1"/>
        <pt x="1845" y="230" on="1"/>
        <pt x="2030" y="230" on="1"/>
        <pt x="2030" y="-380" on="1"/>
        <pt x="1765" y="-380" on="1"/>
        <pt x="1765" y="0" on="1"/>
      </contour>
    </TTGlyph>
    <TTGlyph name="afii10044" xMin="0" yMin="0" xMax="1610" yMax="1430">
      <contour>
        <pt x="767" y="1430" on="1"/>
        <pt x="767" y="233" on="1"/>
        <pt x="1175" y="233" on="1"/>
        <pt x="1333" y="233" on="0"/>
        <pt x="1333" y="402" on="1"/>
        <pt x="1333" y="590" on="0"/>
        <pt x="1121" y="590" on="1"/>
        <pt x="933" y="590" on="1"/>
        <pt x="933" y="820" on="1"/>
        <pt x="1131" y="820" on="1"/>
        <pt x="1610" y="820" on="0"/>
        <pt x="1610" y="413" on="1"/>
        <pt x="1610" y="0" on="0"/>
        <pt x="1192" y="0" on="1"/>
        <pt x="502" y="0" on="1"/>
        <pt x="502" y="1200" on="1"/>
        <pt x="0" y="1200" on="1"/>
        <pt x="0" y="1430" on="1"/>
      </contour>
    </TTGlyph>
    <TTGlyph name="afii10045" xMin="150" yMin="0" xMax="1645" yMax="1430">
      <contour>
        <pt x="415" y="1430" on="1"/>
        <pt x="415" y="233" on="1"/>
        <pt x="823" y="233" on="1"/>
        <pt x="981" y="233" on="0"/>
        <pt x="981" y="402" on="1"/>
        <pt x="981" y="590" on="0"/>
        <pt x="769" y="590" on="1"/>
        <pt x="581" y="590" on="1"/>
        <pt x="581" y="820" on="1"/>
        <pt x="779" y="820" on="1"/>
        <pt x="1258" y="820" on="0"/>
        <pt x="1258" y="413" on="1"/>
        <pt x="1258" y="0" on="0"/>
        <pt x="840" y="0" on="1"/>
        <pt x="150" y="0" on="1"/>
        <pt x="150" y="1430" on="1"/>
      </contour>
      <contour>
        <pt x="1380" y="0" on="1"/>
        <pt x="1380" y="1430" on="1"/>
        <pt x="1645" y="1430" on="1"/>
        <pt x="1645" y="0" on="1"/>
      </contour>
    </TTGlyph>
    <TTGlyph name="afii10046" xMin="150" yMin="0" xMax="1258" yMax="1430">
      <contour>
        <pt x="415" y="1430" on="1"/>
        <pt x="415" y="233" on="1"/>
        <pt x="823" y="233" on="1"/>
        <pt x="981" y="233" on="0"/>
        <pt x="981" y="402" on="1"/>
        <pt x="981" y="590" on="0"/>
        <pt x="769" y="590" on="1"/>
        <pt x="581" y="590" on="1"/>
        <pt x="581" y="820" on="1"/>
        <pt x="778" y="820" on="1"/>
        <pt x="1258" y="820" on="0"/>
        <pt x="1258" y="413" on="1"/>
        <pt x="1258" y="0" on="0"/>
        <pt x="840" y="0" on="1"/>
        <pt x="150" y="0" on="1"/>
        <pt x="150" y="1430" on="1"/>
      </contour>
    </TTGlyph>
    <TTGlyph name="afii10047" xMin="125" yMin="-10" xMax="1275" yMax="1440">
      <contour>
        <pt x="125" y="290" on="1"/>
        <pt x="310" y="220" on="0"/>
        <pt x="505" y="220" on="1"/>
        <pt x="967" y="220" on="0"/>
        <pt x="997" y="610" on="1"/>
        <pt x="197" y="610" on="1"/>
        <pt x="197" y="840" on="1"/>
        <pt x="998" y="840" on="1"/>
        <pt x="975" y="1210" on="0"/>
        <pt x="505" y="1210" on="1"/>
        <pt x="310" y="1210" on="0"/>
        <pt x="125" y="1140" on="1"/>
        <pt x="125" y="1380" on="1"/>
        <pt x="310" y="1440" on="0"/>
        <pt x="525" y="1440" on="1"/>
        <pt x="1275" y="1440" on="0"/>
        <pt x="1275" y="735" on="1"/>
        <pt x="1275" y="-10" on="0"/>
        <pt x="525" y="-10" on="1"/>
        <pt x="310" y="-10" on="0"/>
        <pt x="125" y="50" on="1"/>
      </contour>
    </TTGlyph>
    <TTGlyph name="afii10048" xMin="150" yMin="-10" xMax="1902" yMax="1440">
      <contour>
        <pt x="150" y="0" on="1"/>
        <pt x="150" y="1430" on="1"/>
        <pt x="414" y="1430" on="1"/>
        <pt x="414" y="840" on="1"/>
        <pt x="659" y="840" on="1"/>
        <pt x="713" y="1440" on="0"/>
        <pt x="1285" y="1440" on="1"/>
        <pt x="1902" y="1440" on="0"/>
        <pt x="1902" y="713" on="1"/>
        <pt x="1902" y="-10" on="0"/>
        <pt x="1285" y="-10" on="1"/>
        <pt x="703" y="-10" on="0"/>
        <pt x="658" y="610" on="1"/>
        <pt x="414" y="610" on="1"/>
        <pt x="414" y="0" on="1"/>
      </contour>
      <contour>
        <pt x="1285" y="220" on="1"/>
        <pt x="1627" y="220" on="0"/>
        <pt x="1627" y="719" on="1"/>
        <pt x="1627" y="1210" on="0"/>
        <pt x="1285" y="1210" on="1"/>
        <pt x="932" y="1210" on="0"/>
        <pt x="932" y="719" on="1"/>
        <pt x="932" y="220" on="0"/>
      </contour>
    </TTGlyph>
    <TTGlyph name="afii10049" xMin="25" yMin="0" xMax="1225" yMax="1430">
      <contour>
        <pt x="955" y="2" on="1"/>
        <pt x="955" y="1197" on="1"/>
        <pt x="602" y="1197" on="1"/>
        <pt x="414" y="1197" on="0"/>
        <pt x="414" y="1029" on="1"/>
        <pt x="414" y="809" on="0"/>
        <pt x="804" y="744" on="1"/>
        <pt x="804" y="623" on="1"/>
        <pt x="369" y="0" on="1"/>
        <pt x="25" y="0" on="1"/>
        <pt x="478" y="618" on="1"/>
        <pt x="137" y="768" on="0"/>
        <pt x="137" y="1027" on="1"/>
        <pt x="137" y="1430" on="0"/>
        <pt x="605" y="1430" on="1"/>
        <pt x="1225" y="1430" on="1"/>
        <pt x="1225" y="2" on="1"/>
      </contour>
    </TTGlyph>
    <TTGlyph name="afii10065" xMin="75" yMin="0" xMax="1010" yMax="1050">
      <component glyphName="a" x="0" y="0" flags="0x200"/>
    </TTGlyph>
    <TTGlyph name="afii10066" xMin="75" yMin="-10" xMax="1196" yMax="1539">
      <contour>
        <pt x="1196" y="520" on="1"/>
        <pt x="1196" y="-10" on="0"/>
        <pt x="638" y="-10" on="1"/>
        <pt x="75" y="-10" on="0"/>
        <pt x="75" y="520" on="1"/>
        <pt x="75" y="845" on="1"/>
        <pt x="75" y="1430" on="0"/>
        <pt x="699" y="1430" on="1"/>
        <pt x="991" y="1430" on="0"/>
        <pt x="1162" y="1539" on="1"/>
        <pt x="1162" y="1316" on="1"/>
        <pt x="1009" y="1220" on="0"/>
        <pt x="696" y="1220" on="1"/>
        <pt x="345" y="1220" on="0"/>
        <pt x="345" y="892" on="1"/>
        <pt x="467" y="1050" on="0"/>
        <pt x="690" y="1050" on="1"/>
        <pt x="1196" y="1050" on="0"/>
        <pt x="1196" y="542" on="1"/>
      </contour>
      <contour>
        <pt x="638" y="200" on="1"/>
        <pt x="930" y="200" on="0"/>
        <pt x="930" y="520" on="1"/>
        <pt x="930" y="834" on="0"/>
        <pt x="648" y="834" on="1"/>
        <pt x="345" y="834" on="0"/>
        <pt x="345" y="520" on="1"/>
        <pt x="345" y="200" on="0"/>
      </contour>
    </TTGlyph>
    <TTGlyph name="afii10067" xMin="125" yMin="0" xMax="1091" yMax="1050">
      <contour>
        <pt x="125" y="0" on="1"/>
        <pt x="125" y="1050" on="1"/>
        <pt x="725" y="1050" on="1"/>
        <pt x="1073" y="1050" on="0"/>
        <pt x="1073" y="787" on="1"/>
        <pt x="1073" y="624" on="0"/>
        <pt x="877" y="545" on="1"/>
        <pt x="1091" y="492" on="0"/>
        <pt x="1091" y="287" on="1"/>
        <pt x="1091" y="0" on="0"/>
        <pt x="704" y="0" on="1"/>
      </contour>
      <contour>
        <pt x="663" y="210" on="1"/>
        <pt x="819" y="210" on="0"/>
        <pt x="819" y="323" on="1"/>
        <pt x="819" y="430" on="0"/>
        <pt x="676" y="430" on="1"/>
        <pt x="566" y="430" on="1"/>
        <pt x="566" y="611" on="1"/>
        <pt x="806" y="646" on="0"/>
        <pt x="806" y="760" on="1"/>
        <pt x="806" y="840" on="0"/>
        <pt x="718" y="840" on="1"/>
        <pt x="390" y="840" on="1"/>
        <pt x="390" y="210" on="1"/>
      </contour>
    </TTGlyph>
    <TTGlyph name="afii10068" xMin="125" yMin="0" xMax="823" yMax="1050">
      <contour>
        <pt x="125" y="0" on="1"/>
        <pt x="125" y="1050" on="1"/>
        <pt x="823" y="1050" on="1"/>
        <pt x="823" y="840" on="1"/>
        <pt x="390" y="840" on="1"/>
        <pt x="390" y="0" on="1"/>
      </contour>
    </TTGlyph>
    <TTGlyph name="afii10069" xMin="0" yMin="-380" xMax="1433" yMax="1050">
      <contour>
        <pt x="534" y="210" on="1"/>
        <pt x="983" y="210" on="1"/>
        <pt x="983" y="840" on="1"/>
        <pt x="693" y="840" on="1"/>
        <pt x="693" y="401" on="0"/>
      </contour>
      <contour>
        <pt x="0" y="-380" on="1"/>
        <pt x="0" y="210" on="1"/>
        <pt x="184" y="210" on="1"/>
        <pt x="428" y="210" on="0"/>
        <pt x="428" y="840" on="1"/>
        <pt x="428" y="1050" on="1"/>
        <pt x="1248" y="1050" on="1"/>
        <pt x="1248" y="210" on="1"/>
        <pt x="1433" y="210" on="1"/>
        <pt x="1433" y="-380" on="1"/>
        <pt x="1168" y="-380" on="1"/>
        <pt x="1168" y="0" on="1"/>
        <pt x="264" y="0" on="1"/>
        <pt x="264" y="-380" on="1"/>
      </contour>
    </TTGlyph>
    <TTGlyph name="afii10070" xMin="60" yMin="0" xMax="1031" yMax="1050">
      <component glyphName="e" x="-15" y="0" flags="0x200"/>
    </TTGlyph>
    <TTGlyph name="afii10071" xMin="60" yMin="0" xMax="1031" yMax="1430">
      <component glyphName="e" x="-15" y="0" flags="0x200"/>
      <component glyphName="dieresis" x="168" y="0" flags="0x0"/>
    </TTGlyph>
    <TTGlyph name="afii10072" xMin="25" yMin="0" xMax="1855" yMax="1057">
      <contour>
        <pt x="25" y="0" on="1"/>
        <pt x="191" y="264" on="1"/>
        <pt x="356" y="527" on="0"/>
        <pt x="484" y="548" on="1"/>
        <pt x="389" y="597" on="0"/>
        <pt x="267" y="839" on="0"/>
        <pt x="169" y="839" on="1"/>
        <pt x="90" y="839" on="1"/>
        <pt x="90" y="1055" on="1"/>
        <pt x="197" y="1055" on="1"/>
        <pt x="425" y="1055" on="0"/>
        <pt x="589" y="646" on="0"/>
        <pt x="702" y="646" on="1"/>
        <pt x="702" y="463" on="1"/>
        <pt x="624" y="463" on="0"/>
        <pt x="476" y="246" on="1"/>
        <pt x="329" y="0" on="1"/>
      </contour>
      <contour>
        <pt x="1071" y="1057" on="1"/>
        <pt x="1071" y="0" on="1"/>
        <pt x="806" y="0" on="1"/>
        <pt x="806" y="1057" on="1"/>
      </contour>
      <contour>
        <pt x="1551" y="0" on="1"/>
        <pt x="1404" y="246" on="1"/>
        <pt x="1256" y="463" on="0"/>
        <pt x="1178" y="463" on="1"/>
        <pt x="1178" y="646" on="1"/>
        <pt x="1291" y="646" on="0"/>
        <pt x="1455" y="1055" on="0"/>
        <pt x="1683" y="1055" on="1"/>
        <pt x="1790" y="1055" on="1"/>
        <pt x="1790" y="839" on="1"/>
        <pt x="1711" y="839" on="1"/>
        <pt x="1613" y="839" on="0"/>
        <pt x="1491" y="597" on="0"/>
        <pt x="1396" y="548" on="1"/>
        <pt x="1524" y="527" on="0"/>
        <pt x="1689" y="264" on="1"/>
        <pt x="1855" y="0" on="1"/>
      </contour>
    </TTGlyph>
    <TTGlyph name="afii10073" xMin="60" yMin="-10" xMax="825" yMax="1060">
      <contour>
        <pt x="60" y="1000" on="1"/>
        <pt x="260" y="1060" on="0"/>
        <pt x="410" y="1060" on="1"/>
        <pt x="825" y="1060" on="0"/>
        <pt x="825" y="768" on="1"/>
        <pt x="825" y="614" on="0"/>
        <pt x="687" y="535" on="1"/>
        <pt x="825" y="460" on="0"/>
        <pt x="825" y="310" on="1"/>
        <pt x="825" y="-10" on="0"/>
        <pt x="410" y="-10" on="1"/>
        <pt x="260" y="-10" on="0"/>
        <pt x="60" y="50" on="1"/>
        <pt x="60" y="270" on="1"/>
        <pt x="260" y="200" on="0"/>
        <pt x="410" y="200" on="1"/>
        <pt x="560" y="200" on="0"/>
        <pt x="560" y="310" on="1"/>
        <pt x="560" y="430" on="0"/>
        <pt x="448" y="430" on="1"/>
        <pt x="160" y="430" on="1"/>
        <pt x="160" y="640" on="1"/>
        <pt x="445" y="640" on="1"/>
        <pt x="560" y="640" on="0"/>
        <pt x="560" y="768" on="1"/>
        <pt x="560" y="850" on="0"/>
        <pt x="410" y="850" on="1"/>
        <pt x="260" y="850" on="0"/>
        <pt x="60" y="780" on="1"/>
      </contour>
    </TTGlyph>
    <TTGlyph name="afii10074" xMin="125" yMin="0" xMax="1130" yMax="1050">
      <contour>
        <pt x="875" y="0" on="1"/>
        <pt x="875" y="706" on="1"/>
        <pt x="390" y="0" on="1"/>
        <pt x="125" y="0" on="1"/>
        <pt x="125" y="1050" on="1"/>
        <pt x="380" y="1050" on="1"/>
        <pt x="380" y="308" on="1"/>
        <pt x="865" y="1050" on="1"/>
        <pt x="1130" y="1050" on="1"/>
        <pt x="1130" y="0" on="1"/>
      </contour>
    </TTGlyph>
    <TTGlyph name="afii10075" xMin="125" yMin="0" xMax="1130" yMax="1430">
      <component glyphName="afii10074" x="0" y="0" flags="0x200"/>
      <component glyphName="breve" x="233" y="0" flags="0x0"/>
    </TTGlyph>
    <TTGlyph name="afii10076" xMin="125" yMin="0" xMax="1174" yMax="1057">
      <contour>
        <pt x="390" y="1057" on="1"/>
        <pt x="390" y="0" on="1"/>
        <pt x="125" y="0" on="1"/>
        <pt x="125" y="1057" on="1"/>
      </contour>
      <contour>
        <pt x="870" y="0" on="1"/>
        <pt x="723" y="246" on="1"/>
        <pt x="575" y="463" on="0"/>
        <pt x="497" y="463" on="1"/>
        <pt x="497" y="646" on="1"/>
        <pt x="610" y="646" on="0"/>
        <pt x="774" y="1055" on="0"/>
        <pt x="1002" y="1055" on="1"/>
        <pt x="1109" y="1055" on="1"/>
        <pt x="1109" y="839" on="1"/>
        <pt x="1030" y="839" on="1"/>
        <pt x="932" y="839" on="0"/>
        <pt x="810" y="597" on="0"/>
        <pt x="715" y="548" on="1"/>
        <pt x="843" y="527" on="0"/>
        <pt x="1008" y="264" on="1"/>
        <pt x="1174" y="0" on="1"/>
      </contour>
    </TTGlyph>
    <TTGlyph name="afii10077" xMin="0" yMin="0" xMax="1117" yMax="1050">
      <contour>
        <pt x="0" y="210" on="1"/>
        <pt x="237" y="210" on="0"/>
        <pt x="237" y="420" on="1"/>
        <pt x="237" y="1050" on="1"/>
        <pt x="1117" y="1050" on="1"/>
        <pt x="1117" y="0" on="1"/>
        <pt x="852" y="0" on="1"/>
        <pt x="852" y="840" on="1"/>
        <pt x="502" y="840" on="1"/>
        <pt x="502" y="420" on="1"/>
        <pt x="502" y="0" on="0"/>
        <pt x="0" y="0" on="1"/>
      </contour>
    </TTGlyph>
    <TTGlyph name="afii10078" xMin="125" yMin="0" xMax="1385" yMax="1050">
      <contour>
        <pt x="125" y="0" on="1"/>
        <pt x="125" y="1050" on="1"/>
        <pt x="410" y="1050" on="1"/>
        <pt x="765" y="333" on="1"/>
        <pt x="1100" y="1050" on="1"/>
        <pt x="1385" y="1050" on="1"/>
        <pt x="1385" y="0" on="1"/>
        <pt x="1140" y="0" on="1"/>
        <pt x="1140" y="640" on="1"/>
        <pt x="832" y="0" on="1"/>
        <pt x="686" y="0" on="1"/>
        <pt x="370" y="640" on="1"/>
        <pt x="370" y="0" on="1"/>
      </contour>
    </TTGlyph>
    <TTGlyph name="afii10079" xMin="125" yMin="0" xMax="1130" yMax="1050">
      <contour>
        <pt x="125" y="0" on="1"/>
        <pt x="125" y="1050" on="1"/>
        <pt x="390" y="1050" on="1"/>
        <pt x="390" y="640" on="1"/>
        <pt x="865" y="640" on="1"/>
        <pt x="865" y="1050" on="1"/>
        <pt x="1130" y="1050" on="1"/>
        <pt x="1130" y="0" on="1"/>
        <pt x="865" y="0" on="1"/>
        <pt x="865" y="430" on="1"/>
        <pt x="390" y="430" on="1"/>
        <pt x="390" y="0" on="1"/>
      </contour>
    </TTGlyph>
    <TTGlyph name="afii10080" xMin="60" yMin="-20" xMax="1160" yMax="1070">
      <contour>
        <pt x="60" y="525" on="1"/>
        <pt x="60" y="1070" on="0"/>
        <pt x="610" y="1070" on="1"/>
        <pt x="1160" y="1070" on="0"/>
        <pt x="1160" y="525" on="1"/>
        <pt x="1160" y="-20" on="0"/>
        <pt x="610" y="-20" on="1"/>
        <pt x="62" y="-20" on="0"/>
      </contour>
      <contour>
        <pt x="325" y="190" on="0"/>
        <pt x="610" y="190" on="1"/>
        <pt x="895" y="190" on="0"/>
        <pt x="895" y="529" on="1"/>
        <pt x="895" y="860" on="0"/>
        <pt x="610" y="860" on="1"/>
        <pt x="325" y="860" on="0"/>
        <pt x="325" y="529" on="1"/>
      </contour>
    </TTGlyph>
    <TTGlyph name="afii10081" xMin="125" yMin="0" xMax="1130" yMax="1050">
      <contour>
        <pt x="125" y="0" on="1"/>
        <pt x="125" y="1050" on="1"/>
        <pt x="1130" y="1050" on="1"/>
        <pt x="1130" y="0" on="1"/>
        <pt x="865" y="0" on="1"/>
        <pt x="865" y="840" on="1"/>
        <pt x="390" y="840" on="1"/>
        <pt x="390" y="0" on="1"/>
      </contour>
    </TTGlyph>
    <TTGlyph name="afii10082" xMin="125" yMin="-380" xMax="1142" yMax="1050">
      <contour>
        <pt x="390" y="274" on="1"/>
        <pt x="499" y="220" on="0"/>
        <pt x="633" y="220" on="1"/>
        <pt x="880" y="220" on="0"/>
        <pt x="880" y="553" on="1"/>
        <pt x="880" y="836" on="0"/>
        <pt x="598" y="836" on="1"/>
        <pt x="465" y="836" on="0"/>
        <pt x="390" y="822" on="1"/>
      </contour>
      <contour>
        <pt x="125" y="1007" on="1"/>
        <pt x="334" y="1050" on="0"/>
        <pt x="587" y="1050" on="1"/>
        <pt x="1142" y="1050" on="0"/>
        <pt x="1142" y="551" on="1"/>
        <pt x="1142" y="0" on="0"/>
        <pt x="634" y="0" on="1"/>
        <pt x="508" y="0" on="0"/>
        <pt x="390" y="50" on="1"/>
        <pt x="390" y="-380" on="1"/>
        <pt x="125" y="-380" on="1"/>
      </contour>
    </TTGlyph>
    <TTGlyph name="afii10083" xMin="70" yMin="0" xMax="900" yMax="1050">
      <component glyphName="c" x="0" y="0" flags="0x200"/>
    </TTGlyph>
    <TTGlyph name="afii10084" xMin="0" yMin="0" xMax="925" yMax="1050">
      <contour>
        <pt x="925" y="1050" on="1"/>
        <pt x="925" y="840" on="1"/>
        <pt x="595" y="840" on="1"/>
        <pt x="595" y="0" on="1"/>
        <pt x="330" y="0" on="1"/>
        <pt x="330" y="840" on="1"/>
        <pt x="0" y="840" on="1"/>
        <pt x="0" y="1050" on="1"/>
      </contour>
    </TTGlyph>
    <TTGlyph name="afii10085" xMin="0" yMin="-438" xMax="1081" yMax="1050">
      <contour>
        <pt x="0" y="1050" on="1"/>
        <pt x="281" y="1050" on="1"/>
        <pt x="546" y="294" on="1"/>
        <pt x="805" y="1050" on="1"/>
        <pt x="1081" y="1050" on="1"/>
        <pt x="645" y="-31" on="1"/>
        <pt x="529" y="-317" on="0"/>
        <pt x="274" y="-438" on="1"/>
        <pt x="146" y="-257" on="1"/>
        <pt x="322" y="-180" on="0"/>
        <pt x="402" y="-6" on="1"/>
      </contour>
    </TTGlyph>
    <TTGlyph name="afii10086" xMin="60" yMin="-380" xMax="1584" yMax="1430">
      <contour>
        <pt x="690" y="-7" on="1"/>
        <pt x="60" y="27" on="0"/>
        <pt x="60" y="523" on="1"/>
        <pt x="60" y="1023" on="0"/>
        <pt x="690" y="1057" on="1"/>
        <pt x="690" y="1430" on="1"/>
        <pt x="954" y="1430" on="1"/>
        <pt x="954" y="1058" on="1"/>
        <pt x="1584" y="1027" on="0"/>
        <pt x="1584" y="523" on="1"/>
        <pt x="1584" y="23" on="0"/>
        <pt x="954" y="-8" on="1"/>
        <pt x="954" y="-380" on="1"/>
        <pt x="690" y="-380" on="1"/>
      </contour>
      <contour>
        <pt x="690" y="204" on="1"/>
        <pt x="690" y="846" on="1"/>
        <pt x="334" y="813" on="0"/>
        <pt x="334" y="529" on="1"/>
        <pt x="334" y="238" on="0"/>
      </contour>
      <contour>
        <pt x="954" y="847" on="1"/>
        <pt x="954" y="203" on="1"/>
        <pt x="1310" y="233" on="0"/>
        <pt x="1310" y="529" on="1"/>
        <pt x="1310" y="817" on="0"/>
      </contour>
    </TTGlyph>
    <TTGlyph name="afii10087" xMin="0" yMin="0" xMax="1080" yMax="1050">
      <contour>
        <pt x="393" y="525" on="1"/>
        <pt x="0" y="1050" on="1"/>
        <pt x="295" y="1050" on="1"/>
        <pt x="540" y="722" on="1"/>
        <pt x="785" y="1050" on="1"/>
        <pt x="1080" y="1050" on="1"/>
        <pt x="688" y="525" on="1"/>
        <pt x="1080" y="0" on="1"/>
        <pt x="785" y="0" on="1"/>
        <pt x="540" y="328" on="1"/>
        <pt x="295" y="0" on="1"/>
        <pt x="0" y="0" on="1"/>
      </contour>
    </TTGlyph>
    <TTGlyph name="afii10088" xMin="125" yMin="-380" xMax="1341" yMax="1050">
      <contour>
        <pt x="125" y="0" on="1"/>
        <pt x="125" y="1050" on="1"/>
        <pt x="390" y="1050" on="1"/>
        <pt x="390" y="210" on="1"/>
        <pt x="891" y="210" on="1"/>
        <pt x="891" y="1050" on="1"/>
        <pt x="1156" y="1050" on="1"/>
        <pt x="1156" y="210" on="1"/>
        <pt x="1341" y="210" on="1"/>
        <pt x="1341" y="-380" on="1"/>
        <pt x="1076" y="-380" on="1"/>
        <pt x="1076" y="0" on="1"/>
      </contour>
    </TTGlyph>
    <TTGlyph name="afii10089" xMin="100" yMin="0" xMax="1123" yMax="1050">
      <contour>
        <pt x="1123" y="1050" on="1"/>
        <pt x="1123" y="0" on="1"/>
        <pt x="858" y="0" on="1"/>
        <pt x="858" y="384" on="1"/>
        <pt x="712" y="270" on="0"/>
        <pt x="509" y="270" on="1"/>
        <pt x="100" y="270" on="0"/>
        <pt x="100" y="711" on="1"/>
        <pt x="100" y="1050" on="1"/>
        <pt x="365" y="1050" on="1"/>
        <pt x="365" y="708" on="1"/>
        <pt x="365" y="484" on="0"/>
        <pt x="534" y="484" on="1"/>
        <pt x="733" y="484" on="0"/>
        <pt x="858" y="617" on="1"/>
        <pt x="858" y="1050" on="1"/>
      </contour>
    </TTGlyph>
    <TTGlyph name="afii10090" xMin="125" yMin="0" xMax="1620" yMax="1050">
      <contour>
        <pt x="125" y="0" on="1"/>
        <pt x="125" y="1050" on="1"/>
        <pt x="390" y="1050" on="1"/>
        <pt x="390" y="210" on="1"/>
        <pt x="740" y="210" on="1"/>
        <pt x="740" y="1050" on="1"/>
        <pt x="1005" y="1050" on="1"/>
        <pt x="1005" y="210" on="1"/>
        <pt x="1355" y="210" on="1"/>
        <pt x="1355" y="1050" on="1"/>
        <pt x="1620" y="1050" on="1"/>
        <pt x="1620" y="0" on="1"/>
      </contour>
    </TTGlyph>
    <TTGlyph name="afii10091" xMin="125" yMin="-380" xMax="1805" yMax="1050">
      <contour>
        <pt x="125" y="0" on="1"/>
        <pt x="125" y="1050" on="1"/>
        <pt x="390" y="1050" on="1"/>
        <pt x="390" y="210" on="1"/>
        <pt x="740" y="210" on="1"/>
        <pt x="740" y="1050" on="1"/>
        <pt x="1005" y="1050" on="1"/>
        <pt x="1005" y="210" on="1"/>
        <pt x="1355" y="210" on="1"/>
        <pt x="1355" y="1050" on="1"/>
        <pt x="1620" y="1050" on="1"/>
        <pt x="1620" y="210" on="1"/>
        <pt x="1805" y="210" on="1"/>
        <pt x="1805" y="-380" on="1"/>
        <pt x="1540" y="-380" on="1"/>
        <pt x="1540" y="0" on="1"/>
      </contour>
    </TTGlyph>
    <TTGlyph name="afii10092" xMin="0" yMin="0" xMax="1252" yMax="1050">
      <contour>
        <pt x="569" y="1050" on="1"/>
        <pt x="569" y="213" on="1"/>
        <pt x="867" y="213" on="1"/>
        <pt x="985" y="213" on="0"/>
        <pt x="985" y="322" on="1"/>
        <pt x="985" y="399" on="0"/>
        <pt x="883" y="399" on="1"/>
        <pt x="705" y="399" on="1"/>
        <pt x="705" y="609" on="1"/>
        <pt x="893" y="609" on="1"/>
        <pt x="1252" y="609" on="0"/>
        <pt x="1252" y="313" on="1"/>
        <pt x="1252" y="0" on="0"/>
        <pt x="884" y="0" on="1"/>
        <pt x="304" y="0" on="1"/>
        <pt x="304" y="840" on="1"/>
        <pt x="0" y="840" on="1"/>
        <pt x="0" y="1050" on="1"/>
      </contour>
    </TTGlyph>
    <TTGlyph name="afii10093" xMin="125" yMin="0" xMax="1415" yMax="1050">
      <contour>
        <pt x="1150" y="0" on="1"/>
        <pt x="1150" y="1050" on="1"/>
        <pt x="1415" y="1050" on="1"/>
        <pt x="1415" y="0" on="1"/>
      </contour>
      <contour>
        <pt x="390" y="1050" on="1"/>
        <pt x="390" y="213" on="1"/>
        <pt x="708" y="213" on="1"/>
        <pt x="806" y="213" on="0"/>
        <pt x="806" y="322" on="1"/>
        <pt x="806" y="399" on="0"/>
        <pt x="704" y="399" on="1"/>
        <pt x="526" y="399" on="1"/>
        <pt x="526" y="609" on="1"/>
        <pt x="713" y="609" on="1"/>
        <pt x="1073" y="609" on="0"/>
        <pt x="1073" y="313" on="1"/>
        <pt x="1073" y="0" on="0"/>
        <pt x="725" y="0" on="1"/>
        <pt x="125" y="0" on="1"/>
        <pt x="125" y="1050" on="1"/>
      </contour>
    </TTGlyph>
    <TTGlyph name="afii10094" xMin="125" yMin="0" xMax="1073" yMax="1050">
      <contour>
        <pt x="390" y="1050" on="1"/>
        <pt x="390" y="213" on="1"/>
        <pt x="708" y="213" on="1"/>
        <pt x="806" y="213" on="0"/>
        <pt x="806" y="322" on="1"/>
        <pt x="806" y="399" on="0"/>
        <pt x="704" y="399" on="1"/>
        <pt x="526" y="399" on="1"/>
        <pt x="526" y="609" on="1"/>
        <pt x="713" y="609" on="1"/>
        <pt x="1073" y="609" on="0"/>
        <pt x="1073" y="313" on="1"/>
        <pt x="1073" y="0" on="0"/>
        <pt x="725" y="0" on="1"/>
        <pt x="125" y="0" on="1"/>
        <pt x="125" y="1050" on="1"/>
      </contour>
    </TTGlyph>
    <TTGlyph name="afii10095" xMin="35" yMin="0" xMax="885" yMax="1050">
      <contour>
        <pt x="35" y="240" on="1"/>
        <pt x="165" y="210" on="0"/>
        <pt x="295" y="210" on="1"/>
        <pt x="574" y="210" on="0"/>
        <pt x="605" y="431" on="1"/>
        <pt x="99" y="431" on="1"/>
        <pt x="99" y="641" on="1"/>
        <pt x="606" y="641" on="1"/>
        <pt x="580" y="840" on="0"/>
        <pt x="295" y="840" on="1"/>
        <pt x="165" y="840" on="0"/>
        <pt x="35" y="810" on="1"/>
        <pt x="35" y="1020" on="1"/>
        <pt x="165" y="1050" on="0"/>
        <pt x="315" y="1050" on="1"/>
        <pt x="885" y="1050" on="0"/>
        <pt x="885" y="545" on="1"/>
        <pt x="885" y="0" on="0"/>
        <pt x="315" y="0" on="1"/>
        <pt x="165" y="0" on="0"/>
        <pt x="35" y="30" on="1"/>
      </contour>
    </TTGlyph>
    <TTGlyph name="afii10096" xMin="125" yMin="-10" xMax="1577" yMax="1060">
      <contour>
        <pt x="1090" y="200" on="1"/>
        <pt x="1302" y="200" on="0"/>
        <pt x="1302" y="529" on="1"/>
        <pt x="1302" y="850" on="0"/>
        <pt x="1090" y="850" on="1"/>
        <pt x="867" y="850" on="0"/>
        <pt x="867" y="529" on="1"/>
        <pt x="867" y="200" on="0"/>
      </contour>
      <contour>
        <pt x="125" y="0" on="1"/>
        <pt x="125" y="1050" on="1"/>
        <pt x="389" y="1050" on="1"/>
        <pt x="389" y="640" on="1"/>
        <pt x="595" y="640" on="1"/>
        <pt x="632" y="1060" on="0"/>
        <pt x="1090" y="1060" on="1"/>
        <pt x="1577" y="1060" on="0"/>
        <pt x="1577" y="523" on="1"/>
        <pt x="1577" y="-10" on="0"/>
        <pt x="1090" y="-10" on="1"/>
        <pt x="621" y="-10" on="0"/>
        <pt x="594" y="430" on="1"/>
        <pt x="389" y="430" on="1"/>
        <pt x="389" y="0" on="1"/>
      </contour>
    </TTGlyph>
    <TTGlyph name="afii10097" xMin="25" yMin="0" xMax="995" yMax="1050">
      <contour>
        <pt x="730" y="0" on="1"/>
        <pt x="730" y="837" on="1"/>
        <pt x="477" y="837" on="1"/>
        <pt x="394" y="837" on="0"/>
        <pt x="394" y="749" on="1"/>
        <pt x="394" y="619" on="0"/>
        <pt x="614" y="574" on="1"/>
        <pt x="614" y="433" on="1"/>
        <pt x="331" y="0" on="1"/>
        <pt x="25" y="0" on="1"/>
        <pt x="346" y="449" on="1"/>
        <pt x="117" y="566" on="0"/>
        <pt x="117" y="757" on="1"/>
        <pt x="117" y="1050" on="0"/>
        <pt x="455" y="1050" on="1"/>
        <pt x="995" y="1050" on="1"/>
        <pt x="995" y="0" on="1"/>
      </contour>
    </TTGlyph>
    <TTGlyph name="agrave" xMin="75" yMin="0" xMax="1010" yMax="1430">
      <component glyphName="a" x="0" y="0" flags="0x200"/>
      <component glyphName="grave" x="154" y="0" flags="0x0"/>
    </TTGlyph>
    <TTGlyph name="alpha" xMin="60" yMin="0" xMax="1329" yMax="1050">
      <contour>
        <pt x="60" y="525" on="1"/>
        <pt x="60" y="1050" on="0"/>
        <pt x="550" y="1050" on="1"/>
        <pt x="861" y="1050" on="0"/>
        <pt x="974" y="786" on="1"/>
        <pt x="1062" y="1050" on="1"/>
        <pt x="1329" y="1050" on="1"/>
        <pt x="1151" y="522" on="1"/>
        <pt x="1315" y="0" on="1"/>
        <pt x="1045" y="0" on="1"/>
        <pt x="959" y="290" on="1"/>
        <pt x="833" y="0" on="0"/>
        <pt x="550" y="0" on="1"/>
        <pt x="62" y="0" on="0"/>
      </contour>
      <contour>
        <pt x="325" y="210" on="0"/>
        <pt x="550" y="210" on="1"/>
        <pt x="745" y="210" on="0"/>
        <pt x="855" y="529" on="1"/>
        <pt x="745" y="840" on="0"/>
        <pt x="550" y="840" on="1"/>
        <pt x="325" y="840" on="0"/>
        <pt x="325" y="529" on="1"/>
      </contour>
    </TTGlyph>
    <TTGlyph name="alphatonos" xMin="60" yMin="0" xMax="1329" yMax="1430">
      <component glyphName="alpha" x="0" y="0" flags="0x200"/>
      <component glyphName="tonos" x="440" y="0" flags="0x0"/>
    </TTGlyph>
    <TTGlyph name="amacron" xMin="75" yMin="0" xMax="1010" yMax="1430">
      <component glyphName="a" x="0" y="0" flags="0x200"/>
      <component glyphName="macron" x="233" y="0" flags="0x0"/>
    </TTGlyph>
    <TTGlyph name="ampersand" xMin="100" yMin="-3" xMax="1335" yMax="1430">
      <contour>
        <pt x="100" y="1035" on="1"/>
        <pt x="100" y="1430" on="0"/>
        <pt x="610" y="1430" on="1"/>
        <pt x="795" y="1430" on="0"/>
        <pt x="970" y="1380" on="1"/>
        <pt x="970" y="1170" on="1"/>
        <pt x="795" y="1220" on="0"/>
        <pt x="623" y="1220" on="1"/>
        <pt x="365" y="1220" on="0"/>
        <pt x="365" y="1040" on="1"/>
        <pt x="365" y="830" on="0"/>
        <pt x="570" y="830" on="1"/>
        <pt x="908" y="830" on="1"/>
        <pt x="908" y="972" on="1"/>
        <pt x="1051" y="972" on="1"/>
        <pt x="1153" y="830" on="1"/>
        <pt x="1335" y="830" on="1"/>
        <pt x="1335" y="620" on="1"/>
        <pt x="1173" y="620" on="1"/>
        <pt x="1173" y="490" on="1"/>
        <pt x="1173" y="-3" on="0"/>
        <pt x="625" y="-3" on="1"/>
        <pt x="100" y="-3" on="0"/>
        <pt x="100" y="414" on="1"/>
        <pt x="100" y="641" on="0"/>
        <pt x="283" y="727" on="1"/>
        <pt x="100" y="812" on="0"/>
      </contour>
      <contour>
        <pt x="572" y="620" on="1"/>
        <pt x="365" y="620" on="0"/>
        <pt x="365" y="419" on="1"/>
        <pt x="365" y="210" on="0"/>
        <pt x="626" y="210" on="1"/>
        <pt x="908" y="210" on="0"/>
        <pt x="908" y="492" on="1"/>
        <pt x="908" y="620" on="1"/>
      </contour>
    </TTGlyph>
    <TTGlyph name="anoteleia" xMin="100" yMin="805" xMax="365" yMax="1050">
      <contour>
        <pt x="365" y="1050" on="1"/>
        <pt x="365" y="805" on="1"/>
        <pt x="100" y="805" on="1"/>
        <pt x="100" y="1050" on="1"/>
      </contour>
    </TTGlyph>
    <TTGlyph name="aogonek" xMin="75" yMin="-426" xMax="1010" yMax="1050">
      <contour>
        <pt x="531" y="460" on="1"/>
        <pt x="340" y="460" on="0"/>
        <pt x="340" y="330" on="1"/>
        <pt x="340" y="190" on="0"/>
        <pt x="500" y="190" on="1"/>
        <pt x="632" y="190" on="0"/>
        <pt x="745" y="272" on="1"/>
        <pt x="745" y="440" on="1"/>
        <pt x="645" y="460" on="0"/>
      </contour>
      <contour>
        <pt x="745" y="0" on="1"/>
        <pt x="745" y="94" on="1"/>
        <pt x="625" y="0" on="0"/>
        <pt x="460" y="0" on="1"/>
        <pt x="75" y="0" on="0"/>
        <pt x="75" y="327" on="1"/>
        <pt x="75" y="640" on="0"/>
        <pt x="531" y="640" on="1"/>
        <pt x="638" y="640" on="0"/>
        <pt x="745" y="620" on="1"/>
        <pt x="745" y="699" on="1"/>
        <pt x="745" y="840" on="0"/>
        <pt x="542" y="840" on="1"/>
        <pt x="370" y="840" on="0"/>
        <pt x="160" y="790" on="1"/>
        <pt x="160" y="1000" on="1"/>
        <pt x="370" y="1050" on="0"/>
        <pt x="542" y="1050" on="1"/>
        <pt x="1010" y="1050" on="0"/>
        <pt x="1010" y="704" on="1"/>
        <pt x="1010" y="0" on="1"/>
        <pt x="772" y="-96" on="0"/>
        <pt x="772" y="-198" on="1"/>
        <pt x="772" y="-266" on="0"/>
        <pt x="857" y="-266" on="1"/>
        <pt x="942" y="-266" on="0"/>
        <pt x="994" y="-246" on="1"/>
        <pt x="994" y="-406" on="1"/>
        <pt x="933" y="-426" on="0"/>
        <pt x="845" y="-426" on="1"/>
        <pt x="584" y="-426" on="0"/>
        <pt x="584" y="-223" on="1"/>
        <pt x="584" y="-92" on="0"/>
      </contour>
    </TTGlyph>
    <TTGlyph name="approxequal" xMin="100" yMin="200" xMax="950" yMax="850">
      <contour>
        <pt x="950" y="460" on="1"/>
        <pt x="950" y="250" on="1"/>
        <pt x="839" y="200" on="0"/>
        <pt x="730" y="200" on="1"/>
        <pt x="621" y="200" on="0"/>
        <pt x="515" y="250" on="1"/>
        <pt x="409" y="300" on="0"/>
        <pt x="305" y="300" on="1"/>
        <pt x="202" y="300" on="0"/>
        <pt x="100" y="250" on="1"/>
        <pt x="100" y="460" on="1"/>
        <pt x="212" y="510" on="0"/>
        <pt x="320" y="510" on="1"/>
        <pt x="429" y="510" on="0"/>
        <pt x="535" y="460" on="1"/>
        <pt x="641" y="410" on="0"/>
        <pt x="745" y="410" on="1"/>
        <pt x="849" y="410" on="0"/>
      </contour>
      <contour>
        <pt x="950" y="800" on="1"/>
        <pt x="950" y="590" on="1"/>
        <pt x="839" y="540" on="0"/>
        <pt x="730" y="540" on="1"/>
        <pt x="621" y="540" on="0"/>
        <pt x="515" y="590" on="1"/>
        <pt x="409" y="640" on="0"/>
        <pt x="305" y="640" on="1"/>
        <pt x="202" y="640" on="0"/>
        <pt x="100" y="590" on="1"/>
        <pt x="100" y="800" on="1"/>
        <pt x="212" y="850" on="0"/>
        <pt x="320" y="850" on="1"/>
        <pt x="429" y="850" on="0"/>
        <pt x="535" y="800" on="1"/>
        <pt x="641" y="750" on="0"/>
        <pt x="745" y="750" on="1"/>
        <pt x="849" y="750" on="0"/>
      </contour>
    </TTGlyph>
    <TTGlyph name="aring" xMin="75" yMin="0" xMax="1010" yMax="1571">
      <component glyphName="a" x="0" y="0" flags="0x200"/>
      <component glyphName="ring" x="232" y="0" flags="0x0"/>
    </TTGlyph>
    <TTGlyph name="asciicircum" xMin="50" yMin="700" xMax="1000" yMax="1430">
      <contour>
        <pt x="450" y="1430" on="1"/>
        <pt x="600" y="1430" on="1"/>
        <pt x="1000" y="700" on="1"/>
        <pt x="770" y="700" on="1"/>
        <pt x="521" y="1173" on="1"/>
        <pt x="280" y="700" on="1"/>
        <pt x="50" y="700" on="1"/>
      </contour>
    </TTGlyph>
    <TTGlyph name="asciitilde" xMin="100" yMin="380" xMax="850" yMax="671">
      <contour>
        <pt x="100" y="610" on="1"/>
        <pt x="158" y="671" on="0"/>
        <pt x="262" y="671" on="1"/>
        <pt x="348" y="671" on="0"/>
        <pt x="465" y="630" on="1"/>
        <pt x="582" y="590" on="0"/>
        <pt x="672" y="590" on="1"/>
        <pt x="781" y="590" on="0"/>
        <pt x="850" y="650" on="1"/>
        <pt x="850" y="440" on="1"/>
        <pt x="792" y="380" on="0"/>
        <pt x="688" y="380" on="1"/>
        <pt x="602" y="380" on="0"/>
        <pt x="485" y="420" on="1"/>
        <pt x="368" y="461" on="0"/>
        <pt x="278" y="461" on="1"/>
        <pt x="169" y="461" on="0"/>
        <pt x="100" y="400" on="1"/>
      </contour>
    </TTGlyph>
    <TTGlyph name="asterisk" xMin="100" yMin="847" xMax="711" yMax="1430">
      <contour>
        <pt x="328" y="1430" on="1"/>
        <pt x="484" y="1430" on="1"/>
        <pt x="454" y="1198" on="1"/>
        <pt x="663" y="1299" on="1"/>
        <pt x="711" y="1152" on="1"/>
        <pt x="483" y="1109" on="1"/>
        <pt x="642" y="939" on="1"/>
        <pt x="519" y="847" on="1"/>
        <pt x="406" y="1052" on="1"/>
        <pt x="293" y="848" on="1"/>
        <pt x="169" y="937" on="1"/>
        <pt x="330" y="1108" on="1"/>
        <pt x="100" y="1150" on="1"/>
        <pt x="148" y="1300" on="1"/>
        <pt x="359" y="1197" on="1"/>
      </contour>
    </TTGlyph>
    <TTGlyph name="at" xMin="100" yMin="-380" xMax="2030" yMax="1440">
      <contour>
        <pt x="1540" y="118" on="1"/>
        <pt x="1540" y="60" on="0"/>
        <pt x="1620" y="60" on="1"/>
        <pt x="1765" y="60" on="0"/>
        <pt x="1765" y="540" on="1"/>
        <pt x="1765" y="1230" on="0"/>
        <pt x="1079" y="1230" on="1"/>
        <pt x="365" y="1230" on="0"/>
        <pt x="365" y="540" on="1"/>
        <pt x="365" y="-170" on="0"/>
        <pt x="1010" y="-170" on="1"/>
        <pt x="1010" y="-380" on="1"/>
        <pt x="100" y="-380" on="0"/>
        <pt x="100" y="540" on="1"/>
        <pt x="100" y="1440" on="0"/>
        <pt x="1064" y="1440" on="1"/>
        <pt x="2030" y="1440" on="0"/>
        <pt x="2030" y="540" on="1"/>
        <pt x="2030" y="-150" on="0"/>
        <pt x="1583" y="-150" on="1"/>
        <pt x="1302" y="-150" on="0"/>
        <pt x="1292" y="94" on="1"/>
        <pt x="1155" y="0" on="0"/>
        <pt x="990" y="0" on="1"/>
        <pt x="605" y="0" on="0"/>
        <pt x="605" y="327" on="1"/>
        <pt x="605" y="640" on="0"/>
        <pt x="1061" y="640" on="1"/>
        <pt x="1168" y="640" on="0"/>
        <pt x="1275" y="620" on="1"/>
        <pt x="1275" y="699" on="1"/>
        <pt x="1275" y="840" on="0"/>
        <pt x="1072" y="840" on="1"/>
        <pt x="900" y="840" on="0"/>
        <pt x="690" y="790" on="1"/>
        <pt x="690" y="1000" on="1"/>
        <pt x="900" y="1050" on="0"/>
        <pt x="1072" y="1050" on="1"/>
        <pt x="1540" y="1050" on="0"/>
        <pt x="1540" y="704" on="1"/>
      </contour>
      <contour>
        <pt x="1175" y="460" on="0"/>
        <pt x="1061" y="460" on="1"/>
        <pt x="870" y="460" on="0"/>
        <pt x="870" y="330" on="1"/>
        <pt x="870" y="190" on="0"/>
        <pt x="1030" y="190" on="1"/>
        <pt x="1162" y="190" on="0"/>
        <pt x="1275" y="272" on="1"/>
        <pt x="1275" y="440" on="1"/>
      </contour>
    </TTGlyph>
    <TTGlyph name="atilde" xMin="75" yMin="0" xMax="1010" yMax="1430">
      <component glyphName="a" x="0" y="0" flags="0x200"/>
      <component glyphName="tilde" x="213" y="0" flags="0x0"/>
    </TTGlyph>
    <TTGlyph name="b" xMin="125" yMin="0" xMax="1103" yMax="1430">
      <contour>
        <pt x="390" y="243" on="1"/>
        <pt x="481" y="214" on="0"/>
        <pt x="601" y="214" on="1"/>
        <pt x="841" y="214" on="0"/>
        <pt x="841" y="553" on="1"/>
        <pt x="841" y="830" on="0"/>
        <pt x="634" y="830" on="1"/>
        <pt x="500" y="830" on="0"/>
        <pt x="390" y="776" on="1"/>
      </contour>
      <contour>
        <pt x="125" y="1430" on="1"/>
        <pt x="390" y="1430" on="1"/>
        <pt x="390" y="970" on="1"/>
        <pt x="509" y="1050" on="0"/>
        <pt x="655" y="1050" on="1"/>
        <pt x="1103" y="1050" on="0"/>
        <pt x="1103" y="546" on="1"/>
        <pt x="1103" y="0" on="0"/>
        <pt x="590" y="0" on="1"/>
        <pt x="374" y="0" on="0"/>
        <pt x="125" y="43" on="1"/>
      </contour>
    </TTGlyph>
    <TTGlyph name="backslash" xMin="25" yMin="0" xMax="1035" yMax="1430">
      <contour>
        <pt x="25" y="1430" on="1"/>
        <pt x="310" y="1430" on="1"/>
        <pt x="1035" y="0" on="1"/>
        <pt x="750" y="0" on="1"/>
      </contour>
    </TTGlyph>
    <TTGlyph name="bar" xMin="150" yMin="-380" xMax="415" yMax="1430">
      <contour>
        <pt x="415" y="1430" on="1"/>
        <pt x="415" y="-380" on="1"/>
        <pt x="150" y="-380" on="1"/>
        <pt x="150" y="1430" on="1"/>
      </contour>
    </TTGlyph>
    <TTGlyph name="beta" xMin="125" yMin="-362" xMax="1216" yMax="1430">
      <contour>
        <pt x="125" y="-362" on="1"/>
        <pt x="125" y="871" on="1"/>
        <pt x="125" y="1430" on="0"/>
        <pt x="699" y="1430" on="1"/>
        <pt x="1149" y="1430" on="0"/>
        <pt x="1149" y="1054" on="1"/>
        <pt x="1149" y="822" on="0"/>
        <pt x="818" y="759" on="1"/>
        <pt x="1216" y="722" on="0"/>
        <pt x="1216" y="381" on="1"/>
        <pt x="1216" y="-2" on="0"/>
        <pt x="722" y="-2" on="1"/>
        <pt x="586" y="-2" on="0"/>
        <pt x="480" y="58" on="1"/>
        <pt x="480" y="268" on="1"/>
        <pt x="587" y="208" on="0"/>
        <pt x="724" y="208" on="1"/>
        <pt x="951" y="208" on="0"/>
        <pt x="951" y="381" on="1"/>
        <pt x="951" y="649" on="0"/>
        <pt x="580" y="650" on="1"/>
        <pt x="580" y="828" on="1"/>
        <pt x="898" y="882" on="0"/>
        <pt x="898" y="1054" on="1"/>
        <pt x="898" y="1220" on="0"/>
        <pt x="682" y="1220" on="1"/>
        <pt x="390" y="1220" on="0"/>
        <pt x="390" y="868" on="1"/>
        <pt x="390" y="-362" on="1"/>
      </contour>
    </TTGlyph>
    <TTGlyph name="braceleft" xMin="100" yMin="-380" xMax="705" yMax="1430">
      <contour>
        <pt x="705" y="1430" on="1"/>
        <pt x="575" y="1254" on="0"/>
        <pt x="575" y="952" on="1"/>
        <pt x="575" y="600" on="0"/>
        <pt x="325" y="525" on="1"/>
        <pt x="575" y="450" on="0"/>
        <pt x="575" y="98" on="1"/>
        <pt x="575" y="-204" on="0"/>
        <pt x="705" y="-380" on="1"/>
        <pt x="440" y="-380" on="1"/>
        <pt x="310" y="-204" on="0"/>
        <pt x="310" y="98" on="1"/>
        <pt x="310" y="410" on="0"/>
        <pt x="100" y="410" on="1"/>
        <pt x="100" y="640" on="1"/>
        <pt x="310" y="640" on="0"/>
        <pt x="310" y="952" on="1"/>
        <pt x="310" y="1254" on="0"/>
        <pt x="440" y="1430" on="1"/>
      </contour>
    </TTGlyph>
    <TTGlyph name="braceright" xMin="50" yMin="-380" xMax="655" yMax="1430">
      <contour>
        <pt x="315" y="1430" on="1"/>
        <pt x="445" y="1254" on="0"/>
        <pt x="445" y="952" on="1"/>
        <pt x="445" y="640" on="0"/>
        <pt x="655" y="640" on="1"/>
        <pt x="655" y="410" on="1"/>
        <pt x="445" y="410" on="0"/>
        <pt x="445" y="98" on="1"/>
        <pt x="445" y="-204" on="0"/>
        <pt x="315" y="-380" on="1"/>
        <pt x="50" y="-380" on="1"/>
        <pt x="180" y="-204" on="0"/>
        <pt x="180" y="98" on="1"/>
        <pt x="180" y="450" on="0"/>
        <pt x="350" y="525" on="1"/>
        <pt x="180" y="600" on="0"/>
        <pt x="180" y="952" on="1"/>
        <pt x="180" y="1254" on="0"/>
        <pt x="50" y="1430" on="1"/>
      </contour>
    </TTGlyph>
    <TTGlyph name="bracketleft" xMin="100" yMin="-380" xMax="630" yMax="1430">
      <contour>
        <pt x="630" y="1430" on="1"/>
        <pt x="630" y="1220" on="1"/>
        <pt x="365" y="1220" on="1"/>
        <pt x="365" y="-170" on="1"/>
        <pt x="630" y="-170" on="1"/>
        <pt x="630" y="-380" on="1"/>
        <pt x="100" y="-380" on="1"/>
        <pt x="100" y="1430" on="1"/>
      </contour>
    </TTGlyph>
    <TTGlyph name="bracketright" xMin="50" yMin="-380" xMax="580" yMax="1430">
      <contour>
        <pt x="580" y="1430" on="1"/>
        <pt x="580" y="-380" on="1"/>
        <pt x="50" y="-380" on="1"/>
        <pt x="50" y="-170" on="1"/>
        <pt x="315" y="-170" on="1"/>
        <pt x="315" y="1220" on="1"/>
        <pt x="50" y="1220" on="1"/>
        <pt x="50" y="1430" on="1"/>
      </contour>
    </TTGlyph>
    <TTGlyph name="breve" xMin="100" yMin="1140" xMax="690" yMax="1430">
      <contour>
        <pt x="100" y="1430" on="1"/>
        <pt x="275" y="1430" on="1"/>
        <pt x="275" y="1290" on="0"/>
        <pt x="395" y="1290" on="1"/>
        <pt x="515" y="1290" on="0"/>
        <pt x="515" y="1430" on="1"/>
        <pt x="690" y="1430" on="1"/>
        <pt x="690" y="1140" on="0"/>
        <pt x="395" y="1140" on="1"/>
        <pt x="100" y="1140" on="0"/>
      </contour>
    </TTGlyph>
    <TTGlyph name="brokenbar" xMin="150" yMin="-380" xMax="415" yMax="1430">
      <contour>
        <pt x="415" y="350" on="1"/>
        <pt x="415" y="-380" on="1"/>
        <pt x="150" y="-380" on="1"/>
        <pt x="150" y="350" on="1"/>
      </contour>
      <contour>
        <pt x="414" y="1430" on="1"/>
        <pt x="414" y="700" on="1"/>
        <pt x="150" y="700" on="1"/>
        <pt x="150" y="1430" on="1"/>
      </contour>
    </TTGlyph>
    <TTGlyph name="bullet" xMin="100" yMin="510" xMax="530" yMax="940">
      <contour>
        <pt x="100" y="725" on="1"/>
        <pt x="100" y="940" on="0"/>
        <pt x="315" y="940" on="1"/>
        <pt x="530" y="940" on="0"/>
        <pt x="530" y="725" on="1"/>
        <pt x="530" y="510" on="0"/>
        <pt x="315" y="510" on="1"/>
        <pt x="100" y="510" on="0"/>
      </contour>
    </TTGlyph>
    <TTGlyph name="c" xMin="70" yMin="0" xMax="900" yMax="1050">
      <contour>
        <pt x="900" y="30" on="1"/>
        <pt x="770" y="0" on="0"/>
        <pt x="630" y="0" on="1"/>
        <pt x="70" y="0" on="0"/>
        <pt x="70" y="545" on="1"/>
        <pt x="70" y="1050" on="0"/>
        <pt x="630" y="1050" on="1"/>
        <pt x="770" y="1050" on="0"/>
        <pt x="900" y="1020" on="1"/>
        <pt x="900" y="810" on="1"/>
        <pt x="770" y="840" on="0"/>
        <pt x="650" y="840" on="1"/>
        <pt x="335" y="840" on="0"/>
        <pt x="335" y="545" on="1"/>
        <pt x="335" y="210" on="0"/>
        <pt x="650" y="210" on="1"/>
        <pt x="770" y="210" on="0"/>
        <pt x="900" y="240" on="1"/>
      </contour>
    </TTGlyph>
    <TTGlyph name="cacute" xMin="60" yMin="0" xMax="890" yMax="1430">
      <component glyphName="c" x="-10" y="0" flags="0x200"/>
      <component glyphName="acute" x="241" y="0" flags="0x0"/>
    </TTGlyph>
    <TTGlyph name="caron" xMin="100" yMin="1170" xMax="600" yMax="1430">
      <contour>
        <pt x="100" y="1430" on="1"/>
        <pt x="280" y="1430" on="1"/>
        <pt x="350" y="1300" on="1"/>
        <pt x="420" y="1430" on="1"/>
        <pt x="600" y="1430" on="1"/>
        <pt x="425" y="1170" on="1"/>
        <pt x="275" y="1170" on="1"/>
      </contour>
    </TTGlyph>
    <TTGlyph name="ccaron" xMin="70" yMin="0" xMax="900" yMax="1430">
      <component glyphName="c" x="0" y="0" flags="0x200"/>
      <component glyphName="caron" x="205" y="0" flags="0x0"/>
    </TTGlyph>
    <TTGlyph name="ccedilla" xMin="70" yMin="-422" xMax="900" yMax="1050">
      <contour>
        <pt x="453" y="16" on="1"/>
        <pt x="70" y="95" on="0"/>
        <pt x="70" y="545" on="1"/>
        <pt x="70" y="1050" on="0"/>
        <pt x="630" y="1050" on="1"/>
        <pt x="770" y="1050" on="0"/>
        <pt x="900" y="1020" on="1"/>
        <pt x="900" y="810" on="1"/>
        <pt x="770" y="840" on="0"/>
        <pt x="650" y="840" on="1"/>
        <pt x="335" y="840" on="0"/>
        <pt x="335" y="545" on="1"/>
        <pt x="335" y="210" on="0"/>
        <pt x="650" y="210" on="1"/>
        <pt x="770" y="210" on="0"/>
        <pt x="900" y="240" on="1"/>
        <pt x="900" y="30" on="1"/>
        <pt x="770" y="0" on="0"/>
        <pt x="630" y="0" on="1"/>
        <pt x="606" y="0" on="1"/>
        <pt x="565" y="-77" on="1"/>
        <pt x="779" y="-77" on="0"/>
        <pt x="779" y="-239" on="1"/>
        <pt x="779" y="-422" on="0"/>
        <pt x="508" y="-422" on="1"/>
        <pt x="400" y="-422" on="0"/>
        <pt x="292" y="-372" on="1"/>
        <pt x="292" y="-244" on="1"/>
        <pt x="400" y="-294" on="0"/>
        <pt x="508" y="-294" on="1"/>
        <pt x="616" y="-294" on="0"/>
        <pt x="616" y="-239" on="1"/>
        <pt x="616" y="-195" on="0"/>
        <pt x="533" y="-195" on="1"/>
        <pt x="350" y="-195" on="1"/>
      </contour>
    </TTGlyph>
    <TTGlyph name="ccircumflex" xMin="70" yMin="0" xMax="900" yMax="1430">
      <component glyphName="c" x="0" y="0" flags="0x200"/>
      <component glyphName="circumflex" x="205" y="0" flags="0x0"/>
    </TTGlyph>
    <TTGlyph name="cdotaccent" xMin="70" yMin="0" xMax="900" yMax="1430">
      <component glyphName="c" x="0" y="0" flags="0x200"/>
      <component glyphName="dotaccent" x="338" y="0" flags="0x0"/>
    </TTGlyph>
    <TTGlyph name="cedilla" xMin="100" yMin="-422" xMax="587" yMax="75">
      <contour>
        <pt x="100" y="-244" on="1"/>
        <pt x="208" y="-294" on="0"/>
        <pt x="316" y="-294" on="1"/>
        <pt x="424" y="-294" on="0"/>
        <pt x="424" y="-239" on="1"/>
        <pt x="424" y="-195" on="0"/>
        <pt x="341" y="-195" on="1"/>
        <pt x="158" y="-195" on="1"/>
        <pt x="289" y="75" on="1"/>
        <pt x="454" y="75" on="1"/>
        <pt x="373" y="-77" on="1"/>
        <pt x="587" y="-77" on="0"/>
        <pt x="587" y="-239" on="1"/>
        <pt x="587" y="-422" on="0"/>
        <pt x="316" y="-422" on="1"/>
        <pt x="208" y="-422" on="0"/>
        <pt x="100" y="-372" on="1"/>
      </contour>
    </TTGlyph>
    <TTGlyph name="cent" xMin="60" yMin="0" xMax="930" yMax="1430">
      <contour>
        <pt x="490" y="1230" on="1"/>
        <pt x="490" y="1430" on="1"/>
        <pt x="745" y="1430" on="1"/>
        <pt x="745" y="1237" on="1"/>
        <pt x="844" y="1230" on="0"/>
        <pt x="930" y="1210" on="1"/>
        <pt x="930" y="1000" on="1"/>
        <pt x="800" y="1030" on="0"/>
        <pt x="660" y="1030" on="1"/>
        <pt x="325" y="1030" on="0"/>
        <pt x="325" y="735" on="1"/>
        <pt x="325" y="400" on="0"/>
        <pt x="660" y="400" on="1"/>
        <pt x="800" y="400" on="0"/>
        <pt x="930" y="430" on="1"/>
        <pt x="930" y="220" on="1"/>
        <pt x="844" y="200" on="0"/>
        <pt x="745" y="193" on="1"/>
        <pt x="745" y="0" on="1"/>
        <pt x="490" y="0" on="1"/>
        <pt x="490" y="201" on="1"/>
        <pt x="60" y="266" on="0"/>
        <pt x="60" y="735" on="1"/>
        <pt x="60" y="1170" on="0"/>
      </contour>
    </TTGlyph>
    <TTGlyph name="chi" xMin="25" yMin="-380" xMax="1155" yMax="1050">
      <contour>
        <pt x="448" y="335" on="1"/>
        <pt x="25" y="1050" on="1"/>
        <pt x="310" y="1050" on="1"/>
        <pt x="590" y="556" on="1"/>
        <pt x="870" y="1050" on="1"/>
        <pt x="1145" y="1050" on="1"/>
        <pt x="728" y="343" on="1"/>
        <pt x="1155" y="-380" on="1"/>
        <pt x="870" y="-380" on="1"/>
        <pt x="585" y="122" on="1"/>
        <pt x="300" y="-380" on="1"/>
        <pt x="25" y="-380" on="1"/>
      </contour>
    </TTGlyph>
    <TTGlyph name="circumflex" xMin="100" yMin="1170" xMax="600" yMax="1430">
      <contour>
        <pt x="275" y="1430" on="1"/>
        <pt x="425" y="1430" on="1"/>
        <pt x="600" y="1170" on="1"/>
        <pt x="420" y="1170" on="1"/>
        <pt x="350" y="1300" on="1"/>
        <pt x="280" y="1170" on="1"/>
        <pt x="100" y="1170" on="1"/>
      </contour>
    </TTGlyph>
    <TTGlyph name="colon" xMin="125" yMin="0" xMax="390" yMax="1050">
      <contour>
        <pt x="390" y="1050" on="1"/>
        <pt x="390" y="805" on="1"/>
        <pt x="125" y="805" on="1"/>
        <pt x="125" y="1050" on="1"/>
      </contour>
      <contour>
        <pt x="390" y="245" on="1"/>
        <pt x="390" y="0" on="1"/>
        <pt x="125" y="0" on="1"/>
        <pt x="125" y="245" on="1"/>
      </contour>
    </TTGlyph>
    <TTGlyph name="comma" xMin="25" yMin="-250" xMax="440" yMax="185">
      <contour>
        <pt x="440" y="185" on="1"/>
        <pt x="290" y="-250" on="1"/>
        <pt x="25" y="-250" on="1"/>
        <pt x="175" y="185" on="1"/>
      </contour>
    </TTGlyph>
    <TTGlyph name="commaccent" xMin="25" yMin="-380" xMax="440" yMax="-100">
      <contour>
        <pt x="440" y="-100" on="1"/>
        <pt x="290" y="-380" on="1"/>
        <pt x="25" y="-380" on="1"/>
        <pt x="175" y="-100" on="1"/>
      </contour>
    </TTGlyph>
    <TTGlyph name="copyright" xMin="150" yMin="-10" xMax="1635" yMax="1440">
      <contour>
        <pt x="255" y="80" on="0"/>
        <pt x="878" y="80" on="1"/>
        <pt x="1530" y="80" on="0"/>
        <pt x="1530" y="719" on="1"/>
        <pt x="1530" y="1350" on="0"/>
        <pt x="898" y="1350" on="1"/>
        <pt x="255" y="1350" on="0"/>
        <pt x="255" y="719" on="1"/>
      </contour>
      <contour>
        <pt x="150" y="723" on="1"/>
        <pt x="150" y="1440" on="0"/>
        <pt x="898" y="1440" on="1"/>
        <pt x="1635" y="1440" on="0"/>
        <pt x="1635" y="723" on="1"/>
        <pt x="1635" y="-10" on="0"/>
        <pt x="898" y="-10" on="1"/>
        <pt x="150" y="-10" on="0"/>
      </contour>
      <contour>
        <pt x="1183" y="336" on="1"/>
        <pt x="1058" y="285" on="0"/>
        <pt x="893" y="285" on="1"/>
        <pt x="477" y="285" on="0"/>
        <pt x="477" y="728" on="1"/>
        <pt x="477" y="1144" on="0"/>
        <pt x="893" y="1144" on="1"/>
        <pt x="1058" y="1144" on="0"/>
        <pt x="1183" y="1093" on="1"/>
        <pt x="1183" y="995" on="1"/>
        <pt x="1058" y="1053" on="0"/>
        <pt x="907" y="1053" on="1"/>
        <pt x="582" y="1053" on="0"/>
        <pt x="582" y="728" on="1"/>
        <pt x="582" y="376" on="0"/>
        <pt x="907" y="376" on="1"/>
        <pt x="1058" y="376" on="0"/>
        <pt x="1183" y="434" on="1"/>
      </contour>
    </TTGlyph>
    <TTGlyph name="currency" xMin="100" yMin="61" xMax="1039" yMax="988">
      <contour>
        <pt x="216" y="756" on="1"/>
        <pt x="100" y="876" on="1"/>
        <pt x="209" y="988" on="1"/>
        <pt x="334" y="867" on="1"/>
        <pt x="442" y="935" on="0"/>
        <pt x="576" y="935" on="1"/>
        <pt x="700" y="935" on="0"/>
        <pt x="801" y="867" on="1"/>
        <pt x="929" y="988" on="1"/>
        <pt x="1039" y="876" on="1"/>
        <pt x="921" y="756" on="1"/>
        <pt x="979" y="673" on="0"/>
        <pt x="979" y="525" on="1"/>
        <pt x="979" y="386" on="0"/>
        <pt x="911" y="293" on="1"/>
        <pt x="1039" y="173" on="1"/>
        <pt x="929" y="61" on="1"/>
        <pt x="801" y="184" on="1"/>
        <pt x="693" y="124" on="0"/>
        <pt x="568" y="124" on="1"/>
        <pt x="444" y="124" on="0"/>
        <pt x="325" y="184" on="1"/>
        <pt x="209" y="61" on="1"/>
        <pt x="100" y="173" on="1"/>
        <pt x="216" y="293" on="1"/>
        <pt x="159" y="396" on="0"/>
        <pt x="159" y="525" on="1"/>
        <pt x="159" y="662" on="0"/>
      </contour>
      <contour>
        <pt x="322" y="529" on="1"/>
        <pt x="322" y="283" on="0"/>
        <pt x="567" y="283" on="1"/>
        <pt x="812" y="283" on="0"/>
        <pt x="812" y="529" on="1"/>
        <pt x="812" y="773" on="0"/>
        <pt x="567" y="773" on="1"/>
        <pt x="322" y="773" on="0"/>
      </contour>
    </TTGlyph>
    <TTGlyph name="d" xMin="75" yMin="0" xMax="1055" yMax="1430">
      <contour>
        <pt x="790" y="776" on="1"/>
        <pt x="708" y="830" on="0"/>
        <pt x="584" y="830" on="1"/>
        <pt x="337" y="830" on="0"/>
        <pt x="337" y="553" on="1"/>
        <pt x="337" y="224" on="0"/>
        <pt x="594" y="224" on="1"/>
        <pt x="698" y="224" on="0"/>
        <pt x="790" y="253" on="1"/>
      </contour>
      <contour>
        <pt x="1055" y="63" on="1"/>
        <pt x="814" y="0" on="0"/>
        <pt x="584" y="0" on="1"/>
        <pt x="75" y="0" on="0"/>
        <pt x="75" y="546" on="1"/>
        <pt x="75" y="1050" on="0"/>
        <pt x="573" y="1050" on="1"/>
        <pt x="679" y="1050" on="0"/>
        <pt x="790" y="1000" on="1"/>
        <pt x="790" y="1430" on="1"/>
        <pt x="1055" y="1430" on="1"/>
      </contour>
    </TTGlyph>
    <TTGlyph name="dagger" xMin="50" yMin="0" xMax="1065" yMax="1430">
      <contour>
        <pt x="695" y="1430" on="1"/>
        <pt x="695" y="1010" on="1"/>
        <pt x="1065" y="1010" on="1"/>
        <pt x="1065" y="780" on="1"/>
        <pt x="695" y="780" on="1"/>
        <pt x="695" y="0" on="1"/>
        <pt x="430" y="0" on="1"/>
        <pt x="430" y="780" on="1"/>
        <pt x="50" y="780" on="1"/>
        <pt x="50" y="1010" on="1"/>
        <pt x="430" y="1010" on="1"/>
        <pt x="430" y="1430" on="1"/>
      </contour>
    </TTGlyph>
    <TTGlyph name="daggerdbl" xMin="50" yMin="-380" xMax="995" yMax="1430">
      <contour>
        <pt x="655" y="1430" on="1"/>
        <pt x="655" y="1050" on="1"/>
        <pt x="995" y="1050" on="1"/>
        <pt x="995" y="840" on="1"/>
        <pt x="655" y="840" on="1"/>
        <pt x="655" y="210" on="1"/>
        <pt x="995" y="210" on="1"/>
        <pt x="995" y="0" on="1"/>
        <pt x="655" y="0" on="1"/>
        <pt x="655" y="-380" on="1"/>
        <pt x="390" y="-380" on="1"/>
        <pt x="390" y="0" on="1"/>
        <pt x="50" y="0" on="1"/>
        <pt x="50" y="210" on="1"/>
        <pt x="390" y="210" on="1"/>
        <pt x="390" y="840" on="1"/>
        <pt x="50" y="840" on="1"/>
        <pt x="50" y="1050" on="1"/>
        <pt x="390" y="1050" on="1"/>
        <pt x="390" y="1430" on="1"/>
      </contour>
    </TTGlyph>
    <TTGlyph name="dcaron" xMin="75" yMin="0" xMax="1550" yMax="1430">
      <contour>
        <pt x="1550" y="1430" on="1"/>
        <pt x="1400" y="995" on="1"/>
        <pt x="1155" y="995" on="1"/>
        <pt x="1305" y="1430" on="1"/>
      </contour>
      <contour>
        <pt x="790" y="776" on="1"/>
        <pt x="708" y="830" on="0"/>
        <pt x="584" y="830" on="1"/>
        <pt x="337" y="830" on="0"/>
        <pt x="337" y="553" on="1"/>
        <pt x="337" y="224" on="0"/>
        <pt x="594" y="224" on="1"/>
        <pt x="698" y="224" on="0"/>
        <pt x="790" y="253" on="1"/>
      </contour>
      <contour>
        <pt x="1055" y="63" on="1"/>
        <pt x="814" y="0" on="0"/>
        <pt x="584" y="0" on="1"/>
        <pt x="75" y="0" on="0"/>
        <pt x="75" y="546" on="1"/>
        <pt x="75" y="1050" on="0"/>
        <pt x="573" y="1050" on="1"/>
        <pt x="679" y="1050" on="0"/>
        <pt x="790" y="1000" on="1"/>
        <pt x="790" y="1430" on="1"/>
        <pt x="1055" y="1430" on="1"/>
      </contour>
    </TTGlyph>
    <TTGlyph name="dcroat" xMin="75" yMin="0" xMax="1055" yMax="1430">
      <contour>
        <pt x="790" y="776" on="1"/>
        <pt x="708" y="830" on="0"/>
        <pt x="584" y="830" on="1"/>
        <pt x="337" y="830" on="0"/>
        <pt x="337" y="553" on="1"/>
        <pt x="337" y="224" on="0"/>
        <pt x="594" y="224" on="1"/>
        <pt x="698" y="224" on="0"/>
        <pt x="790" y="253" on="1"/>
      </contour>
      <contour>
        <pt x="790" y="1120" on="1"/>
        <pt x="115" y="1120" on="1"/>
        <pt x="115" y="1330" on="1"/>
        <pt x="790" y="1330" on="1"/>
        <pt x="790" y="1430" on="1"/>
        <pt x="1055" y="1430" on="1"/>
        <pt x="1055" y="63" on="1"/>
        <pt x="814" y="0" on="0"/>
        <pt x="584" y="0" on="1"/>
        <pt x="75" y="0" on="0"/>
        <pt x="75" y="546" on="1"/>
        <pt x="75" y="1050" on="0"/>
        <pt x="573" y="1050" on="1"/>
        <pt x="679" y="1050" on="0"/>
        <pt x="790" y="1000" on="1"/>
      </contour>
    </TTGlyph>
    <TTGlyph name="degree" xMin="100" yMin="791" xMax="772" yMax="1430">
      <contour>
        <pt x="290" y="965" on="0"/>
        <pt x="438" y="965" on="1"/>
        <pt x="582" y="965" on="0"/>
        <pt x="582" y="1112" on="1"/>
        <pt x="582" y="1256" on="0"/>
        <pt x="438" y="1256" on="1"/>
        <pt x="290" y="1256" on="0"/>
        <pt x="290" y="1112" on="1"/>
      </contour>
      <contour>
        <pt x="100" y="1110" on="1"/>
        <pt x="100" y="1430" on="0"/>
        <pt x="438" y="1430" on="1"/>
        <pt x="772" y="1430" on="0"/>
        <pt x="772" y="1110" on="1"/>
        <pt x="772" y="791" on="0"/>
        <pt x="438" y="791" on="1"/>
        <pt x="100" y="791" on="0"/>
      </contour>
    </TTGlyph>
    <TTGlyph name="delta" xMin="60" yMin="-10" xMax="1140" yMax="1430">
      <contour>
        <pt x="1140" y="-10" on="0"/>
        <pt x="593" y="-10" on="1"/>
        <pt x="60" y="-10" on="0"/>
        <pt x="60" y="530" on="1"/>
        <pt x="60" y="1020" on="0"/>
        <pt x="575" y="1020" on="1"/>
        <pt x="420" y="1163" on="0"/>
        <pt x="174" y="1220" on="1"/>
        <pt x="174" y="1430" on="1"/>
        <pt x="1039" y="1430" on="1"/>
        <pt x="1039" y="1220" on="1"/>
        <pt x="572" y="1220" on="1"/>
        <pt x="1127" y="955" on="0"/>
        <pt x="1140" y="540" on="1"/>
      </contour>
      <contour>
        <pt x="875" y="536" on="1"/>
        <pt x="875" y="830" on="0"/>
        <pt x="593" y="830" on="1"/>
        <pt x="321" y="830" on="0"/>
        <pt x="321" y="530" on="1"/>
        <pt x="321" y="200" on="0"/>
        <pt x="594" y="200" on="1"/>
        <pt x="875" y="200" on="0"/>
      </contour>
    </TTGlyph>
    <TTGlyph name="dieresis" xMin="100" yMin="1240" xMax="655" yMax="1430">
      <contour>
        <pt x="655" y="1430" on="1"/>
        <pt x="655" y="1240" on="1"/>
        <pt x="440" y="1240" on="1"/>
        <pt x="440" y="1430" on="1"/>
      </contour>
      <contour>
        <pt x="315" y="1430" on="1"/>
        <pt x="315" y="1240" on="1"/>
        <pt x="100" y="1240" on="1"/>
        <pt x="100" y="1430" on="1"/>
      </contour>
    </TTGlyph>
    <TTGlyph name="dieresistonos" xMin="100" yMin="1171" xMax="1045" yMax="1430">
      <contour>
        <pt x="1045" y="1430" on="1"/>
        <pt x="1045" y="1240" on="1"/>
        <pt x="830" y="1240" on="1"/>
        <pt x="830" y="1430" on="1"/>
      </contour>
      <contour>
        <pt x="315" y="1430" on="1"/>
        <pt x="315" y="1240" on="1"/>
        <pt x="100" y="1240" on="1"/>
        <pt x="100" y="1430" on="1"/>
      </contour>
      <contour>
        <pt x="474" y="1430" on="1"/>
        <pt x="793" y="1430" on="1"/>
        <pt x="554" y="1171" on="1"/>
        <pt x="330" y="1171" on="1"/>
      </contour>
    </TTGlyph>
    <TTGlyph name="divide" xMin="100" yMin="150" xMax="885" yMax="900">
      <contour>
        <pt x="885" y="630" on="1"/>
        <pt x="885" y="420" on="1"/>
        <pt x="100" y="420" on="1"/>
        <pt x="100" y="630" on="1"/>
      </contour>
      <contour>
        <pt x="605" y="340" on="1"/>
        <pt x="605" y="150" on="1"/>
        <pt x="380" y="150" on="1"/>
        <pt x="380" y="340" on="1"/>
      </contour>
      <contour>
        <pt x="605" y="900" on="1"/>
        <pt x="605" y="710" on="1"/>
        <pt x="380" y="710" on="1"/>
        <pt x="380" y="900" on="1"/>
      </contour>
    </TTGlyph>
    <TTGlyph name="dollar" xMin="75" yMin="0" xMax="965" yMax="1430">
      <contour>
        <pt x="399" y="1231" on="1"/>
        <pt x="399" y="1430" on="1"/>
        <pt x="654" y="1430" on="1"/>
        <pt x="654" y="1235" on="1"/>
        <pt x="790" y="1223" on="0"/>
        <pt x="915" y="1180" on="1"/>
        <pt x="915" y="960" on="1"/>
        <pt x="740" y="1030" on="0"/>
        <pt x="535" y="1030" on="1"/>
        <pt x="320" y="1030" on="0"/>
        <pt x="320" y="920" on="1"/>
        <pt x="320" y="815" on="0"/>
        <pt x="445" y="815" on="1"/>
        <pt x="615" y="815" on="1"/>
        <pt x="965" y="815" on="0"/>
        <pt x="965" y="500" on="1"/>
        <pt x="965" y="224" on="0"/>
        <pt x="654" y="179" on="1"/>
        <pt x="654" y="0" on="1"/>
        <pt x="399" y="0" on="1"/>
        <pt x="399" y="175" on="1"/>
        <pt x="251" y="187" on="0"/>
        <pt x="125" y="230" on="1"/>
        <pt x="125" y="450" on="1"/>
        <pt x="300" y="380" on="0"/>
        <pt x="529" y="380" on="1"/>
        <pt x="700" y="380" on="0"/>
        <pt x="700" y="490" on="1"/>
        <pt x="700" y="595" on="0"/>
        <pt x="585" y="595" on="1"/>
        <pt x="395" y="595" on="1"/>
        <pt x="75" y="595" on="0"/>
        <pt x="75" y="910" on="1"/>
        <pt x="75" y="1185" on="0"/>
      </contour>
    </TTGlyph>
    <TTGlyph name="dotaccent" xMin="100" yMin="1210" xMax="335" yMax="1430">
      <contour>
        <pt x="335" y="1430" on="1"/>
        <pt x="335" y="1210" on="1"/>
        <pt x="100" y="1210" on="1"/>
        <pt x="100" y="1430" on="1"/>
      </contour>
    </TTGlyph>
    <TTGlyph name="dotlessi" xMin="125" yMin="0" xMax="390" yMax="1050">
      <contour>
        <pt x="390" y="1050" on="1"/>
        <pt x="390" y="0" on="1"/>
        <pt x="125" y="0" on="1"/>
        <pt x="125" y="1050" on="1"/>
      </contour>
    </TTGlyph>
    <TTGlyph name="e" xMin="75" yMin="0" xMax="1046" yMax="1050">
      <contour>
        <pt x="568" y="1050" on="1"/>
        <pt x="1046" y="1050" on="0"/>
        <pt x="1046" y="562" on="1"/>
        <pt x="1046" y="497" on="0"/>
        <pt x="1037" y="432" on="1"/>
        <pt x="340" y="432" on="1"/>
        <pt x="340" y="210" on="0"/>
        <pt x="666" y="210" on="1"/>
        <pt x="825" y="210" on="0"/>
        <pt x="984" y="240" on="1"/>
        <pt x="984" y="30" on="1"/>
        <pt x="845" y="0" on="0"/>
        <pt x="646" y="0" on="1"/>
        <pt x="75" y="0" on="0"/>
        <pt x="75" y="537" on="1"/>
        <pt x="75" y="1050" on="0"/>
      </contour>
      <contour>
        <pt x="340" y="616" on="1"/>
        <pt x="788" y="616" on="1"/>
        <pt x="788" y="624" on="1"/>
        <pt x="788" y="842" on="0"/>
        <pt x="568" y="842" on="1"/>
        <pt x="358" y="842" on="0"/>
      </contour>
    </TTGlyph>
    <TTGlyph name="eacute" xMin="75" yMin="0" xMax="1046" yMax="1430">
      <component glyphName="e" x="0" y="0" flags="0x200"/>
      <component glyphName="acute" x="316" y="0" flags="0x0"/>
    </TTGlyph>
    <TTGlyph name="ebreve" xMin="75" yMin="0" xMax="1046" yMax="1430">
      <component glyphName="e" x="0" y="0" flags="0x200"/>
      <component glyphName="breve" x="175" y="0" flags="0x0"/>
    </TTGlyph>
    <TTGlyph name="ecaron" xMin="75" yMin="0" xMax="1046" yMax="1430">
      <component glyphName="e" x="0" y="0" flags="0x200"/>
      <component glyphName="caron" x="220" y="0" flags="0x0"/>
    </TTGlyph>
    <TTGlyph name="ecircumflex" xMin="75" yMin="0" xMax="1046" yMax="1430">
      <component glyphName="e" x="0" y="0" flags="0x200"/>
      <component glyphName="circumflex" x="220" y="0" flags="0x0"/>
    </TTGlyph>
    <TTGlyph name="edieresis" xMin="75" yMin="0" xMax="1046" yMax="1430">
      <component glyphName="e" x="0" y="0" flags="0x200"/>
      <component glyphName="dieresis" x="193" y="0" flags="0x0"/>
    </TTGlyph>
    <TTGlyph name="edotaccent" xMin="75" yMin="0" xMax="1046" yMax="1430">
      <component glyphName="e" x="0" y="0" flags="0x200"/>
      <component glyphName="dotaccent" x="353" y="0" flags="0x0"/>
    </TTGlyph>
    <TTGlyph name="egrave" xMin="75" yMin="0" xMax="1046" yMax="1430">
      <component glyphName="e" x="0" y="0" flags="0x200"/>
      <component glyphName="grave" x="162" y="0" flags="0x0"/>
    </TTGlyph>
    <TTGlyph name="eight" xMin="80" yMin="-10" xMax="1200" yMax="1444">
      <contour>
        <pt x="80" y="424" on="1"/>
        <pt x="80" y="647" on="0"/>
        <pt x="292" y="755" on="1"/>
        <pt x="120" y="850" on="0"/>
        <pt x="120" y="1078" on="1"/>
        <pt x="120" y="1444" on="0"/>
        <pt x="640" y="1444" on="1"/>
        <pt x="1160" y="1444" on="0"/>
        <pt x="1160" y="1078" on="1"/>
        <pt x="1160" y="850" on="0"/>
        <pt x="983" y="755" on="1"/>
        <pt x="1200" y="647" on="0"/>
        <pt x="1200" y="424" on="1"/>
        <pt x="1200" y="-10" on="0"/>
        <pt x="650" y="-10" on="1"/>
        <pt x="80" y="-10" on="0"/>
      </contour>
      <contour>
        <pt x="895" y="860" on="0"/>
        <pt x="895" y="1048" on="1"/>
        <pt x="895" y="1210" on="0"/>
        <pt x="642" y="1210" on="1"/>
        <pt x="385" y="1210" on="0"/>
        <pt x="385" y="1048" on="1"/>
        <pt x="385" y="860" on="0"/>
        <pt x="645" y="860" on="1"/>
      </contour>
      <contour>
        <pt x="935" y="220" on="0"/>
        <pt x="935" y="418" on="1"/>
        <pt x="935" y="630" on="0"/>
        <pt x="642" y="630" on="1"/>
        <pt x="345" y="630" on="0"/>
        <pt x="345" y="418" on="1"/>
        <pt x="345" y="220" on="0"/>
        <pt x="655" y="220" on="1"/>
      </contour>
    </TTGlyph>
    <TTGlyph name="eight.osf" xMin="105" yMin="-10" xMax="1145" yMax="1344">
      <contour>
        <pt x="105" y="384" on="1"/>
        <pt x="105" y="617" on="0"/>
        <pt x="357" y="705" on="1"/>
        <pt x="145" y="790" on="0"/>
        <pt x="145" y="1008" on="1"/>
        <pt x="145" y="1344" on="0"/>
        <pt x="625" y="1344" on="1"/>
        <pt x="1105" y="1344" on="0"/>
        <pt x="1105" y="1008" on="1"/>
        <pt x="1105" y="790" on="0"/>
        <pt x="888" y="705" on="1"/>
        <pt x="1145" y="617" on="0"/>
        <pt x="1145" y="384" on="1"/>
        <pt x="1145" y="-10" on="0"/>
        <pt x="625" y="-10" on="1"/>
        <pt x="105" y="-10" on="0"/>
      </contour>
      <contour>
        <pt x="840" y="800" on="0"/>
        <pt x="840" y="978" on="1"/>
        <pt x="840" y="1130" on="0"/>
        <pt x="617" y="1130" on="1"/>
        <pt x="410" y="1130" on="0"/>
        <pt x="410" y="978" on="1"/>
        <pt x="410" y="800" on="0"/>
        <pt x="630" y="800" on="1"/>
      </contour>
      <contour>
        <pt x="880" y="200" on="0"/>
        <pt x="880" y="398" on="1"/>
        <pt x="880" y="590" on="0"/>
        <pt x="617" y="590" on="1"/>
        <pt x="370" y="590" on="0"/>
        <pt x="370" y="398" on="1"/>
        <pt x="370" y="200" on="0"/>
        <pt x="630" y="200" on="1"/>
      </contour>
    </TTGlyph>
    <TTGlyph name="ellipsis" xMin="100" yMin="0" xMax="1365" yMax="245">
      <contour>
        <pt x="365" y="245" on="1"/>
        <pt x="365" y="0" on="1"/>
        <pt x="100" y="0" on="1"/>
        <pt x="100" y="245" on="1"/>
      </contour>
      <contour>
        <pt x="865" y="245" on="1"/>
        <pt x="865" y="0" on="1"/>
        <pt x="600" y="0" on="1"/>
        <pt x="600" y="245" on="1"/>
      </contour>
      <contour>
        <pt x="1365" y="245" on="1"/>
        <pt x="1365" y="0" on="1"/>
        <pt x="1100" y="0" on="1"/>
        <pt x="1100" y="245" on="1"/>
      </contour>
    </TTGlyph>
    <TTGlyph name="emacron" xMin="75" yMin="0" xMax="1046" yMax="1430">
      <component glyphName="e" x="0" y="0" flags="0x200"/>
      <component glyphName="macron" x="220" y="0" flags="0x0"/>
    </TTGlyph>
    <TTGlyph name="emdash" xMin="100" yMin="420" xMax="1600" yMax="630">
      <contour>
        <pt x="1600" y="630" on="1"/>
        <pt x="1600" y="420" on="1"/>
        <pt x="100" y="420" on="1"/>
        <pt x="100" y="630" on="1"/>
      </contour>
    </TTGlyph>
    <TTGlyph name="endash" xMin="100" yMin="420" xMax="1100" yMax="630">
      <contour>
        <pt x="1100" y="630" on="1"/>
        <pt x="1100" y="420" on="1"/>
        <pt x="100" y="420" on="1"/>
        <pt x="100" y="630" on="1"/>
      </contour>
    </TTGlyph>
    <TTGlyph name="eng" xMin="125" yMin="-438" xMax="1080" yMax="1050">
      <contour>
        <pt x="815" y="662" on="1"/>
        <pt x="815" y="836" on="0"/>
        <pt x="642" y="836" on="1"/>
        <pt x="513" y="836" on="0"/>
        <pt x="390" y="733" on="1"/>
        <pt x="390" y="0" on="1"/>
        <pt x="125" y="0" on="1"/>
        <pt x="125" y="1050" on="1"/>
        <pt x="330" y="1050" on="1"/>
        <pt x="363" y="896" on="1"/>
        <pt x="514" y="1050" on="0"/>
        <pt x="707" y="1050" on="1"/>
        <pt x="1080" y="1050" on="0"/>
        <pt x="1080" y="659" on="1"/>
        <pt x="1080" y="80" on="1"/>
        <pt x="1080" y="-238" on="0"/>
        <pt x="898" y="-438" on="1"/>
        <pt x="690" y="-293" on="1"/>
        <pt x="815" y="-158" on="0"/>
        <pt x="815" y="80" on="1"/>
      </contour>
    </TTGlyph>
    <TTGlyph name="eogonek" xMin="75" yMin="-426" xMax="1046" yMax="1050">
      <contour>
        <pt x="340" y="616" on="1"/>
        <pt x="788" y="616" on="1"/>
        <pt x="788" y="624" on="1"/>
        <pt x="788" y="842" on="0"/>
        <pt x="568" y="842" on="1"/>
        <pt x="358" y="842" on="0"/>
      </contour>
      <contour>
        <pt x="732" y="2" on="1"/>
        <pt x="691" y="0" on="0"/>
        <pt x="646" y="0" on="1"/>
        <pt x="75" y="0" on="0"/>
        <pt x="75" y="537" on="1"/>
        <pt x="75" y="1050" on="0"/>
        <pt x="568" y="1050" on="1"/>
        <pt x="1046" y="1050" on="0"/>
        <pt x="1046" y="562" on="1"/>
        <pt x="1046" y="497" on="0"/>
        <pt x="1037" y="432" on="1"/>
        <pt x="340" y="432" on="1"/>
        <pt x="340" y="210" on="0"/>
        <pt x="666" y="210" on="1"/>
        <pt x="825" y="210" on="0"/>
        <pt x="984" y="240" on="1"/>
        <pt x="984" y="30" on="1"/>
        <pt x="746" y="-96" on="0"/>
        <pt x="746" y="-198" on="1"/>
        <pt x="746" y="-266" on="0"/>
        <pt x="831" y="-266" on="1"/>
        <pt x="916" y="-266" on="0"/>
        <pt x="968" y="-246" on="1"/>
        <pt x="968" y="-406" on="1"/>
        <pt x="907" y="-426" on="0"/>
        <pt x="819" y="-426" on="1"/>
        <pt x="558" y="-426" on="0"/>
        <pt x="558" y="-223" on="1"/>
        <pt x="558" y="-92" on="0"/>
        <pt x="719" y="0" on="1"/>
      </contour>
    </TTGlyph>
    <TTGlyph name="epsilon" xMin="75" yMin="-10" xMax="840" yMax="1060">
      <contour>
        <pt x="840" y="790" on="1"/>
        <pt x="690" y="850" on="0"/>
        <pt x="520" y="850" on="1"/>
        <pt x="350" y="850" on="0"/>
        <pt x="350" y="748" on="1"/>
        <pt x="350" y="650" on="0"/>
        <pt x="555" y="650" on="1"/>
        <pt x="750" y="650" on="1"/>
        <pt x="750" y="440" on="1"/>
        <pt x="552" y="440" on="1"/>
        <pt x="340" y="440" on="0"/>
        <pt x="340" y="320" on="1"/>
        <pt x="340" y="200" on="0"/>
        <pt x="520" y="200" on="1"/>
        <pt x="690" y="200" on="0"/>
        <pt x="840" y="260" on="1"/>
        <pt x="840" y="40" on="1"/>
        <pt x="690" y="-10" on="0"/>
        <pt x="520" y="-10" on="1"/>
        <pt x="75" y="-10" on="0"/>
        <pt x="75" y="290" on="1"/>
        <pt x="75" y="490" on="0"/>
        <pt x="303" y="545" on="1"/>
        <pt x="85" y="594" on="0"/>
        <pt x="85" y="778" on="1"/>
        <pt x="85" y="1060" on="0"/>
        <pt x="530" y="1060" on="1"/>
        <pt x="690" y="1060" on="0"/>
        <pt x="840" y="1010" on="1"/>
      </contour>
    </TTGlyph>
    <TTGlyph name="epsilontonos" xMin="75" yMin="-10" xMax="840" yMax="1430">
      <component glyphName="epsilon" x="0" y="0" flags="0x200"/>
      <component glyphName="tonos" x="203" y="0" flags="0x0"/>
    </TTGlyph>
    <TTGlyph name="equal" xMin="100" yMin="240" xMax="850" yMax="810">
      <contour>
        <pt x="850" y="450" on="1"/>
        <pt x="850" y="240" on="1"/>
        <pt x="100" y="240" on="1"/>
        <pt x="100" y="450" on="1"/>
      </contour>
      <contour>
        <pt x="850" y="810" on="1"/>
        <pt x="850" y="600" on="1"/>
        <pt x="100" y="600" on="1"/>
        <pt x="100" y="810" on="1"/>
      </contour>
    </TTGlyph>
    <TTGlyph name="eta" xMin="125" yMin="-380" xMax="1110" yMax="1050">
      <contour>
        <pt x="125" y="0" on="1"/>
        <pt x="125" y="1050" on="1"/>
        <pt x="330" y="1050" on="1"/>
        <pt x="363" y="896" on="1"/>
        <pt x="514" y="1050" on="0"/>
        <pt x="707" y="1050" on="1"/>
        <pt x="1110" y="1050" on="0"/>
        <pt x="1110" y="662" on="1"/>
        <pt x="1110" y="-380" on="1"/>
        <pt x="845" y="-380" on="1"/>
        <pt x="845" y="662" on="1"/>
        <pt x="845" y="836" on="0"/>
        <pt x="652" y="836" on="1"/>
        <pt x="513" y="836" on="0"/>
        <pt x="390" y="733" on="1"/>
        <pt x="390" y="0" on="1"/>
      </contour>
    </TTGlyph>
    <TTGlyph name="etatonos" xMin="125" yMin="-380" xMax="1110" yMax="1430">
      <component glyphName="eta" x="0" y="0" flags="0x200"/>
      <component glyphName="tonos" x="363" y="0" flags="0x0"/>
    </TTGlyph>
    <TTGlyph name="eth" xMin="75" yMin="-10" xMax="1105" yMax="1430">
      <contour>
        <pt x="840" y="646" on="1"/>
        <pt x="840" y="742" on="0"/>
        <pt x="822" y="800" on="1"/>
        <pt x="732" y="850" on="0"/>
        <pt x="588" y="850" on="1"/>
        <pt x="336" y="850" on="0"/>
        <pt x="336" y="540" on="1"/>
        <pt x="336" y="200" on="0"/>
        <pt x="589" y="200" on="1"/>
        <pt x="840" y="200" on="0"/>
      </contour>
      <contour>
        <pt x="885" y="1268" on="1"/>
        <pt x="1105" y="1075" on="0"/>
        <pt x="1105" y="650" on="1"/>
        <pt x="1105" y="-10" on="0"/>
        <pt x="588" y="-10" on="1"/>
        <pt x="75" y="-10" on="0"/>
        <pt x="75" y="540" on="1"/>
        <pt x="75" y="1050" on="0"/>
        <pt x="509" y="1050" on="1"/>
        <pt x="686" y="1050" on="0"/>
        <pt x="795" y="960" on="1"/>
        <pt x="733" y="1093" on="0"/>
        <pt x="621" y="1158" on="1"/>
        <pt x="390" y="1061" on="1"/>
        <pt x="390" y="1180" on="1"/>
        <pt x="466" y="1212" on="1"/>
        <pt x="416" y="1220" on="0"/>
        <pt x="361" y="1220" on="1"/>
        <pt x="155" y="1220" on="1"/>
        <pt x="155" y="1430" on="1"/>
        <pt x="363" y="1430" on="1"/>
        <pt x="612" y="1430" on="0"/>
        <pt x="777" y="1342" on="1"/>
        <pt x="987" y="1430" on="1"/>
        <pt x="987" y="1311" on="1"/>
      </contour>
    </TTGlyph>
    <TTGlyph name="exclam" xMin="150" yMin="0" xMax="415" yMax="1430">
      <contour>
        <pt x="415" y="1430" on="1"/>
        <pt x="415" y="370" on="1"/>
        <pt x="150" y="370" on="1"/>
        <pt x="150" y="1430" on="1"/>
      </contour>
      <contour>
        <pt x="415" y="245" on="1"/>
        <pt x="415" y="0" on="1"/>
        <pt x="150" y="0" on="1"/>
        <pt x="150" y="245" on="1"/>
      </contour>
    </TTGlyph>
    <TTGlyph name="exclamdown" xMin="150" yMin="-380" xMax="415" yMax="1050">
      <contour>
        <pt x="150" y="-380" on="1"/>
        <pt x="150" y="680" on="1"/>
        <pt x="415" y="680" on="1"/>
        <pt x="415" y="-380" on="1"/>
      </contour>
      <contour>
        <pt x="150" y="805" on="1"/>
        <pt x="150" y="1050" on="1"/>
        <pt x="415" y="1050" on="1"/>
        <pt x="415" y="805" on="1"/>
      </contour>
    </TTGlyph>
    <TTGlyph name="f" xMin="125" yMin="0" xMax="831" yMax="1482">
      <contour>
        <pt x="125" y="0" on="1"/>
        <pt x="125" y="1050" on="1"/>
        <pt x="125" y="1482" on="0"/>
        <pt x="597" y="1482" on="1"/>
        <pt x="726" y="1482" on="0"/>
        <pt x="831" y="1442" on="1"/>
        <pt x="831" y="1232" on="1"/>
        <pt x="732" y="1272" on="0"/>
        <pt x="616" y="1272" on="1"/>
        <pt x="390" y="1272" on="0"/>
        <pt x="390" y="1050" on="1"/>
        <pt x="705" y="1050" on="1"/>
        <pt x="705" y="840" on="1"/>
        <pt x="390" y="840" on="1"/>
        <pt x="390" y="0" on="1"/>
      </contour>
    </TTGlyph>
    <TTGlyph name="fb" xMin="125" yMin="0" xMax="1779" yMax="1502">
      <contour>
        <pt x="1066" y="776" on="1"/>
        <pt x="1066" y="243" on="1"/>
        <pt x="1157" y="214" on="0"/>
        <pt x="1277" y="214" on="1"/>
        <pt x="1517" y="214" on="0"/>
        <pt x="1517" y="553" on="1"/>
        <pt x="1517" y="830" on="0"/>
        <pt x="1310" y="830" on="1"/>
        <pt x="1176" y="830" on="0"/>
      </contour>
      <contour>
        <pt x="801" y="1274" on="1"/>
        <pt x="721" y="1292" on="0"/>
        <pt x="636" y="1292" on="1"/>
        <pt x="390" y="1292" on="0"/>
        <pt x="390" y="1109" on="1"/>
        <pt x="390" y="1050" on="1"/>
        <pt x="625" y="1050" on="1"/>
        <pt x="625" y="840" on="1"/>
        <pt x="390" y="840" on="1"/>
        <pt x="390" y="0" on="1"/>
        <pt x="125" y="0" on="1"/>
        <pt x="125" y="1101" on="1"/>
        <pt x="125" y="1502" on="0"/>
        <pt x="647" y="1502" on="1"/>
        <pt x="846" y="1502" on="0"/>
        <pt x="1066" y="1432" on="1"/>
        <pt x="1066" y="1000" on="1"/>
        <pt x="1185" y="1050" on="0"/>
        <pt x="1311" y="1050" on="1"/>
        <pt x="1779" y="1050" on="0"/>
        <pt x="1779" y="546" on="1"/>
        <pt x="1779" y="0" on="0"/>
        <pt x="1266" y="0" on="1"/>
        <pt x="1050" y="0" on="0"/>
        <pt x="801" y="43" on="1"/>
      </contour>
    </TTGlyph>
    <TTGlyph name="ff" xMin="125" yMin="0" xMax="1497" yMax="1482">
      <contour>
        <pt x="791" y="840" on="1"/>
        <pt x="390" y="840" on="1"/>
        <pt x="390" y="0" on="1"/>
        <pt x="125" y="0" on="1"/>
        <pt x="125" y="1101" on="1"/>
        <pt x="125" y="1482" on="0"/>
        <pt x="547" y="1482" on="1"/>
        <pt x="636" y="1482" on="0"/>
        <pt x="716" y="1452" on="1"/>
        <pt x="716" y="1242" on="1"/>
        <pt x="652" y="1272" on="0"/>
        <pt x="556" y="1272" on="1"/>
        <pt x="390" y="1272" on="0"/>
        <pt x="390" y="1109" on="1"/>
        <pt x="390" y="1050" on="1"/>
        <pt x="791" y="1050" on="1"/>
        <pt x="791" y="1482" on="0"/>
        <pt x="1263" y="1482" on="1"/>
        <pt x="1392" y="1482" on="0"/>
        <pt x="1497" y="1442" on="1"/>
        <pt x="1497" y="1232" on="1"/>
        <pt x="1398" y="1272" on="0"/>
        <pt x="1282" y="1272" on="1"/>
        <pt x="1056" y="1272" on="0"/>
        <pt x="1056" y="1050" on="1"/>
        <pt x="1371" y="1050" on="1"/>
        <pt x="1371" y="840" on="1"/>
        <pt x="1056" y="840" on="1"/>
        <pt x="1056" y="0" on="1"/>
        <pt x="791" y="0" on="1"/>
      </contour>
    </TTGlyph>
    <TTGlyph name="ffb" xMin="125" yMin="-2" xMax="2445" yMax="1500">
      <contour>
        <pt x="1732" y="776" on="1"/>
        <pt x="1732" y="243" on="1"/>
        <pt x="1823" y="214" on="0"/>
        <pt x="1943" y="214" on="1"/>
        <pt x="2183" y="214" on="0"/>
        <pt x="2183" y="553" on="1"/>
        <pt x="2183" y="830" on="0"/>
        <pt x="1976" y="830" on="1"/>
        <pt x="1842" y="830" on="0"/>
      </contour>
      <contour>
        <pt x="791" y="840" on="1"/>
        <pt x="390" y="840" on="1"/>
        <pt x="390" y="0" on="1"/>
        <pt x="125" y="0" on="1"/>
        <pt x="125" y="1101" on="1"/>
        <pt x="125" y="1482" on="0"/>
        <pt x="547" y="1482" on="1"/>
        <pt x="636" y="1482" on="0"/>
        <pt x="716" y="1452" on="1"/>
        <pt x="716" y="1242" on="1"/>
        <pt x="652" y="1272" on="0"/>
        <pt x="556" y="1272" on="1"/>
        <pt x="390" y="1272" on="0"/>
        <pt x="390" y="1109" on="1"/>
        <pt x="390" y="1050" on="1"/>
        <pt x="791" y="1050" on="1"/>
        <pt x="791" y="1099" on="1"/>
        <pt x="791" y="1500" on="0"/>
        <pt x="1313" y="1500" on="1"/>
        <pt x="1512" y="1500" on="0"/>
        <pt x="1732" y="1430" on="1"/>
        <pt x="1732" y="1000" on="1"/>
        <pt x="1851" y="1050" on="0"/>
        <pt x="1977" y="1050" on="1"/>
        <pt x="2445" y="1050" on="0"/>
        <pt x="2445" y="546" on="1"/>
        <pt x="2445" y="0" on="0"/>
        <pt x="1932" y="0" on="1"/>
        <pt x="1716" y="0" on="0"/>
        <pt x="1467" y="43" on="1"/>
        <pt x="1467" y="1272" on="1"/>
        <pt x="1387" y="1290" on="0"/>
        <pt x="1302" y="1290" on="1"/>
        <pt x="1056" y="1290" on="0"/>
        <pt x="1056" y="1107" on="1"/>
        <pt x="1056" y="1048" on="1"/>
        <pt x="1291" y="1048" on="1"/>
        <pt x="1291" y="838" on="1"/>
        <pt x="1056" y="838" on="1"/>
        <pt x="1056" y="-2" on="1"/>
        <pt x="791" y="-2" on="1"/>
      </contour>
    </TTGlyph>
    <TTGlyph name="ffh" xMin="125" yMin="-2" xMax="2452" yMax="1500">
      <contour>
        <pt x="791" y="840" on="1"/>
        <pt x="390" y="840" on="1"/>
        <pt x="390" y="0" on="1"/>
        <pt x="125" y="0" on="1"/>
        <pt x="125" y="1101" on="1"/>
        <pt x="125" y="1482" on="0"/>
        <pt x="547" y="1482" on="1"/>
        <pt x="636" y="1482" on="0"/>
        <pt x="716" y="1452" on="1"/>
        <pt x="716" y="1242" on="1"/>
        <pt x="652" y="1272" on="0"/>
        <pt x="556" y="1272" on="1"/>
        <pt x="390" y="1272" on="0"/>
        <pt x="390" y="1109" on="1"/>
        <pt x="390" y="1050" on="1"/>
        <pt x="791" y="1050" on="1"/>
        <pt x="791" y="1099" on="1"/>
        <pt x="791" y="1500" on="0"/>
        <pt x="1313" y="1500" on="1"/>
        <pt x="1512" y="1500" on="0"/>
        <pt x="1732" y="1430" on="1"/>
        <pt x="1732" y="916" on="1"/>
        <pt x="1856" y="1050" on="0"/>
        <pt x="2049" y="1050" on="1"/>
        <pt x="2452" y="1050" on="0"/>
        <pt x="2452" y="659" on="1"/>
        <pt x="2452" y="0" on="1"/>
        <pt x="2187" y="0" on="1"/>
        <pt x="2187" y="662" on="1"/>
        <pt x="2187" y="836" on="0"/>
        <pt x="1994" y="836" on="1"/>
        <pt x="1855" y="836" on="0"/>
        <pt x="1732" y="703" on="1"/>
        <pt x="1732" y="-2" on="1"/>
        <pt x="1467" y="-2" on="1"/>
        <pt x="1467" y="1272" on="1"/>
        <pt x="1387" y="1290" on="0"/>
        <pt x="1302" y="1290" on="1"/>
        <pt x="1056" y="1290" on="0"/>
        <pt x="1056" y="1107" on="1"/>
        <pt x="1056" y="1048" on="1"/>
        <pt x="1291" y="1048" on="1"/>
        <pt x="1291" y="838" on="1"/>
        <pt x="1056" y="838" on="1"/>
        <pt x="1056" y="-2" on="1"/>
        <pt x="791" y="-2" on="1"/>
      </contour>
    </TTGlyph>
    <TTGlyph name="ffi" xMin="125" yMin="0" xMax="1702" yMax="1502">
      <contour>
        <pt x="791" y="1050" on="1"/>
        <pt x="791" y="1101" on="1"/>
        <pt x="791" y="1502" on="0"/>
        <pt x="1263" y="1502" on="1"/>
        <pt x="1432" y="1502" on="0"/>
        <pt x="1602" y="1432" on="1"/>
        <pt x="1602" y="1222" on="1"/>
        <pt x="1448" y="1292" on="0"/>
        <pt x="1282" y="1292" on="1"/>
        <pt x="1056" y="1292" on="0"/>
        <pt x="1056" y="1109" on="1"/>
        <pt x="1056" y="1050" on="1"/>
        <pt x="1702" y="1050" on="1"/>
        <pt x="1702" y="0" on="1"/>
        <pt x="1437" y="0" on="1"/>
        <pt x="1437" y="840" on="1"/>
        <pt x="1056" y="840" on="1"/>
        <pt x="1056" y="0" on="1"/>
        <pt x="791" y="0" on="1"/>
        <pt x="791" y="840" on="1"/>
        <pt x="390" y="840" on="1"/>
        <pt x="390" y="0" on="1"/>
        <pt x="125" y="0" on="1"/>
        <pt x="125" y="1101" on="1"/>
        <pt x="125" y="1482" on="0"/>
        <pt x="547" y="1482" on="1"/>
        <pt x="636" y="1482" on="0"/>
        <pt x="716" y="1452" on="1"/>
        <pt x="716" y="1242" on="1"/>
        <pt x="652" y="1272" on="0"/>
        <pt x="556" y="1272" on="1"/>
        <pt x="390" y="1272" on="0"/>
        <pt x="390" y="1109" on="1"/>
        <pt x="390" y="1050" on="1"/>
      </contour>
    </TTGlyph>
    <TTGlyph name="ffj" xMin="125" yMin="-438" xMax="1702" yMax="1502">
      <contour>
        <pt x="791" y="840" on="1"/>
        <pt x="390" y="840" on="1"/>
        <pt x="390" y="0" on="1"/>
        <pt x="125" y="0" on="1"/>
        <pt x="125" y="1101" on="1"/>
        <pt x="125" y="1482" on="0"/>
        <pt x="547" y="1482" on="1"/>
        <pt x="636" y="1482" on="0"/>
        <pt x="716" y="1452" on="1"/>
        <pt x="716" y="1242" on="1"/>
        <pt x="652" y="1272" on="0"/>
        <pt x="556" y="1272" on="1"/>
        <pt x="390" y="1272" on="0"/>
        <pt x="390" y="1109" on="1"/>
        <pt x="390" y="1050" on="1"/>
        <pt x="791" y="1050" on="1"/>
        <pt x="791" y="1101" on="1"/>
        <pt x="791" y="1502" on="0"/>
        <pt x="1263" y="1502" on="1"/>
        <pt x="1432" y="1502" on="0"/>
        <pt x="1602" y="1432" on="1"/>
        <pt x="1602" y="1222" on="1"/>
        <pt x="1448" y="1292" on="0"/>
        <pt x="1282" y="1292" on="1"/>
        <pt x="1056" y="1292" on="0"/>
        <pt x="1056" y="1109" on="1"/>
        <pt x="1056" y="1050" on="1"/>
        <pt x="1702" y="1050" on="1"/>
        <pt x="1702" y="80" on="1"/>
        <pt x="1702" y="-238" on="0"/>
        <pt x="1520" y="-438" on="1"/>
        <pt x="1312" y="-293" on="1"/>
        <pt x="1437" y="-158" on="0"/>
        <pt x="1437" y="80" on="1"/>
        <pt x="1437" y="840" on="1"/>
        <pt x="1056" y="840" on="1"/>
        <pt x="1056" y="0" on="1"/>
        <pt x="791" y="0" on="1"/>
      </contour>
    </TTGlyph>
    <TTGlyph name="ffk" xMin="125" yMin="-2" xMax="2513" yMax="1500">
      <contour>
        <pt x="791" y="840" on="1"/>
        <pt x="390" y="840" on="1"/>
        <pt x="390" y="0" on="1"/>
        <pt x="125" y="0" on="1"/>
        <pt x="125" y="1101" on="1"/>
        <pt x="125" y="1482" on="0"/>
        <pt x="547" y="1482" on="1"/>
        <pt x="636" y="1482" on="0"/>
        <pt x="716" y="1452" on="1"/>
        <pt x="716" y="1242" on="1"/>
        <pt x="652" y="1272" on="0"/>
        <pt x="556" y="1272" on="1"/>
        <pt x="390" y="1272" on="0"/>
        <pt x="390" y="1109" on="1"/>
        <pt x="390" y="1050" on="1"/>
        <pt x="791" y="1050" on="1"/>
        <pt x="791" y="1099" on="1"/>
        <pt x="791" y="1500" on="0"/>
        <pt x="1313" y="1500" on="1"/>
        <pt x="1512" y="1500" on="0"/>
        <pt x="1732" y="1430" on="1"/>
        <pt x="1732" y="968" on="1"/>
        <pt x="1895" y="1050" on="0"/>
        <pt x="2095" y="1050" on="1"/>
        <pt x="2477" y="1050" on="0"/>
        <pt x="2477" y="737" on="1"/>
        <pt x="2477" y="527" on="0"/>
        <pt x="2197" y="413" on="1"/>
        <pt x="2513" y="0" on="1"/>
        <pt x="2199" y="0" on="1"/>
        <pt x="1865" y="445" on="1"/>
        <pt x="1865" y="528" on="1"/>
        <pt x="2212" y="559" on="0"/>
        <pt x="2212" y="718" on="1"/>
        <pt x="2212" y="840" on="0"/>
        <pt x="2042" y="840" on="1"/>
        <pt x="1889" y="840" on="0"/>
        <pt x="1732" y="746" on="1"/>
        <pt x="1732" y="-2" on="1"/>
        <pt x="1467" y="-2" on="1"/>
        <pt x="1467" y="1272" on="1"/>
        <pt x="1387" y="1290" on="0"/>
        <pt x="1302" y="1290" on="1"/>
        <pt x="1056" y="1290" on="0"/>
        <pt x="1056" y="1107" on="1"/>
        <pt x="1056" y="1048" on="1"/>
        <pt x="1291" y="1048" on="1"/>
        <pt x="1291" y="838" on="1"/>
        <pt x="1056" y="838" on="1"/>
        <pt x="1056" y="-2" on="1"/>
        <pt x="791" y="-2" on="1"/>
      </contour>
    </TTGlyph>
    <TTGlyph name="ffl" xMin="125" yMin="-2" xMax="1732" yMax="1500">
      <contour>
        <pt x="791" y="840" on="1"/>
        <pt x="390" y="840" on="1"/>
        <pt x="390" y="0" on="1"/>
        <pt x="125" y="0" on="1"/>
        <pt x="125" y="1101" on="1"/>
        <pt x="125" y="1482" on="0"/>
        <pt x="547" y="1482" on="1"/>
        <pt x="636" y="1482" on="0"/>
        <pt x="716" y="1452" on="1"/>
        <pt x="716" y="1242" on="1"/>
        <pt x="652" y="1272" on="0"/>
        <pt x="556" y="1272" on="1"/>
        <pt x="390" y="1272" on="0"/>
        <pt x="390" y="1109" on="1"/>
        <pt x="390" y="1050" on="1"/>
        <pt x="791" y="1050" on="1"/>
        <pt x="791" y="1099" on="1"/>
        <pt x="791" y="1500" on="0"/>
        <pt x="1313" y="1500" on="1"/>
        <pt x="1512" y="1500" on="0"/>
        <pt x="1732" y="1430" on="1"/>
        <pt x="1732" y="-2" on="1"/>
        <pt x="1467" y="-2" on="1"/>
        <pt x="1467" y="1272" on="1"/>
        <pt x="1387" y="1290" on="0"/>
        <pt x="1302" y="1290" on="1"/>
        <pt x="1056" y="1290" on="0"/>
        <pt x="1056" y="1107" on="1"/>
        <pt x="1056" y="1048" on="1"/>
        <pt x="1291" y="1048" on="1"/>
        <pt x="1291" y="838" on="1"/>
        <pt x="1056" y="838" on="1"/>
        <pt x="1056" y="-2" on="1"/>
        <pt x="791" y="-2" on="1"/>
      </contour>
    </TTGlyph>
    <TTGlyph name="fh" xMin="125" yMin="0" xMax="1786" yMax="1502">
      <contour>
        <pt x="801" y="1274" on="1"/>
        <pt x="721" y="1292" on="0"/>
        <pt x="636" y="1292" on="1"/>
        <pt x="390" y="1292" on="0"/>
        <pt x="390" y="1109" on="1"/>
        <pt x="390" y="1050" on="1"/>
        <pt x="625" y="1050" on="1"/>
        <pt x="625" y="840" on="1"/>
        <pt x="390" y="840" on="1"/>
        <pt x="390" y="0" on="1"/>
        <pt x="125" y="0" on="1"/>
        <pt x="125" y="1101" on="1"/>
        <pt x="125" y="1502" on="0"/>
        <pt x="647" y="1502" on="1"/>
        <pt x="846" y="1502" on="0"/>
        <pt x="1066" y="1432" on="1"/>
        <pt x="1066" y="916" on="1"/>
        <pt x="1190" y="1050" on="0"/>
        <pt x="1383" y="1050" on="1"/>
        <pt x="1786" y="1050" on="0"/>
        <pt x="1786" y="659" on="1"/>
        <pt x="1786" y="0" on="1"/>
        <pt x="1521" y="0" on="1"/>
        <pt x="1521" y="662" on="1"/>
        <pt x="1521" y="836" on="0"/>
        <pt x="1328" y="836" on="1"/>
        <pt x="1189" y="836" on="0"/>
        <pt x="1066" y="703" on="1"/>
        <pt x="1066" y="0" on="1"/>
        <pt x="801" y="0" on="1"/>
      </contour>
    </TTGlyph>
    <TTGlyph name="fi" xMin="125" yMin="0" xMax="1036" yMax="1502">
      <contour>
        <pt x="1036" y="1050" on="1"/>
        <pt x="1036" y="0" on="1"/>
        <pt x="771" y="0" on="1"/>
        <pt x="771" y="840" on="1"/>
        <pt x="390" y="840" on="1"/>
        <pt x="390" y="0" on="1"/>
        <pt x="125" y="0" on="1"/>
        <pt x="125" y="1101" on="1"/>
        <pt x="125" y="1502" on="0"/>
        <pt x="597" y="1502" on="1"/>
        <pt x="766" y="1502" on="0"/>
        <pt x="936" y="1432" on="1"/>
        <pt x="936" y="1222" on="1"/>
        <pt x="782" y="1292" on="0"/>
        <pt x="616" y="1292" on="1"/>
        <pt x="390" y="1292" on="0"/>
        <pt x="390" y="1109" on="1"/>
        <pt x="390" y="1050" on="1"/>
      </contour>
    </TTGlyph>
    <TTGlyph name="five" xMin="125" yMin="-10" xMax="1085" yMax="1430">
      <contour>
        <pt x="175" y="1430" on="1"/>
        <pt x="1029" y="1430" on="1"/>
        <pt x="1029" y="1220" on="1"/>
        <pt x="403" y="1220" on="1"/>
        <pt x="379" y="868" on="1"/>
        <pt x="436" y="890" on="0"/>
        <pt x="545" y="890" on="1"/>
        <pt x="1085" y="890" on="0"/>
        <pt x="1085" y="450" on="1"/>
        <pt x="1085" y="-10" on="0"/>
        <pt x="525" y="-10" on="1"/>
        <pt x="325" y="-10" on="0"/>
        <pt x="125" y="50" on="1"/>
        <pt x="125" y="270" on="1"/>
        <pt x="325" y="200" on="0"/>
        <pt x="535" y="200" on="1"/>
        <pt x="820" y="200" on="0"/>
        <pt x="820" y="450" on="1"/>
        <pt x="820" y="680" on="0"/>
        <pt x="545" y="680" on="1"/>
        <pt x="320" y="680" on="0"/>
        <pt x="125" y="630" on="1"/>
      </contour>
    </TTGlyph>
    <TTGlyph name="five.osf" xMin="135" yMin="-290" xMax="1065" yMax="1050">
      <contour>
        <pt x="175" y="1050" on="1"/>
        <pt x="999" y="1050" on="1"/>
        <pt x="999" y="840" on="1"/>
        <pt x="402" y="840" on="1"/>
        <pt x="389" y="538" on="1"/>
        <pt x="466" y="560" on="0"/>
        <pt x="545" y="560" on="1"/>
        <pt x="1065" y="560" on="0"/>
        <pt x="1065" y="150" on="1"/>
        <pt x="1065" y="-290" on="0"/>
        <pt x="485" y="-290" on="1"/>
        <pt x="305" y="-290" on="0"/>
        <pt x="155" y="-230" on="1"/>
        <pt x="155" y="-10" on="1"/>
        <pt x="305" y="-80" on="0"/>
        <pt x="495" y="-80" on="1"/>
        <pt x="800" y="-80" on="0"/>
        <pt x="800" y="140" on="1"/>
        <pt x="800" y="350" on="0"/>
        <pt x="525" y="350" on="1"/>
        <pt x="330" y="350" on="0"/>
        <pt x="135" y="300" on="1"/>
      </contour>
    </TTGlyph>
    <TTGlyph name="fj" xMin="125" yMin="-438" xMax="1036" yMax="1502">
      <contour>
        <pt x="771" y="840" on="1"/>
        <pt x="390" y="840" on="1"/>
        <pt x="390" y="0" on="1"/>
        <pt x="125" y="0" on="1"/>
        <pt x="125" y="1101" on="1"/>
        <pt x="125" y="1502" on="0"/>
        <pt x="597" y="1502" on="1"/>
        <pt x="766" y="1502" on="0"/>
        <pt x="936" y="1432" on="1"/>
        <pt x="936" y="1222" on="1"/>
        <pt x="782" y="1292" on="0"/>
        <pt x="616" y="1292" on="1"/>
        <pt x="390" y="1292" on="0"/>
        <pt x="390" y="1109" on="1"/>
        <pt x="390" y="1050" on="1"/>
        <pt x="1036" y="1050" on="1"/>
        <pt x="1036" y="80" on="1"/>
        <pt x="1036" y="-238" on="0"/>
        <pt x="854" y="-438" on="1"/>
        <pt x="646" y="-293" on="1"/>
        <pt x="771" y="-158" on="0"/>
        <pt x="771" y="80" on="1"/>
      </contour>
    </TTGlyph>
    <TTGlyph name="fk" xMin="125" yMin="0" xMax="1847" yMax="1502">
      <contour>
        <pt x="801" y="1274" on="1"/>
        <pt x="721" y="1292" on="0"/>
        <pt x="636" y="1292" on="1"/>
        <pt x="390" y="1292" on="0"/>
        <pt x="390" y="1109" on="1"/>
        <pt x="390" y="1050" on="1"/>
        <pt x="625" y="1050" on="1"/>
        <pt x="625" y="840" on="1"/>
        <pt x="390" y="840" on="1"/>
        <pt x="390" y="0" on="1"/>
        <pt x="125" y="0" on="1"/>
        <pt x="125" y="1101" on="1"/>
        <pt x="125" y="1502" on="0"/>
        <pt x="647" y="1502" on="1"/>
        <pt x="846" y="1502" on="0"/>
        <pt x="1066" y="1432" on="1"/>
        <pt x="1066" y="968" on="1"/>
        <pt x="1229" y="1050" on="0"/>
        <pt x="1429" y="1050" on="1"/>
        <pt x="1811" y="1050" on="0"/>
        <pt x="1811" y="737" on="1"/>
        <pt x="1811" y="527" on="0"/>
        <pt x="1531" y="413" on="1"/>
        <pt x="1847" y="0" on="1"/>
        <pt x="1533" y="0" on="1"/>
        <pt x="1199" y="445" on="1"/>
        <pt x="1199" y="528" on="1"/>
        <pt x="1546" y="559" on="0"/>
        <pt x="1546" y="718" on="1"/>
        <pt x="1546" y="840" on="0"/>
        <pt x="1376" y="840" on="1"/>
        <pt x="1223" y="840" on="0"/>
        <pt x="1066" y="746" on="1"/>
        <pt x="1066" y="0" on="1"/>
        <pt x="801" y="0" on="1"/>
      </contour>
    </TTGlyph>
    <TTGlyph name="fl" xMin="125" yMin="0" xMax="1066" yMax="1502">
      <contour>
        <pt x="801" y="1274" on="1"/>
        <pt x="721" y="1292" on="0"/>
        <pt x="636" y="1292" on="1"/>
        <pt x="390" y="1292" on="0"/>
        <pt x="390" y="1109" on="1"/>
        <pt x="390" y="1050" on="1"/>
        <pt x="625" y="1050" on="1"/>
        <pt x="625" y="840" on="1"/>
        <pt x="390" y="840" on="1"/>
        <pt x="390" y="0" on="1"/>
        <pt x="125" y="0" on="1"/>
        <pt x="125" y="1101" on="1"/>
        <pt x="125" y="1502" on="0"/>
        <pt x="647" y="1502" on="1"/>
        <pt x="846" y="1502" on="0"/>
        <pt x="1066" y="1432" on="1"/>
        <pt x="1066" y="0" on="1"/>
        <pt x="801" y="0" on="1"/>
      </contour>
    </TTGlyph>
    <TTGlyph name="florin" xMin="50" yMin="-384" xMax="1077" yMax="1434">
      <contour>
        <pt x="1077" y="1220" on="1"/>
        <pt x="1038" y="1227" on="0"/>
        <pt x="1005" y="1227" on="1"/>
        <pt x="846" y="1227" on="0"/>
        <pt x="805" y="1070" on="1"/>
        <pt x="781" y="980" on="1"/>
        <pt x="1001" y="980" on="1"/>
        <pt x="961" y="770" on="1"/>
        <pt x="751" y="770" on="1"/>
        <pt x="587" y="-20" on="1"/>
        <pt x="514" y="-384" on="0"/>
        <pt x="130" y="-384" on="1"/>
        <pt x="92" y="-384" on="0"/>
        <pt x="50" y="-380" on="1"/>
        <pt x="50" y="-170" on="1"/>
        <pt x="89" y="-177" on="0"/>
        <pt x="122" y="-177" on="1"/>
        <pt x="281" y="-177" on="0"/>
        <pt x="322" y="-20" on="1"/>
        <pt x="486" y="770" on="1"/>
        <pt x="296" y="770" on="1"/>
        <pt x="336" y="980" on="1"/>
        <pt x="516" y="980" on="1"/>
        <pt x="540" y="1070" on="1"/>
        <pt x="613" y="1434" on="0"/>
        <pt x="997" y="1434" on="1"/>
        <pt x="1035" y="1434" on="0"/>
        <pt x="1077" y="1430" on="1"/>
      </contour>
    </TTGlyph>
    <TTGlyph name="four" xMin="60" yMin="0" xMax="1195" yMax="1430">
      <contour>
        <pt x="1047" y="0" on="1"/>
        <pt x="782" y="0" on="1"/>
        <pt x="782" y="310" on="1"/>
        <pt x="60" y="310" on="1"/>
        <pt x="60" y="510" on="1"/>
        <pt x="645" y="1430" on="1"/>
        <pt x="929" y="1430" on="1"/>
        <pt x="363" y="520" on="1"/>
        <pt x="782" y="520" on="1"/>
        <pt x="782" y="998" on="1"/>
        <pt x="1047" y="998" on="1"/>
        <pt x="1047" y="520" on="1"/>
        <pt x="1195" y="384" on="1"/>
        <pt x="1195" y="310" on="1"/>
        <pt x="1047" y="310" on="1"/>
      </contour>
    </TTGlyph>
    <TTGlyph name="four.osf" xMin="60" yMin="-280" xMax="1125" yMax="1049">
      <contour>
        <pt x="977" y="-280" on="1"/>
        <pt x="712" y="-280" on="1"/>
        <pt x="712" y="29" on="1"/>
        <pt x="60" y="29" on="1"/>
        <pt x="60" y="239" on="1"/>
        <pt x="565" y="1049" on="1"/>
        <pt x="859" y="1049" on="1"/>
        <pt x="333" y="239" on="1"/>
        <pt x="712" y="239" on="1"/>
        <pt x="712" y="657" on="1"/>
        <pt x="977" y="657" on="1"/>
        <pt x="977" y="239" on="1"/>
        <pt x="1125" y="163" on="1"/>
        <pt x="1125" y="29" on="1"/>
        <pt x="977" y="29" on="1"/>
      </contour>
    </TTGlyph>
    <TTGlyph name="fraction" xMin="100" yMin="0" xMax="1170" yMax="1430">
      <contour>
        <pt x="345" y="0" on="1"/>
        <pt x="100" y="0" on="1"/>
        <pt x="925" y="1430" on="1"/>
        <pt x="1170" y="1430" on="1"/>
      </contour>
    </TTGlyph>
    <TTGlyph name="g" xMin="75" yMin="-380" xMax="1062" yMax="1050">
      <contour>
        <pt x="797" y="812" on="1"/>
        <pt x="732" y="836" on="0"/>
        <pt x="612" y="836" on="1"/>
        <pt x="337" y="836" on="0"/>
        <pt x="337" y="533" on="1"/>
        <pt x="337" y="240" on="0"/>
        <pt x="574" y="240" on="1"/>
        <pt x="688" y="240" on="0"/>
        <pt x="797" y="294" on="1"/>
      </contour>
      <contour>
        <pt x="1062" y="80" on="1"/>
        <pt x="1062" y="-380" on="0"/>
        <pt x="509" y="-380" on="1"/>
        <pt x="315" y="-380" on="0"/>
        <pt x="165" y="-330" on="1"/>
        <pt x="165" y="-120" on="1"/>
        <pt x="318" y="-170" on="0"/>
        <pt x="511" y="-170" on="1"/>
        <pt x="797" y="-170" on="0"/>
        <pt x="797" y="70" on="1"/>
        <pt x="679" y="20" on="0"/>
        <pt x="543" y="20" on="1"/>
        <pt x="75" y="20" on="0"/>
        <pt x="75" y="531" on="1"/>
        <pt x="75" y="1050" on="0"/>
        <pt x="620" y="1050" on="1"/>
        <pt x="803" y="1050" on="0"/>
        <pt x="1062" y="1007" on="1"/>
      </contour>
    </TTGlyph>
    <TTGlyph name="g.alt" xMin="75" yMin="-400" xMax="1100" yMax="1050">
      <contour>
        <pt x="555" y="1050" on="1"/>
        <pt x="701" y="1050" on="0"/>
        <pt x="808" y="1000" on="1"/>
        <pt x="954" y="1050" on="1"/>
        <pt x="1100" y="1050" on="1"/>
        <pt x="1100" y="840" on="1"/>
        <pt x="965" y="840" on="1"/>
        <pt x="1009" y="761" on="0"/>
        <pt x="1010" y="687" on="1"/>
        <pt x="1010" y="315" on="0"/>
        <pt x="542" y="315" on="1"/>
        <pt x="449" y="315" on="0"/>
        <pt x="388" y="336" on="1"/>
        <pt x="340" y="292" on="0"/>
        <pt x="340" y="241" on="1"/>
        <pt x="340" y="190" on="0"/>
        <pt x="399" y="190" on="1"/>
        <pt x="713" y="190" on="1"/>
        <pt x="1070" y="190" on="0"/>
        <pt x="1070" y="-75" on="1"/>
        <pt x="1070" y="-400" on="0"/>
        <pt x="528" y="-400" on="1"/>
        <pt x="286" y="-400" on="0"/>
        <pt x="75" y="-310" on="1"/>
        <pt x="75" y="-80" on="1"/>
        <pt x="289" y="-190" on="0"/>
        <pt x="532" y="-190" on="1"/>
        <pt x="815" y="-190" on="0"/>
        <pt x="815" y="-75" on="1"/>
        <pt x="815" y="-20" on="0"/>
        <pt x="716" y="-20" on="1"/>
        <pt x="323" y="-20" on="1"/>
        <pt x="90" y="-20" on="0"/>
        <pt x="90" y="174" on="1"/>
        <pt x="90" y="308" on="0"/>
        <pt x="230" y="401" on="1"/>
        <pt x="85" y="500" on="0"/>
        <pt x="85" y="678" on="1"/>
        <pt x="85" y="1050" on="0"/>
      </contour>
      <contour>
        <pt x="350" y="530" on="0"/>
        <pt x="550" y="530" on="1"/>
        <pt x="745" y="530" on="0"/>
        <pt x="745" y="685" on="1"/>
        <pt x="745" y="840" on="0"/>
        <pt x="550" y="840" on="1"/>
        <pt x="350" y="840" on="0"/>
        <pt x="350" y="685" on="1"/>
      </contour>
    </TTGlyph>
    <TTGlyph name="gamma" xMin="25" yMin="-380" xMax="1065" yMax="1050">
      <contour>
        <pt x="25" y="1050" on="1"/>
        <pt x="300" y="1050" on="1"/>
        <pt x="542" y="273" on="1"/>
        <pt x="790" y="1050" on="1"/>
        <pt x="1065" y="1050" on="1"/>
        <pt x="669" y="0" on="1"/>
        <pt x="669" y="-380" on="1"/>
        <pt x="404" y="-380" on="1"/>
        <pt x="404" y="0" on="1"/>
      </contour>
    </TTGlyph>
    <TTGlyph name="gbreve" xMin="75" yMin="-380" xMax="1062" yMax="1430">
      <component glyphName="g" x="0" y="0" flags="0x200"/>
      <component glyphName="breve" x="204" y="0" flags="0x0"/>
    </TTGlyph>
    <TTGlyph name="gbreve.alt" xMin="75" yMin="-400" xMax="1100" yMax="1430">
      <contour>
        <pt x="555" y="1050" on="1"/>
        <pt x="701" y="1050" on="0"/>
        <pt x="808" y="1000" on="1"/>
        <pt x="954" y="1050" on="1"/>
        <pt x="1100" y="1050" on="1"/>
        <pt x="1100" y="840" on="1"/>
        <pt x="965" y="840" on="1"/>
        <pt x="1009" y="761" on="0"/>
        <pt x="1010" y="687" on="1"/>
        <pt x="1010" y="315" on="0"/>
        <pt x="542" y="315" on="1"/>
        <pt x="449" y="315" on="0"/>
        <pt x="388" y="336" on="1"/>
        <pt x="340" y="292" on="0"/>
        <pt x="340" y="241" on="1"/>
        <pt x="340" y="190" on="0"/>
        <pt x="399" y="190" on="1"/>
        <pt x="713" y="190" on="1"/>
        <pt x="1070" y="190" on="0"/>
        <pt x="1070" y="-75" on="1"/>
        <pt x="1070" y="-400" on="0"/>
        <pt x="528" y="-400" on="1"/>
        <pt x="286" y="-400" on="0"/>
        <pt x="75" y="-310" on="1"/>
        <pt x="75" y="-80" on="1"/>
        <pt x="289" y="-190" on="0"/>
        <pt x="532" y="-190" on="1"/>
        <pt x="815" y="-190" on="0"/>
        <pt x="815" y="-75" on="1"/>
        <pt x="815" y="-20" on="0"/>
        <pt x="716" y="-20" on="1"/>
        <pt x="323" y="-20" on="1"/>
        <pt x="90" y="-20" on="0"/>
        <pt x="90" y="174" on="1"/>
        <pt x="90" y="308" on="0"/>
        <pt x="230" y="401" on="1"/>
        <pt x="85" y="500" on="0"/>
        <pt x="85" y="678" on="1"/>
        <pt x="85" y="1050" on="0"/>
      </contour>
      <contour>
        <pt x="350" y="530" on="0"/>
        <pt x="550" y="530" on="1"/>
        <pt x="745" y="530" on="0"/>
        <pt x="745" y="685" on="1"/>
        <pt x="745" y="840" on="0"/>
        <pt x="550" y="840" on="1"/>
        <pt x="350" y="840" on="0"/>
        <pt x="350" y="685" on="1"/>
      </contour>
      <contour>
        <pt x="250" y="1430" on="1"/>
        <pt x="425" y="1430" on="1"/>
        <pt x="425" y="1290" on="0"/>
        <pt x="545" y="1290" on="1"/>
        <pt x="665" y="1290" on="0"/>
        <pt x="665" y="1430" on="1"/>
        <pt x="840" y="1430" on="1"/>
        <pt x="840" y="1140" on="0"/>
        <pt x="545" y="1140" on="1"/>
        <pt x="250" y="1140" on="0"/>
      </contour>
    </TTGlyph>
    <TTGlyph name="gcircumflex" xMin="75" yMin="-380" xMax="1062" yMax="1430">
      <component glyphName="g" x="0" y="0" flags="0x200"/>
      <component glyphName="circumflex" x="249" y="0" flags="0x0"/>
    </TTGlyph>
    <TTGlyph name="gcircumflex.alt" xMin="75" yMin="-400" xMax="1100" yMax="1430">
      <contour>
        <pt x="555" y="1050" on="1"/>
        <pt x="701" y="1050" on="0"/>
        <pt x="808" y="1000" on="1"/>
        <pt x="954" y="1050" on="1"/>
        <pt x="1100" y="1050" on="1"/>
        <pt x="1100" y="840" on="1"/>
        <pt x="965" y="840" on="1"/>
        <pt x="1009" y="761" on="0"/>
        <pt x="1010" y="687" on="1"/>
        <pt x="1010" y="315" on="0"/>
        <pt x="542" y="315" on="1"/>
        <pt x="449" y="315" on="0"/>
        <pt x="388" y="336" on="1"/>
        <pt x="340" y="292" on="0"/>
        <pt x="340" y="241" on="1"/>
        <pt x="340" y="190" on="0"/>
        <pt x="399" y="190" on="1"/>
        <pt x="713" y="190" on="1"/>
        <pt x="1070" y="190" on="0"/>
        <pt x="1070" y="-75" on="1"/>
        <pt x="1070" y="-400" on="0"/>
        <pt x="528" y="-400" on="1"/>
        <pt x="286" y="-400" on="0"/>
        <pt x="75" y="-310" on="1"/>
        <pt x="75" y="-80" on="1"/>
        <pt x="289" y="-190" on="0"/>
        <pt x="532" y="-190" on="1"/>
        <pt x="815" y="-190" on="0"/>
        <pt x="815" y="-75" on="1"/>
        <pt x="815" y="-20" on="0"/>
        <pt x="716" y="-20" on="1"/>
        <pt x="323" y="-20" on="1"/>
        <pt x="90" y="-20" on="0"/>
        <pt x="90" y="174" on="1"/>
        <pt x="90" y="308" on="0"/>
        <pt x="230" y="401" on="1"/>
        <pt x="85" y="500" on="0"/>
        <pt x="85" y="678" on="1"/>
        <pt x="85" y="1050" on="0"/>
      </contour>
      <contour>
        <pt x="350" y="530" on="0"/>
        <pt x="550" y="530" on="1"/>
        <pt x="745" y="530" on="0"/>
        <pt x="745" y="685" on="1"/>
        <pt x="745" y="840" on="0"/>
        <pt x="550" y="840" on="1"/>
        <pt x="350" y="840" on="0"/>
        <pt x="350" y="685" on="1"/>
      </contour>
      <contour>
        <pt x="484" y="1430" on="1"/>
        <pt x="634" y="1430" on="1"/>
        <pt x="809" y="1170" on="1"/>
        <pt x="629" y="1170" on="1"/>
        <pt x="559" y="1300" on="1"/>
        <pt x="489" y="1170" on="1"/>
        <pt x="309" y="1170" on="1"/>
      </contour>
    </TTGlyph>
</ttFont>
